<?xml version="1.0" encoding="utf-8"?>
<!-- Generator: Adobe Illustrator 18.1.1, SVG Export Plug-In . SVG Version: 6.00 Build 0)  -->
<!DOCTYPE svg PUBLIC "-//W3C//DTD SVG 1.1//EN" "http://www.w3.org/Graphics/SVG/1.1/DTD/svg11.dtd">
<svg version="1.1" id="Ebene_1" xmlns="http://www.w3.org/2000/svg" xmlns:xlink="http://www.w3.org/1999/xlink" x="0px" y="0px"
	 width="570px" height="247px" viewBox="0 0 570 247" enable-background="new 0 0 570 247" xml:space="preserve">
<g>
	<g opacity="0.5">
		<path fill="#9EA3A5" d="M119.5,246.8H3.3c-1.8,0-3.3-1.5-3.3-3.3c0-1.8,1.5-3.3,3.3-3.3H11l1.1,1.1h98.7l1.1-1.1h7.7
			c1.8,0,3.3,1.5,3.3,3.3C122.8,245.3,121.3,246.8,119.5,246.8z"/>
	</g>
	<g opacity="0.5">
		<path fill="#9EA3A5" d="M115.1,244.6H7.7c-1.2,0-2.2-1-2.2-2.2s1-2.2,2.2-2.2H11l1.1,1.1h98.7l1.1-1.1h3.3c1.2,0,2.2,1,2.2,2.2
			S116.3,244.6,115.1,244.6z"/>
	</g>
	<g opacity="0.5">
		<path fill="#9EA3A5" d="M566.7,246.8H450.5c-1.8,0-3.3-1.5-3.3-3.3c0-1.8,1.5-3.3,3.3-3.3h7.7l1.1,1.1h98.7l1.1-1.1h7.7
			c1.8,0,3.3,1.5,3.3,3.3C570,245.3,568.5,246.8,566.7,246.8z"/>
	</g>
	<g opacity="0.5">
		<path fill="#9EA3A5" d="M562.3,244.6H454.9c-1.2,0-2.2-1-2.2-2.2s1-2.2,2.2-2.2h3.3l1.1,1.1h98.7l1.1-1.1h3.3c1.2,0,2.2,1,2.2,2.2
			S563.5,244.6,562.3,244.6z"/>
	</g>
	<g>
		<g>
			<g>
				<g opacity="0.25">
					<path fill="#9EA3A5" d="M560.1,33.1h-103H456v1.1v65.7c0.4,0.1,0.7,0.3,1.1,0.4V34.2h103V203h-103v-61.7
						c-0.4,0.1-0.7,0.3-1.1,0.4V203v1.1h1.1h103h1.1V203V34.2v-1.1H560.1z"/>
				</g>
				<g>
					<path fill="#9EA3A5" d="M508.6,212.8c5.4,0,9.9,4.4,9.9,9.9c0,5.4-4.4,9.9-9.9,9.9c-5.4,0-9.9-4.4-9.9-9.9
						C498.8,217.3,503.2,212.8,508.6,212.8 M508.6,211.7c-6,0-11,4.9-11,11s4.9,11,11,11c6,0,11-4.9,11-11S514.7,211.7,508.6,211.7
						L508.6,211.7z"/>
				</g>
				<g opacity="0.25">
					<g>
						<path fill="#9EA3A5" d="M498.8,222.7c0,0,0-0.1,0-0.4c0-0.2-0.1-0.6-0.1-1c0-0.2,0-0.5,0-0.7c0-0.3,0.1-0.5,0.1-0.9
							c0.1-0.6,0.3-1.3,0.6-2c0.3-0.7,0.7-1.5,1.3-2.2c0.5-0.7,1.2-1.4,2.1-2c0.8-0.6,1.7-1.1,2.7-1.4c1-0.3,2.1-0.5,3.2-0.5
							c0.6,0,1,0,1.6,0.1c0.6,0.1,1.1,0.2,1.6,0.4c1,0.3,1.9,0.8,2.7,1.4c0.8,0.6,1.5,1.2,2.1,2c0.6,0.7,1,1.5,1.3,2.2
							c0.3,0.7,0.5,1.4,0.6,2c0,0.3,0.1,0.6,0.1,0.9c0,0.3,0,0.5,0,0.7c0,0.4-0.1,0.8-0.1,1c0,0.2,0,0.3,0,0.3s0-0.1-0.1-0.3
							c-0.1-0.2-0.1-0.6-0.2-1c-0.1-0.4-0.3-0.9-0.5-1.4c-0.2-0.5-0.5-1.1-0.9-1.7c-0.4-0.6-0.8-1.1-1.4-1.7c-0.5-0.5-1.2-1-1.9-1.4
							c-0.7-0.4-1.5-0.7-2.3-1c-0.4-0.1-0.8-0.2-1.2-0.2c-0.3-0.1-1-0.1-1.3-0.1c-0.9,0-1.7,0.1-2.5,0.3c-0.8,0.3-1.6,0.5-2.3,1
							c-0.7,0.4-1.4,0.9-1.9,1.4c-0.6,0.5-1,1.1-1.4,1.7c-0.4,0.6-0.7,1.1-0.9,1.7c-0.2,0.5-0.4,1-0.5,1.4c-0.1,0.4-0.2,0.7-0.2,1
							C498.8,222.6,498.8,222.7,498.8,222.7z"/>
					</g>
				</g>
				<g>
					<path fill="#9EA3A5" d="M560.1,203V34.2h-103v66.1c0.8,0.3,1.5,0.6,2.2,1V36.4h98.7v164.4h-98.7v-60.5c-0.7,0.4-1.4,0.7-2.2,1
						V203H560.1z"/>
					<path fill="#9EA3A5" d="M551.4,0.2h-85.5c-9.7,0-17.5,7.9-17.5,17.5v81.2c0.4,0,0.7-0.1,1.1-0.1c0.4,0,0.7,0,1.1,0.1V17.7
						c0-8.5,6.9-15.3,15.3-15.3h85.5c8.5,0,15.3,6.9,15.3,15.3V226c0,8.5-6.9,15.3-15.3,15.3h-85.5c-8.5,0-15.3-6.9-15.3-15.3v-83.4
						c-0.4,0-0.7,0.1-1.1,0.1c-0.4,0-0.7,0-1.1-0.1V226c0,9.7,7.9,17.5,17.5,17.5h85.5c9.7,0,17.5-7.9,17.5-17.5V17.7
						C568.9,8.1,561,0.2,551.4,0.2z"/>
				</g>
				<g opacity="0.25">
					<g>
						<path fill="#9EA3A5" d="M519.3,223c0,0,0,0.1,0,0.4c0,0.2,0.1,0.6,0.1,1.1c0,0.2,0,0.5,0,0.8c0,0.3-0.1,0.6-0.1,0.9
							c-0.1,0.7-0.3,1.4-0.7,2.2c-0.3,0.8-0.8,1.6-1.4,2.3c-0.6,0.8-1.4,1.5-2.2,2.1c-0.9,0.6-1.9,1.1-3,1.5
							c-1.1,0.3-2.2,0.5-3.4,0.5c-1,0-2.3-0.2-3.3-0.5c-1.1-0.3-2.1-0.9-3-1.5c-0.9-0.6-1.6-1.3-2.2-2.1c-0.6-0.7-1.1-1.6-1.4-2.3
							c-0.3-0.8-0.5-1.5-0.7-2.2c0-0.3-0.1-0.6-0.1-0.9c0-0.3,0-0.5,0-0.8c0-0.5,0.1-0.8,0.1-1.1c0-0.2,0-0.4,0-0.4s0,0.1,0.1,0.4
							c0.1,0.2,0.1,0.6,0.2,1c0.1,0.2,0.1,0.5,0.2,0.7c0.1,0.3,0.2,0.5,0.3,0.8c0.2,0.6,0.6,1.2,1,1.8c0.4,0.6,0.9,1.2,1.5,1.8
							c0.6,0.6,1.3,1.1,2.1,1.6c0.8,0.5,1.6,0.8,2.5,1.1c0.9,0.3,1.7,0.4,2.8,0.4c0.8,0,1.9-0.1,2.7-0.4c0.9-0.3,1.8-0.6,2.5-1.1
							c0.8-0.5,1.5-1,2.1-1.6c0.6-0.6,1.1-1.2,1.5-1.8c0.4-0.6,0.7-1.2,1-1.8c0.1-0.3,0.2-0.6,0.3-0.8c0.1-0.3,0.1-0.5,0.2-0.7
							c0.1-0.4,0.2-0.8,0.2-1C519.3,223.1,519.3,223,519.3,223z"/>
					</g>
				</g>
				<g>
					<circle fill="#9EA3A5" cx="508.6" cy="13.3" r="1.1"/>
				</g>
				<g opacity="0.25">
					<g>
						<path fill="#9EA3A5" d="M508.6,11.1c1.2,0,2.2,1,2.2,2.2s-1,2.2-2.2,2.2s-2.2-1-2.2-2.2S507.4,11.1,508.6,11.1 M508.6,10
							c-1.8,0-3.3,1.5-3.3,3.3s1.5,3.3,3.3,3.3s3.3-1.5,3.3-3.3S510.4,10,508.6,10L508.6,10z"/>
					</g>
				</g>
				<g opacity="0.75">
					<g>
						<path fill="#9EA3A5" d="M508.6,12.2c0.6,0,1.1,0.5,1.1,1.1s-0.5,1.1-1.1,1.1s-1.1-0.5-1.1-1.1S508,12.2,508.6,12.2
							 M508.6,11.1c-1.2,0-2.2,1-2.2,2.2s1,2.2,2.2,2.2s2.2-1,2.2-2.2S509.8,11.1,508.6,11.1L508.6,11.1z"/>
					</g>
				</g>
				<g opacity="0.25">
					<g>
						<path fill="#9EA3A5" d="M521.8,23.7L521.8,23.7c0,1.5-1.2,2.7-2.7,2.7h-20.8c-1.5,0-2.7-1.2-2.7-2.7v0c0-1.5,1.2-2.7,2.7-2.7
							H519C520.5,21,521.8,22.2,521.8,23.7z"/>
					</g>
				</g>
				<g opacity="0.5">
					<g>
						<polygon fill="#9EA3A5" points="520.7,22.1 521.8,23.2 495.5,23.2 496.6,22.1 						"/>
					</g>
				</g>
				<g opacity="0.25">
					<g>
						<polygon fill="#9EA3A5" points="520.7,24.3 519.6,25.4 497.7,25.4 496.6,24.3 						"/>
					</g>
				</g>
				<g>
					<path fill="#9EA3A5" d="M519,22.1c0.9,0,1.6,0.7,1.6,1.6s-0.7,1.6-1.6,1.6h-20.8c-0.9,0-1.6-0.7-1.6-1.6s0.7-1.6,1.6-1.6H519
						 M519,21h-20.8c-1.5,0-2.7,1.2-2.7,2.7s1.2,2.7,2.7,2.7H519c1.5,0,2.7-1.2,2.7-2.7S520.5,21,519,21L519,21z"/>
				</g>
			</g>
		</g>
		<g>
			<g opacity="0.25">
				<g>
					<rect x="458.2" y="99.9" fill="#9EA3A5" width="100.8" height="1.1"/>
				</g>
			</g>
			<g opacity="0.75">
				<g>
					<g>
						<rect x="492.2" y="45.1" fill="#FD9838" width="26.3" height="8.8"/>
					</g>
				</g>
			</g>
			<g opacity="0.5">
				<g>
					<g>
						<rect x="492.2" y="59.4" fill="#FD9838" width="35.1" height="4.4"/>
					</g>
				</g>
			</g>
			<g opacity="0.5">
				<g>
					<g>
						<rect x="465.9" y="187.6" fill="#FD9838" width="57" height="4.4"/>
					</g>
				</g>
			</g>
			<g opacity="0.75">
				<g>
					<g>
						<rect x="465.9" y="195.3" fill="#9EA3A5" width="85.5" height="3.3"/>
					</g>
				</g>
			</g>
			<g>
				<g>
					<path fill="#50B8E7" d="M492.2,73.1L492.2,73.1c0,0.9,0.7,1.6,1.6,1.6l0,0c0.9,0,1.6-0.7,1.6-1.6l0,0c0-0.9-0.7-1.6-1.6-1.6
						l0,0C492.9,71.4,492.2,72.2,492.2,73.1z"/>
				</g>
			</g>
			<g>
				<g>
					<path fill="#50B8E7" d="M496.6,73.1L496.6,73.1c0,0.9,0.7,1.6,1.6,1.6h0c0.9,0,1.6-0.7,1.6-1.6l0,0c0-0.9-0.7-1.6-1.6-1.6h0
						C497.3,71.4,496.6,72.2,496.6,73.1z"/>
				</g>
			</g>
			<g>
				<g>
					<path fill="#50B8E7" d="M500.9,73.1L500.9,73.1c0,0.9,0.7,1.6,1.6,1.6l0,0c0.9,0,1.6-0.7,1.6-1.6l0,0c0-0.9-0.7-1.6-1.6-1.6
						l0,0C501.7,71.4,500.9,72.2,500.9,73.1z"/>
				</g>
			</g>
			<g>
				<g>
					<path fill="#50B8E7" d="M505.3,73.1L505.3,73.1c0,0.9,0.7,1.6,1.6,1.6l0,0c0.9,0,1.6-0.7,1.6-1.6l0,0c0-0.9-0.7-1.6-1.6-1.6
						l0,0C506.1,71.4,505.3,72.2,505.3,73.1z"/>
				</g>
			</g>
			<g>
				<g>
					<path fill="#50B8E7" d="M509.7,73.1L509.7,73.1c0,0.9,0.7,1.6,1.6,1.6l0,0c0.9,0,1.6-0.7,1.6-1.6l0,0c0-0.9-0.7-1.6-1.6-1.6
						l0,0C510.4,71.4,509.7,72.2,509.7,73.1z"/>
				</g>
			</g>
			<g>
				<polygon fill="#FD9838" points="545.9,64.4 543.7,66.6 543.7,61.6 541.5,61.6 541.5,66.6 539.3,64.4 537.8,66 542.6,70.8 
					547.4,66 				"/>
			</g>
			<g>
				<path fill="#FD9838" d="M542.6,58.3c4.2,0,7.7,3.4,7.7,7.7c0,4.2-3.4,7.7-7.7,7.7s-7.7-3.4-7.7-7.7
					C534.9,61.7,538.4,58.3,542.6,58.3 M542.6,57.2c-4.8,0-8.8,3.9-8.8,8.8s3.9,8.8,8.8,8.8c4.8,0,8.8-3.9,8.8-8.8
					S547.4,57.2,542.6,57.2L542.6,57.2z"/>
			</g>
			<g opacity="0.5">
				<path fill="#9EA3A5" d="M550.3,83.5H467c-0.6,0-1.1,0.5-1.1,1.1v8.8c0,0.6,0.5,1.1,1.1,1.1h83.3c0.6,0,1.1-0.5,1.1-1.1v-8.8
					C551.4,84,550.9,83.5,550.3,83.5z M495.5,93.4v-8.8h26.3v8.8H495.5z M550.3,93.4h-27.4v-8.8h27.4V93.4z"/>
			</g>
			<g opacity="0.5">
				<g>
					<g>
						<g>
							<rect x="474.6" y="86.8" fill="#9EA3A5" width="12.1" height="4.4"/>
						</g>
					</g>
				</g>
			</g>
			<g opacity="0.5">
				<g>
					<g>
						<g>
							<rect x="502" y="86.8" fill="#9EA3A5" width="13.2" height="4.4"/>
						</g>
					</g>
				</g>
			</g>
			<g opacity="0.5">
				<g>
					<g>
						<g>
							<rect x="530.5" y="86.8" fill="#9EA3A5" width="12.1" height="4.4"/>
						</g>
					</g>
				</g>
			</g>
			<g>
				<g>
					<path fill="#50B8E7" d="M481.2,44h-11c-2.4,0-4.4,2-4.4,4.4v11c0,2.4,2,4.4,4.4,4.4h11c2.4,0,4.4-2,4.4-4.4v-11
						C485.6,46,483.6,44,481.2,44z M483.4,59.4c0,1.2-1,2.2-2.2,2.2h-11c-1.2,0-2.2-1-2.2-2.2v-11c0-1.2,1-2.2,2.2-2.2h11
						c1.2,0,2.2,1,2.2,2.2V59.4z"/>
				</g>
				<g>
					<path fill="#50B8E7" d="M475.7,49.5c-2.4,0-4.4,2-4.4,4.4s2,4.4,4.4,4.4c2.4,0,4.4-2,4.4-4.4S478.2,49.5,475.7,49.5z
						 M475.7,57.2c-1.8,0-3.3-1.5-3.3-3.3c0-1.8,1.5-3.3,3.3-3.3c1.8,0,3.3,1.5,3.3,3.3C479,55.7,477.5,57.2,475.7,57.2z"/>
				</g>
			</g>
			<g>
				<path fill="#50B8E7" d="M504.2,106.5H467c-0.3,0-0.5,0.1-0.7,0.3c0.2,0.3,0.4,0.6,0.7,0.9v0h37.3v69.1H467v-42.8
					c-0.3,0.5-0.7,0.9-1.1,1.4v41.4c0,0.6,0.5,1.1,1.1,1.1h37.3c0.6,0,1.1-0.5,1.1-1.1v-69.1C505.3,107,504.8,106.5,504.2,106.5z"/>
			</g>
			<g opacity="0.5">
				<path fill="#50B8E7" d="M466.1,106.5c3.3,3.8,5.3,8.8,5.3,14.2c0,5.6-2.1,10.6-5.5,14.5v4.2h39.5v-32.9H466.1z"/>
			</g>
			<g opacity="0.5">
				<g>
					<rect x="511.9" y="106.5" fill="#50B8E7" width="39.5" height="6.6"/>
				</g>
			</g>
			<g>
				<g>
					<rect x="479" y="129.5" fill="#FFFFFF" width="13.2" height="2.2"/>
				</g>
			</g>
			<g>
				<g>
					<rect x="474.6" y="133.9" fill="#FFFFFF" width="7.7" height="1.1"/>
				</g>
			</g>
			<g>
				<g>
					<rect x="488.9" y="133.9" fill="#FFFFFF" width="11" height="1.1"/>
				</g>
			</g>
			<g>
				<g>
					<g>
						<path fill="#FFFFFF" d="M485.6,126.2c-3.6,0-6.6-3-6.6-6.6c0-3.6,3-6.6,6.6-6.6c3.6,0,6.6,3,6.6,6.6
							C492.2,123.3,489.2,126.2,485.6,126.2z"/>
					</g>
				</g>
			</g>
			<g opacity="0.5">
				<g>
					<g>
						<rect x="469.2" y="141.6" fill="#FD9838" width="15.3" height="15.3"/>
					</g>
				</g>
			</g>
			<g opacity="0.5">
				<g>
					<g>
						<rect x="486.7" y="141.6" fill="#FD9838" width="15.3" height="15.3"/>
					</g>
				</g>
			</g>
			<g opacity="0.5">
				<g>
					<g>
						<rect x="515.2" y="115.3" fill="#FD9838" width="32.9" height="30.7"/>
					</g>
				</g>
			</g>
			<g opacity="0.5">
				<g>
					<g>
						<rect x="515.2" y="154.7" fill="#FD9838" width="32.9" height="21.9"/>
					</g>
				</g>
			</g>
			<g opacity="0.75">
				<g>
					<g>
						<path fill="#FD9838" d="M547,150.4L547,150.4c-0.6,0-1.1-0.5-1.1-1.1v0c0-0.6,0.5-1.1,1.1-1.1l0,0c0.6,0,1.1,0.5,1.1,1.1v0
							C548.1,149.9,547.6,150.4,547,150.4z"/>
					</g>
				</g>
			</g>
			<g opacity="0.75">
				<g>
					<g>
						<path fill="#FD9838" d="M543.7,150.4L543.7,150.4c-0.6,0-1.1-0.5-1.1-1.1v0c0-0.6,0.5-1.1,1.1-1.1l0,0c0.6,0,1.1,0.5,1.1,1.1
							v0C544.8,149.9,544.3,150.4,543.7,150.4z"/>
					</g>
				</g>
			</g>
			<g opacity="0.75">
				<g>
					<g>
						<rect x="515.2" y="148.2" fill="#FD9838" width="13.2" height="2.2"/>
					</g>
				</g>
			</g>
			<g opacity="0.5">
				<g>
					<g>
						<rect x="469.2" y="159.1" fill="#FD9838" width="15.3" height="15.3"/>
					</g>
				</g>
			</g>
			<g opacity="0.5">
				<g>
					<g>
						<rect x="486.7" y="159.1" fill="#FD9838" width="15.3" height="15.3"/>
					</g>
				</g>
			</g>
			<g>
				<g>
					<path fill="#50B8E7" d="M550.3,107.6v69.1H513v-69.1H550.3 M550.3,106.5H513c-0.6,0-1.1,0.5-1.1,1.1v69.1
						c0,0.6,0.5,1.1,1.1,1.1h37.3c0.6,0,1.1-0.5,1.1-1.1v-69.1C551.4,107,550.9,106.5,550.3,106.5L550.3,106.5z"/>
				</g>
			</g>
		</g>
	</g>
	<g opacity="0.5">
		<path fill="#9EA3A5" d="M343.1,128.3v47.2c0,1.8-1.5,3.3-3.3,3.3H231.3c-1.8,0-3.3-1.5-3.3-3.3l-2.2-2.2v2.2c0,3,2.5,5.5,5.5,5.5
			h108.5c3,0,5.5-2.5,5.5-5.5v-47.2c-0.4,0.1-0.7,0.1-1.1,0.1C343.8,128.4,343.5,128.4,343.1,128.3z"/>
		<path fill="#9EA3A5" d="M345.3,113.2V67c0-3-2.5-5.5-5.5-5.5h-2.2l2.2,2.2c1.8,0,3.3,1.5,3.3,3.3v46.1c0.4-0.1,0.7-0.1,1.1-0.1
			C344.6,113.1,344.9,113.1,345.3,113.2z"/>
	</g>
	<g>
		<path fill="#9EA3A5" d="M342,174.5c0,1.8-1.5,3.3-3.3,3.3H231.3c-1.8,0-3.3-1.5-3.3-3.3v-46.4c-0.7,0.2-1.4,0.3-2.2,0.3v46
			c0,3,2.5,5.5,5.5,5.5h107.4c3,0,5.5-2.5,5.5-5.5v-46c-0.8,0-1.5-0.1-2.2-0.3V174.5z"/>
		<path fill="#9EA3A5" d="M228,67c0-1.8,1.5-3.3,3.3-3.3h107.4c1.8,0,3.3,1.5,3.3,3.3v46.4c0.7-0.2,1.4-0.3,2.2-0.3V67
			c0-3-2.5-5.5-5.5-5.5H231.3c-3,0-5.5,2.5-5.5,5.5v46c0.8,0,1.5,0.1,2.2,0.3V67z"/>
	</g>
	<path opacity="0.25" fill="#9EA3A5" d="M340.9,174.5c0,1.2-1,2.2-2.2,2.2H231.3c-1.2,0-2.2-1-2.2-2.2v-46.8
		c-0.7,0.3-1.4,0.6-2.2,0.7v46.1c0,2.4,2,4.4,4.4,4.4h107.4c2.4,0,4.4-2,4.4-4.4v-46.1c-0.8-0.1-1.5-0.3-2.2-0.7V174.5z"/>
	<path opacity="0.25" fill="#9EA3A5" d="M229.1,67c0-1.2,1-2.2,2.2-2.2h107.4c1.2,0,2.2,1,2.2,2.2v46.8c0.7-0.3,1.4-0.6,2.2-0.7V67
		c0-2.4-2-4.4-4.4-4.4H231.3c-2.4,0-4.4,2-4.4,4.4v46.1c0.8,0.1,1.5,0.3,2.2,0.7V67z"/>
	<g>
		<path fill="#FD9838" d="M121.4,128.2c-0.8,0-1.5-0.7-1.5-1.5v-9.2l-1.6,1.7c-0.2,0.2-0.5,0.4-0.9,0.4c-0.7,0-1.3-0.6-1.3-1.3
			c0-0.3,0.1-0.7,0.4-0.9l3.4-3.4c0.3-0.3,0.8-0.5,1.3-0.5c1,0,1.8,0.8,1.8,1.8v11.6C122.9,127.5,122.2,128.2,121.4,128.2z"/>
	</g>
	<g opacity="0.25">
		<path fill="#9EA3A5" d="M564.5,226c0,7.3-5.9,13.2-13.2,13.2h-85.5c-7.3,0-13.2-5.9-13.2-13.2v-5.5h-2.2v5.5
			c0,8.5,6.9,15.3,15.3,15.3h85.5c8.5,0,15.3-6.9,15.3-15.3v-3.3h-2.2V226z"/>
		<path fill="#9EA3A5" d="M452.7,142.4c-0.7,0.1-1.5,0.2-2.2,0.2v74.6h2.2V142.4z"/>
		<path fill="#9EA3A5" d="M452.7,25.4h-2.2v73.5c0.7,0,1.5,0.1,2.2,0.2V25.4z"/>
		<rect x="564.5" y="25.4" fill="#9EA3A5" width="2.2" height="194"/>
		<path fill="#9EA3A5" d="M551.4,2.4h-85.5c-8.5,0-15.3,6.9-15.3,15.3v4.4h2.2v-4.4c0-7.3,5.9-13.2,13.2-13.2h85.5
			c7.3,0,13.2,5.9,13.2,13.2v4.4h2.2v-4.4C566.7,9.2,559.8,2.4,551.4,2.4z"/>
	</g>
	<g>
		<path fill="#FD9838" d="M453.7,128.2h-8.5c-0.8,0-1.5-0.6-1.5-1.5c0-0.5,0.2-1,0.7-1.3c5.5-4,7.2-5.6,7.2-7.3
			c0-1.3-1.2-1.9-2.4-1.9c-1.2,0-2.2,0.3-3,0.9c-0.3,0.2-0.6,0.3-0.9,0.3c-0.7,0-1.4-0.6-1.4-1.4c0-0.2,0.1-0.4,0.2-0.6
			c0.7-1.1,3.2-1.9,5-1.9c3.1,0,5.6,1.8,5.6,4.7c0,2.5-2.1,4.7-5.9,7.4h4.8c0.7,0,1.3,0.6,1.3,1.3
			C455.1,127.6,454.4,128.2,453.7,128.2z"/>
	</g>
	<g>
		<path fill="#FD9838" d="M449.4,101c-10.5,0-19.1,8.3-19.7,18.6h-78c-0.5-4.3-4.2-7.7-8.7-7.7c-4.8,0-8.8,3.9-8.8,8.8
			s3.9,8.8,8.8,8.8c4.5,0,8.2-3.4,8.7-7.7h78c0.6,10.4,9.2,18.6,19.7,18.6c10.9,0,19.7-8.9,19.7-19.7S460.3,101,449.4,101z
			 M343.1,127.3c-3.6,0-6.6-2.9-6.6-6.6s2.9-6.6,6.6-6.6s6.6,2.9,6.6,6.6S346.7,127.3,343.1,127.3z M449.4,138.3
			c-9.7,0-17.5-7.9-17.5-17.5s7.9-17.5,17.5-17.5s17.5,7.9,17.5,17.5S459.1,138.3,449.4,138.3z"/>
		<path fill="#FD9838" d="M226.9,112c-4.5,0-8.2,3.4-8.7,7.7h-78c-0.6-10.4-9.2-18.6-19.7-18.6c-10.9,0-19.7,8.9-19.7,19.7
			s8.9,19.7,19.7,19.7c10.5,0,19.1-8.3,19.7-18.6h78c0.5,4.3,4.2,7.7,8.7,7.7c4.8,0,8.8-3.9,8.8-8.8S231.7,112,226.9,112z
			 M120.6,138.3c-9.7,0-17.5-7.9-17.5-17.5s7.9-17.5,17.5-17.5s17.5,7.9,17.5,17.5S130.3,138.3,120.6,138.3z M226.9,127.3
			c-3.6,0-6.6-2.9-6.6-6.6s2.9-6.6,6.6-6.6c3.6,0,6.6,2.9,6.6,6.6S230.5,127.3,226.9,127.3z"/>
	</g>
	<g>
		<g>
			<g>
				<path fill="#50B8E7" d="M252.1,89h-4.4c-0.6,0-1.1-0.5-1.1-1.1v-4.4c0-0.6,0.5-1.1,1.1-1.1h4.4c0.6,0,1.1,0.5,1.1,1.1v4.4
					C253.2,88.5,252.7,89,252.1,89z"/>
			</g>
			<g>
				<path fill="#50B8E7" d="M252.1,159.1h-4.4c-0.6,0-1.1-0.5-1.1-1.1v-4.4c0-0.6,0.5-1.1,1.1-1.1h4.4c0.6,0,1.1,0.5,1.1,1.1v4.4
					C253.2,158.6,252.7,159.1,252.1,159.1z"/>
			</g>
			<g>
				<polygon fill="#FD9838" points="287.2,83.5 287.2,79.1 287.2,74.7 278.4,74.7 278.4,79.1 282.8,79.1 282.8,92.3 287.2,92.3 
					287.2,87.9 296,87.9 296,83.5 				"/>
				<polygon fill="#FD9838" points="309.1,118.6 317.9,118.6 317.9,114.2 309.1,114.2 304.7,114.2 300.3,114.2 300.3,118.6 
					304.7,118.6 304.7,127.3 309.1,127.3 				"/>
				<polygon fill="#FD9838" points="317.9,123 313.5,123 313.5,127.3 322.3,127.3 322.3,123 326.7,123 326.7,131.7 331,131.7 
					331,118.6 317.9,118.6 				"/>
				<polygon fill="#FD9838" points="322.3,101 309.1,101 309.1,105.4 304.7,105.4 304.7,109.8 313.5,109.8 313.5,105.4 317.9,105.4 
					317.9,109.8 322.3,109.8 322.3,114.2 331,114.2 331,109.8 326.7,109.8 326.7,105.4 322.3,105.4 				"/>
				<rect x="300.3" y="96.6" fill="#FD9838" width="4.4" height="8.8"/>
				<polygon fill="#FD9838" points="274,101 278.4,101 278.4,105.4 282.8,105.4 282.8,96.6 274,96.6 274,87.9 278.4,87.9 
					278.4,83.5 265.3,83.5 265.3,87.9 269.7,87.9 269.7,92.3 265.3,92.3 265.3,96.6 269.7,96.6 269.7,101 260.9,101 260.9,105.4 
					274,105.4 				"/>
				<rect x="239" y="101" fill="#FD9838" width="8.8" height="4.4"/>
				<rect x="247.7" y="105.4" fill="#FD9838" width="4.4" height="4.4"/>
				<rect x="326.7" y="162.4" fill="#FD9838" width="4.4" height="4.4"/>
				<rect x="274" y="162.4" fill="#FD9838" width="13.2" height="4.4"/>
				<rect x="265.3" y="162.4" fill="#FD9838" width="4.4" height="4.4"/>
				<rect x="265.3" y="140.5" fill="#FD9838" width="4.4" height="8.8"/>
				<polygon fill="#FD9838" points="269.7,153.6 265.3,153.6 265.3,158 269.7,158 269.7,162.4 274,162.4 274,149.3 269.7,149.3 				
					"/>
				<rect x="326.7" y="101" fill="#FD9838" width="4.4" height="4.4"/>
				<rect x="313.5" y="140.5" fill="#FD9838" width="4.4" height="4.4"/>
				<path fill="#FD9838" d="M304.7,131.7v-4.4h-4.4v8.8h4.4v4.4h-4.4v4.4H296v4.4h-4.4v4.4h-8.8v-4.4h4.4v-4.4h4.4v-4.4h4.4v-4.4
					h-8.8v4.4h-4.4v4.4H274v4.4h4.4v8.8h13.2v4.4h4.4v4.4h13.2v-4.4h4.4V158h-8.8v4.4h-4.4V158H296v-4.4h4.4v-4.4h4.4v4.4h17.5v4.4
					h-4.4v4.4h8.8V158h4.4v-4.4h-4.4v-13.2h4.4v-4.4h-4.4v-4.4H304.7z M322.3,149.3h-13.2v-13.2h13.2V149.3z"/>
				<rect x="260.9" y="123" fill="#FD9838" width="4.4" height="8.8"/>
				<rect x="265.3" y="118.6" fill="#FD9838" width="4.4" height="4.4"/>
				<rect x="265.3" y="131.7" fill="#FD9838" width="4.4" height="4.4"/>
				<rect x="274" y="136.1" fill="#FD9838" width="4.4" height="4.4"/>
				<polygon fill="#FD9838" points="256.5,136.1 256.5,131.7 252.1,131.7 252.1,136.1 252.1,140.5 265.3,140.5 265.3,136.1 				"/>
				<polygon fill="#FD9838" points="247.7,140.5 247.7,136.1 243.3,136.1 243.3,127.3 239,127.3 239,140.5 				"/>
				<polygon fill="#FD9838" points="243.3,114.2 239,114.2 239,123 243.3,123 243.3,118.6 247.7,118.6 247.7,109.8 243.3,109.8 				
					"/>
				<polygon fill="#FD9838" points="256.5,127.3 256.5,114.2 260.9,114.2 260.9,118.6 265.3,118.6 265.3,114.2 269.7,114.2 
					269.7,109.8 265.3,109.8 260.9,109.8 260.9,105.4 256.5,105.4 256.5,109.8 252.1,109.8 252.1,123 247.7,123 247.7,131.7 
					252.1,131.7 252.1,127.3 				"/>
				<polygon fill="#FD9838" points="300.3,83.5 304.7,83.5 304.7,74.7 291.6,74.7 291.6,79.1 300.3,79.1 				"/>
				<polygon fill="#FD9838" points="304.7,92.3 304.7,87.9 296,87.9 296,92.3 291.6,92.3 291.6,96.6 287.2,96.6 287.2,105.4 
					291.6,105.4 291.6,101 296,101 296,96.6 300.3,96.6 300.3,92.3 				"/>
				<rect x="265.3" y="74.7" fill="#FD9838" width="8.8" height="4.4"/>
				<path fill="#FD9838" d="M245.5,96.6h8.8c3.6,0,6.6-2.9,6.6-6.6v-8.8c0-3.6-2.9-6.6-6.6-6.6h-8.8c-3.6,0-6.6,2.9-6.6,6.6v8.8
					C239,93.7,241.9,96.6,245.5,96.6z M243.3,81.3c0-1.2,1-2.2,2.2-2.2h8.8c1.2,0,2.2,1,2.2,2.2v8.8c0,1.2-1,2.2-2.2,2.2h-8.8
					c-1.2,0-2.2-1-2.2-2.2V81.3z"/>
				<path fill="#FD9838" d="M254.3,144.9h-8.8c-3.6,0-6.6,2.9-6.6,6.6v8.8c0,3.6,2.9,6.6,6.6,6.6h8.8c3.6,0,6.6-2.9,6.6-6.6v-8.8
					C260.9,147.8,257.9,144.9,254.3,144.9z M256.5,160.2c0,1.2-1,2.2-2.2,2.2h-8.8c-1.2,0-2.2-1-2.2-2.2v-8.8c0-1.2,1-2.2,2.2-2.2
					h8.8c1.2,0,2.2,1,2.2,2.2V160.2z"/>
				<path fill="#FD9838" d="M324.5,74.7h-8.8c-3.6,0-6.6,2.9-6.6,6.6v8.8c0,3.6,2.9,6.6,6.6,6.6h8.8c3.6,0,6.6-2.9,6.6-6.6v-8.8
					C331,77.7,328.1,74.7,324.5,74.7z M326.7,90.1c0,1.2-1,2.2-2.2,2.2h-8.8c-1.2,0-2.2-1-2.2-2.2v-8.8c0-1.2,1-2.2,2.2-2.2h8.8
					c1.2,0,2.2,1,2.2,2.2V90.1z"/>
			</g>
			<g>
				<path fill="#50B8E7" d="M322.3,89h-4.4c-0.6,0-1.1-0.5-1.1-1.1v-4.4c0-0.6,0.5-1.1,1.1-1.1h4.4c0.6,0,1.1,0.5,1.1,1.1v4.4
					C323.4,88.5,322.9,89,322.3,89z"/>
			</g>
		</g>
	</g>
	<g>
		<g opacity="0.5">
			<g>
				<polygon fill="#50B8E7" points="291.6,123 289.4,120.8 287.2,123 296,131.7 296,131.7 296,123 293.8,120.8 				"/>
			</g>
		</g>
		<g opacity="0.25">
			<g>
				<polygon fill="#50B8E7" points="285,127.3 281.7,124 274,131.7 296,131.7 288.3,124 				"/>
			</g>
		</g>
		<path fill="#50B8E7" d="M296,108.7H274c-0.6,0-1.1,0.5-1.1,1.1v21.9c0,0.6,0.5,1.1,1.1,1.1H296c0.6,0,1.1-0.5,1.1-1.1v-21.9
			C297.1,109.2,296.6,108.7,296,108.7z M275.1,110.9h19.7v11l-3.3-3.3l-4.4,4.4l-2.2-2.2l-9.9,9.9V110.9z M276.7,130.6l8.3-8.3
			l8.3,8.3H276.7z M294.9,129.1l-6.1-6.1l2.8-2.8l3.3,3.3V129.1z"/>
		<g opacity="0.25">
			<g>
				<path fill="#50B8E7" d="M277.3,116.4L277.3,116.4c0,1.8,1.5,3.3,3.3,3.3l0,0c1.8,0,3.3-1.5,3.3-3.3v0c0-1.8-1.5-3.3-3.3-3.3l0,0
					C278.8,113.1,277.3,114.6,277.3,116.4z"/>
			</g>
		</g>
		<g opacity="0.5">
			<g>
				<path fill="#51B8E7" d="M280.6,115.3c0.6,0,1.1,0.5,1.1,1.1s-0.5,1.1-1.1,1.1s-1.1-0.5-1.1-1.1S280,115.3,280.6,115.3
					 M280.6,114.2c-1.2,0-2.2,1-2.2,2.2s1,2.2,2.2,2.2s2.2-1,2.2-2.2S281.8,114.2,280.6,114.2L280.6,114.2z"/>
			</g>
		</g>
	</g>
	<g opacity="5.000000e-02">
		<g>
			<path fill="#9EA3A5" d="M98.7,120.8c0-8.6,4.9-15.9,12.1-19.6V56.1H12.1v85.5h98.7v-1.3C103.6,136.7,98.7,129.3,98.7,120.8z"/>
		</g>
	</g>
	<g>
		<g>
			<g>
				<g opacity="0.5">
					<g>
						<g>
							<path fill="#9EA3A5" d="M111.3,56.1H11.5c-0.3,0-0.5-0.2-0.5-0.5c0-0.3,0.2-0.5,0.5-0.5h99.8c0.3,0,0.5,0.2,0.5,0.5
								C111.8,55.8,111.6,56.1,111.3,56.1z"/>
						</g>
					</g>
				</g>
				<g>
					<g>
						<g>
							<rect x="12.1" y="53.9" fill="#50B8E7" width="66.9" height="1.1"/>
						</g>
					</g>
				</g>
				<g>
					<g>
						<g>
							<path fill="#50B8E7" d="M109.1,78c-0.3,0-0.5-0.2-0.5-0.5V57.7c0-0.3,0.2-0.5,0.5-0.5s0.5,0.2,0.5,0.5v19.7
								C109.6,77.8,109.4,78,109.1,78z"/>
						</g>
					</g>
				</g>
				<g opacity="0.5">
					<g>
						<g>
							<path fill="#9EA3A5" d="M111.3,178.9H12.1c-0.3,0-0.5-0.2-0.5-0.5c0-0.3,0.2-0.5,0.5-0.5h99.2c0.3,0,0.5,0.2,0.5,0.5
								C111.8,178.6,111.6,178.9,111.3,178.9z"/>
						</g>
					</g>
				</g>
				<g opacity="0.25">
					<g>
						<path fill="#9EA3A5" d="M112.9,203H9.9V34.2h103v66.1c0.4-0.1,0.7-0.3,1.1-0.4V34.2v-1.1h-1.1H9.9H8.8v1.1V203v1.1h1.1h103
							h1.1V203v-61.3c-0.4-0.1-0.7-0.3-1.1-0.4V203z"/>
					</g>
				</g>
				<g>
					<g>
						<g>
							<path fill="#9EA3A5" d="M61.4,212.8c5.4,0,9.9,4.4,9.9,9.9s-4.4,9.9-9.9,9.9s-9.9-4.4-9.9-9.9S55.9,212.8,61.4,212.8
								 M61.4,211.7c-6,0-11,4.9-11,11s4.9,11,11,11s11-4.9,11-11S67.4,211.7,61.4,211.7L61.4,211.7z"/>
						</g>
					</g>
				</g>
				<g opacity="0.25">
					<g>
						<g>
							<g>
								<path fill="#9EA3A5" d="M51.5,222.7c0,0,0-0.1,0-0.4c0-0.2-0.1-0.6-0.1-1c0-0.2,0-0.5,0-0.7c0-0.3,0.1-0.5,0.1-0.9
									c0.1-0.6,0.3-1.3,0.6-2c0.3-0.7,0.7-1.5,1.3-2.2c0.5-0.7,1.2-1.4,2.1-2c0.8-0.6,1.7-1.1,2.7-1.4c1-0.3,2-0.5,3.2-0.5
									c0.9,0,2.1,0.2,3.1,0.5c1,0.3,1.9,0.8,2.7,1.4c0.8,0.6,1.5,1.2,2.1,2c0.6,0.7,1,1.5,1.3,2.2c0.3,0.7,0.5,1.4,0.6,2
									c0,0.3,0.1,0.6,0.1,0.9c0,0.3,0,0.5,0,0.7c0,0.4-0.1,0.8-0.1,1c0,0.2,0,0.3,0,0.3s0-0.1-0.1-0.3c-0.1-0.2-0.1-0.6-0.2-1
									c-0.1-0.4-0.3-0.9-0.5-1.4c-0.2-0.5-0.5-1.1-0.9-1.7c-0.4-0.6-0.8-1.1-1.4-1.7c-0.5-0.5-1.2-1-1.9-1.4
									c-0.7-0.4-1.5-0.7-2.3-1c-0.9-0.2-1.6-0.3-2.6-0.3c-0.8,0-1.7,0.1-2.5,0.3c-0.8,0.3-1.6,0.5-2.3,1c-0.7,0.4-1.4,0.9-1.9,1.4
									c-0.6,0.5-1,1.1-1.4,1.7c-0.4,0.6-0.7,1.1-0.9,1.7c-0.2,0.5-0.4,1-0.5,1.4c-0.1,0.4-0.2,0.7-0.2,1
									C51.5,222.6,51.5,222.7,51.5,222.7z"/>
							</g>
						</g>
					</g>
				</g>
				<g opacity="0.25">
					<g>
						<g>
							<g>
								<path fill="#9EA3A5" d="M72.1,223c0,0,0,0.1,0,0.4c0,0.2,0.1,0.6,0.1,1.1c0,0.2,0,0.5,0,0.8c0,0.3-0.1,0.6-0.1,0.9
									c-0.1,0.7-0.3,1.4-0.7,2.2c-0.3,0.8-0.8,1.6-1.4,2.3c-0.6,0.8-1.4,1.5-2.2,2.1c-0.9,0.6-1.9,1.1-3,1.5
									c-1.1,0.3-2.2,0.5-3.4,0.5c-0.6,0-1,0-1.7-0.2c-0.6-0.1-1.2-0.2-1.7-0.4c-1.1-0.3-2.1-0.9-3-1.5c-0.9-0.6-1.6-1.3-2.2-2.1
									c-0.6-0.7-1.1-1.6-1.4-2.3c-0.3-0.8-0.5-1.5-0.7-2.2c0-0.3-0.1-0.6-0.1-0.9c0-0.3,0-0.5,0-0.8c0-0.5,0.1-0.8,0.1-1.1
									c0-0.2,0-0.4,0-0.4s0,0.1,0.1,0.4c0.1,0.2,0.1,0.6,0.2,1c0.1,0.2,0.1,0.5,0.2,0.7c0.1,0.3,0.2,0.5,0.3,0.8
									c0.2,0.6,0.6,1.2,1,1.8c0.4,0.6,0.9,1.2,1.5,1.8c0.6,0.6,1.3,1.1,2.1,1.6c0.8,0.5,1.6,0.8,2.5,1.1c0.5,0.1,0.9,0.2,1.3,0.3
									c0.4,0.1,1,0.1,1.4,0.1c0.9,0,1.9-0.1,2.8-0.4c0.9-0.3,1.8-0.6,2.5-1.1c0.8-0.5,1.5-1,2.1-1.6c0.6-0.6,1.1-1.2,1.5-1.8
									c0.4-0.6,0.7-1.2,1-1.8c0.1-0.3,0.2-0.6,0.3-0.8c0.1-0.3,0.1-0.5,0.2-0.7c0.1-0.4,0.2-0.8,0.2-1C72,223.1,72.1,223,72.1,223
									z"/>
							</g>
						</g>
					</g>
				</g>
				<g>
					<g>
						<g>
							<circle fill="#9EA3A5" cx="61.4" cy="13.3" r="1.1"/>
						</g>
					</g>
				</g>
				<g opacity="0.25">
					<g>
						<g>
							<g>
								<path fill="#9EA3A5" d="M61.4,11.1c1.2,0,2.2,1,2.2,2.2s-1,2.2-2.2,2.2s-2.2-1-2.2-2.2S60.2,11.1,61.4,11.1 M61.4,10
									c-1.8,0-3.3,1.5-3.3,3.3s1.5,3.3,3.3,3.3c1.8,0,3.3-1.5,3.3-3.3S63.2,10,61.4,10L61.4,10z"/>
							</g>
						</g>
					</g>
				</g>
				<g opacity="0.75">
					<g>
						<g>
							<g>
								<path fill="#9EA3A5" d="M61.4,12.2c0.6,0,1.1,0.5,1.1,1.1c0,0.6-0.5,1.1-1.1,1.1c-0.6,0-1.1-0.5-1.1-1.1
									C60.3,12.7,60.8,12.2,61.4,12.2 M61.4,11.1c-1.2,0-2.2,1-2.2,2.2s1,2.2,2.2,2.2s2.2-1,2.2-2.2S62.6,11.1,61.4,11.1
									L61.4,11.1z"/>
							</g>
						</g>
					</g>
				</g>
				<g opacity="0.25">
					<g>
						<g>
							<g>
								<path fill="#9EA3A5" d="M74.5,23.7L74.5,23.7c0,1.5-1.2,2.7-2.7,2.7H51c-1.5,0-2.7-1.2-2.7-2.7v0c0-1.5,1.2-2.7,2.7-2.7
									h20.8C73.3,21,74.5,22.2,74.5,23.7z"/>
							</g>
						</g>
					</g>
				</g>
				<g opacity="0.5">
					<g>
						<g>
							<g>
								<polygon fill="#9EA3A5" points="73.4,22.1 74.5,23.2 48.2,23.2 49.3,22.1 								"/>
							</g>
						</g>
					</g>
				</g>
				<g opacity="0.25">
					<g>
						<g>
							<g>
								<polygon fill="#9EA3A5" points="73.4,24.3 72.3,25.4 50.4,25.4 49.3,24.3 								"/>
							</g>
						</g>
					</g>
				</g>
				<g>
					<g>
						<g>
							<path fill="#9EA3A5" d="M71.8,22.1c0.9,0,1.6,0.7,1.6,1.6c0,0.9-0.7,1.6-1.6,1.6H51c-0.9,0-1.6-0.7-1.6-1.6
								c0-0.9,0.7-1.6,1.6-1.6H71.8 M71.8,21H51c-1.5,0-2.7,1.2-2.7,2.7c0,1.5,1.2,2.7,2.7,2.7h20.8c1.5,0,2.7-1.2,2.7-2.7
								C74.5,22.2,73.3,21,71.8,21L71.8,21z"/>
						</g>
					</g>
				</g>
			</g>
			<g opacity="0.5">
				<g>
					<g>
						<g>
							<path fill="#9EA3A5" d="M105.8,41.3V49H18.1v-7.7H105.8 M107.4,39.6h-91v11h91V39.6L107.4,39.6z"/>
						</g>
					</g>
				</g>
			</g>
			<g>
				<g>
					<g>
						<rect x="38.4" y="42.9" fill="#FD9838" width="43.8" height="3.3"/>
					</g>
				</g>
			</g>
			<g opacity="0.75">
				<g>
					<g>
						<g>
							<path fill="#9EA3A5" d="M99.8,45.1L99.8,45.1c0,1.2,1,2.2,2.2,2.2l0,0c1.2,0,2.2-1,2.2-2.2v0c0-1.2-1-2.2-2.2-2.2l0,0
								C100.7,42.9,99.8,43.9,99.8,45.1z"/>
						</g>
					</g>
				</g>
			</g>
		</g>
		<g opacity="0.75">
			<g>
				<g>
					<g>
						<polygon fill="#9EA3A5" points="59.2,188.7 55.9,185.4 55.9,185.4 52.6,188.7 						"/>
					</g>
				</g>
			</g>
		</g>
		<g opacity="0.75">
			<g>
				<g>
					<g>
						<polygon fill="#9EA3A5" points="34,193.1 39.5,189.8 39.5,189.8 34,186.5 						"/>
					</g>
				</g>
			</g>
		</g>
		<g opacity="0.75">
			<g>
				<g>
					<g>
						<polygon fill="#9EA3A5" points="24.1,186.5 18.6,189.8 18.6,189.8 24.1,193.1 						"/>
					</g>
				</g>
			</g>
		</g>
		<g opacity="0.75">
			<g>
				<g>
					<g>
						<path fill="#9EA3A5" d="M100.8,188.7v4.4h-4.4v-4.4H100.8 M101.9,187.6h-6.6v6.6h6.6V187.6L101.9,187.6z"/>
					</g>
				</g>
			</g>
		</g>
		<g opacity="0.75">
			<g>
				<g>
					<g>
						<polygon fill="#9EA3A5" points="61.4,194.2 50.4,194.2 50.4,189.8 51.5,189.8 51.5,193.1 60.3,193.1 60.3,189.8 61.4,189.8 
													"/>
					</g>
				</g>
			</g>
		</g>
		<g opacity="0.75">
			<g>
				<g>
					<g>
						<path fill="#9EA3A5" d="M83.3,186.5v6.6h-9.9v-6.6H83.3 M84.4,185.4H72.3v8.8h12.1V185.4L84.4,185.4z"/>
					</g>
				</g>
			</g>
		</g>
		<g opacity="0.75">
			<g>
				<g>
					<g>
						<rect x="77.8" y="186.5" fill="#9EA3A5" width="1.1" height="6.6"/>
					</g>
				</g>
			</g>
		</g>
		<g opacity="0.75">
			<g>
				<g>
					<g>
						<polygon fill="#9EA3A5" points="104.1,185.4 97.6,185.4 97.6,186.5 103,186.5 103,192 104.1,192 						"/>
					</g>
				</g>
			</g>
		</g>
		<g>
			<g opacity="0.75">
				<g>
					<g>
						<g>
							<rect x="18.6" y="62.7" fill="#50B8E7" width="12.1" height="2.2"/>
						</g>
					</g>
				</g>
			</g>
			<g opacity="0.75">
				<g>
					<g>
						<g>
							<rect x="18.6" y="67" fill="#50B8E7" width="12.1" height="2.2"/>
						</g>
					</g>
				</g>
			</g>
			<g opacity="0.75">
				<g>
					<g>
						<g>
							<rect x="18.6" y="71.4" fill="#50B8E7" width="12.1" height="2.2"/>
						</g>
					</g>
				</g>
			</g>
			<g opacity="0.5">
				<g>
					<g>
						<g>
							<rect x="30.7" y="152.5" fill="#50B8E7" width="61.4" height="6.6"/>
						</g>
					</g>
				</g>
			</g>
			<g opacity="0.5">
				<g>
					<g>
						<g>
							<rect x="31" y="119.7" fill="#FD9838" width="61.4" height="6.6"/>
						</g>
					</g>
				</g>
			</g>
			<g opacity="0.75">
				<g>
					<g>
						<g>
							<rect x="19.7" y="163.5" fill="#50B8E7" width="83.3" height="3.3"/>
						</g>
					</g>
				</g>
			</g>
			<g opacity="0.75">
				<g>
					<g>
						<g>
							<rect x="19.7" y="170.1" fill="#50B8E7" width="83.3" height="3.3"/>
						</g>
					</g>
				</g>
			</g>
		</g>
	</g>
	<g opacity="0.25">
		<g>
			<rect x="3.3" y="25.4" fill="#9EA3A5" width="2.2" height="191.8"/>
		</g>
	</g>
	<g opacity="0.25">
		<g>
			<path fill="#9EA3A5" d="M5.5,17.7c0-7.3,5.9-13.2,13.2-13.2h85.5c7.3,0,13.2,5.9,13.2,13.2v4.4h2.2v-4.4
				c0-8.5-6.9-15.3-15.3-15.3H18.6c-8.5,0-15.3,6.9-15.3,15.3v4.4h2.2V17.7z"/>
		</g>
	</g>
	<g opacity="0.25">
		<g>
			<path fill="#9EA3A5" d="M117.3,226c0,7.3-5.9,13.2-13.2,13.2H18.6c-7.3,0-13.2-5.9-13.2-13.2v-5.5H3.3v5.5
				c0,8.5,6.9,15.3,15.3,15.3h85.5c8.5,0,15.3-6.9,15.3-15.3v-3.3h-2.2V226z"/>
		</g>
	</g>
	<g opacity="0.25">
		<g>
			<path fill="#9EA3A5" d="M117.3,219.4h2.2v-76.8c-0.7,0-1.5-0.1-2.2-0.2V219.4z"/>
		</g>
	</g>
	<g opacity="0.25">
		<g>
			<path fill="#9EA3A5" d="M117.3,99.1c0.7-0.1,1.5-0.2,2.2-0.2V25.4h-2.2V99.1z"/>
		</g>
	</g>
	<g>
		<g>
			<g>
				<g>
					<g>
						<path fill="#FFFFFF" d="M68,110.9H54.8c-3.6,0-6.6-2.9-6.6-6.6V91.2c0-3.6,2.9-6.6,6.6-6.6H68c3.6,0,6.6,2.9,6.6,6.6v13.2
							C74.5,107.9,71.6,110.9,68,110.9z"/>
					</g>
				</g>
			</g>
			<g>
				<g>
					<g>
						<path fill="#FD9838" d="M68,113.1H54.8c-4.8,0-8.8-3.9-8.8-8.8V91.2c0-4.8,3.9-8.8,8.8-8.8H68c4.8,0,8.8,3.9,8.8,8.8v13.2
							C76.7,109.2,72.8,113.1,68,113.1z M54.8,86.8c-2.4,0-4.4,2-4.4,4.4v13.2c0,2.4,2,4.4,4.4,4.4H68c2.4,0,4.4-2,4.4-4.4V91.2
							c0-2.4-2-4.4-4.4-4.4H54.8z"/>
					</g>
				</g>
			</g>
		</g>
		<g>
			<g>
				<g>
					<path fill="#FD9838" d="M58.1,96.6h-4.4v-2.2c0-1.2,1-2.2,2.2-2.2h0c1.2,0,2.2,1,2.2,2.2V96.6z"/>
				</g>
			</g>
		</g>
		<g>
			<g>
				<g>
					<path fill="#FD9838" d="M57,99.9h8.8v1.1c0,2.4-2,4.4-4.4,4.4h0c-2.4,0-4.4-2-4.4-4.4V99.9z"/>
				</g>
			</g>
		</g>
		<g>
			<g>
				<g>
					<path fill="#FD9838" d="M69.1,96.6h-4.4v-2.2c0-1.2,1-2.2,2.2-2.2h0c1.2,0,2.2,1,2.2,2.2V96.6z"/>
				</g>
			</g>
		</g>
		<g opacity="0.5">
			<g>
				<g>
					<path fill="#FD9838" d="M65.8,108.7h7.7V86.8h-7.7l0,0c2.4,0,4.4,2,4.4,4.4v13.2C70.2,106.7,68.2,108.7,65.8,108.7L65.8,108.7z
						"/>
				</g>
			</g>
		</g>
	</g>
	<g>
		<g>
			<g>
				<path fill="#9EA3A5" d="M110.7,200.8H12.1V36.4h98.7v64.8c0.7-0.4,1.4-0.7,2.2-1V34.2H9.9V203h103v-61.7c-0.8-0.3-1.5-0.6-2.2-1
					V200.8z"/>
			</g>
		</g>
		<g>
			<g>
				<path fill="#9EA3A5" d="M119.5,142.6V226c0,8.5-6.9,15.3-15.3,15.3H18.6c-8.5,0-15.3-6.9-15.3-15.3V17.7
					c0-8.5,6.9-15.3,15.3-15.3h85.5c8.5,0,15.3,6.9,15.3,15.3v81.2c0.4,0,0.7-0.1,1.1-0.1c0.4,0,0.7,0,1.1,0.1V17.7
					c0-9.7-7.9-17.5-17.5-17.5H18.6C9,0.2,1.1,8.1,1.1,17.7V226c0,9.7,7.9,17.5,17.5,17.5h85.5c9.7,0,17.5-7.9,17.5-17.5v-83.4
					c-0.4,0-0.7,0.1-1.1,0.1C120.2,142.7,119.8,142.6,119.5,142.6z"/>
			</g>
		</g>
	</g>
</g>
</svg>
