<?xml version="1.0" encoding="utf-8"?>
<!-- Generator: Adobe Illustrator 18.1.1, SVG Export Plug-In . SVG Version: 6.00 Build 0)  -->
<!DOCTYPE svg PUBLIC "-//W3C//DTD SVG 1.1//EN" "http://www.w3.org/Graphics/SVG/1.1/DTD/svg11.dtd">
<svg version="1.1" id="Ebene_1" xmlns="http://www.w3.org/2000/svg" xmlns:xlink="http://www.w3.org/1999/xlink" x="0px" y="0px"
	 width="570px" height="244px" viewBox="0 0 570 244" enable-background="new 0 0 570 244" xml:space="preserve">
<g>
	<g>
		<g>
			<g opacity="0.25">
				<rect x="343.1" y="14.6" fill="#9EA3A5" width="4.4" height="25.2"/>
			</g>
			<g opacity="0.25">
				<path fill="#9EA3A5" d="M221.4,103.4h-20.8c-3,0-5.5-2.5-5.5-5.5V73.8c0-0.2,0.1-0.5,0.2-0.7l3.3-4.4c0.4-0.5,1-0.6,1.5-0.2
					c0.5,0.4,0.6,1.1,0.2,1.5l-3.1,4.1v23.8c0,1.8,1.5,3.3,3.3,3.3h20.8c0.6,0,1.1,0.5,1.1,1.1C222.5,102.9,222,103.4,221.4,103.4z"
					/>
			</g>
			<g opacity="0.25">
				<path fill="#9EA3A5" d="M369.4,103.4h-20.8v-2.2h20.8c1.8,0,3.3-1.5,3.3-3.3V74.1l-3.1-4.1l1.8-1.3l3.3,4.4
					c0.1,0.2,0.2,0.4,0.2,0.7v24.1C374.9,100.9,372.4,103.4,369.4,103.4z"/>
			</g>
			<polyline fill="#FFFFFF" points="231.3,39.8 231.3,1.4 338.7,1.4 338.7,39.8 			"/>
			<g opacity="0.5">
				<rect x="338.7" y="17.9" fill="#9EA3A5" width="4.4" height="21.9"/>
			</g>
			<g opacity="0.5">
				<rect x="226.9" y="17.9" fill="#9EA3A5" width="4.4" height="21.9"/>
			</g>
			<g opacity="0.5">
				<rect x="222.5" y="36.5" fill="#9EA3A5" width="125" height="3.3"/>
			</g>
			<g opacity="0.5">
				<g>
					<path fill="#9EA3A5" d="M348.6,91.3H221.4v0c0-3.6,2.9-6.6,6.6-6.6h114C345.6,84.7,348.6,87.7,348.6,91.3L348.6,91.3z"/>
				</g>
			</g>
			<g opacity="0.5">
				<rect x="339.8" y="85.3" fill="#9EA3A5" width="4.4" height="17.5"/>
			</g>
			<g opacity="0.25">
				<polygon fill="#9EA3A5" points="225.3,101.7 222,103.9 222,88.6 225.3,85.3 				"/>
			</g>
			<g opacity="0.25">
				<polygon fill="#9EA3A5" points="344.2,101.7 344.2,85.3 348.6,88.6 348.6,103.9 				"/>
			</g>
			<g opacity="0.5">
				<rect x="225.8" y="85.3" fill="#9EA3A5" width="4.4" height="17.5"/>
			</g>
			<g opacity="0.25">
				<rect x="222.5" y="14.6" fill="#9EA3A5" width="4.4" height="25.2"/>
			</g>
		</g>
		<g opacity="0.25">
			<rect x="194" y="67.2" fill="#9EA3A5" width="182" height="2.2"/>
		</g>
		<g opacity="0.5">
			<rect x="195.1" y="70.5" fill="#9EA3A5" width="178.7" height="2.2"/>
		</g>
		<g opacity="0.25">
			<g>
				<path fill="#9EA3A5" d="M203.9,59.5c1.2,0,2.2,1,2.2,2.2c0,1.2-1,2.2-2.2,2.2c-1.2,0-2.2-1-2.2-2.2
					C201.7,60.5,202.7,59.5,203.9,59.5 M203.9,57.3c-2.4,0-4.4,2-4.4,4.4s2,4.4,4.4,4.4s4.4-2,4.4-4.4S206.3,57.3,203.9,57.3
					L203.9,57.3z"/>
			</g>
		</g>
		<g opacity="0.25">
			<g>
				<path fill="#9EA3A5" d="M214.8,59.5c1.2,0,2.2,1,2.2,2.2c0,1.2-1,2.2-2.2,2.2c-1.2,0-2.2-1-2.2-2.2
					C212.7,60.5,213.6,59.5,214.8,59.5 M214.8,57.3c-2.4,0-4.4,2-4.4,4.4s2,4.4,4.4,4.4c2.4,0,4.4-2,4.4-4.4S217.3,57.3,214.8,57.3
					L214.8,57.3z"/>
			</g>
		</g>
		<g>
			<path fill="#9EA3A5" d="M203.9,59.5c1.2,0,2.2,1,2.2,2.2c0,1.2-1,2.2-2.2,2.2c-1.2,0-2.2-1-2.2-2.2
				C201.7,60.5,202.7,59.5,203.9,59.5 M203.9,58.4c-1.8,0-3.3,1.5-3.3,3.3c0,1.8,1.5,3.3,3.3,3.3s3.3-1.5,3.3-3.3
				C207.2,59.9,205.7,58.4,203.9,58.4L203.9,58.4z"/>
		</g>
		<g>
			<path fill="#9EA3A5" d="M214.8,59.5c1.2,0,2.2,1,2.2,2.2c0,1.2-1,2.2-2.2,2.2c-1.2,0-2.2-1-2.2-2.2
				C212.7,60.5,213.6,59.5,214.8,59.5 M214.8,58.4c-1.8,0-3.3,1.5-3.3,3.3c0,1.8,1.5,3.3,3.3,3.3s3.3-1.5,3.3-3.3
				C218.1,59.9,216.7,58.4,214.8,58.4L214.8,58.4z"/>
		</g>
		<g>
			<g>
				<rect x="366.1" y="103.4" fill="#9EA3A5" width="21.9" height="2.2"/>
			</g>
			<g opacity="0.25">
				<g>
					<g>
						<path fill="#9EA3A5" d="M229.1,109.9h-34c-1.2,0-2.2-1-2.2-2.2l0,0c0-1.2,1-2.2,2.2-2.2h24.5l5.5-3.3h4V109.9z"/>
					</g>
				</g>
			</g>
			<g opacity="0.25">
				<g>
					<g>
						<path fill="#9EA3A5" d="M374.9,109.9h-34v-7.7h4.4l6.6,3.3h23c1.2,0,2.2,1,2.2,2.2l0,0C377.1,109,376.1,109.9,374.9,109.9z"/>
					</g>
				</g>
			</g>
			<g>
				<rect x="182" y="103.4" fill="#9EA3A5" width="21.9" height="2.2"/>
			</g>
			<g opacity="0.5">
				<rect x="509.7" y="180.1" fill="#9EA3A5" width="8.8" height="2.2"/>
			</g>
			<g opacity="0.5">
				<rect x="540.4" y="180.1" fill="#9EA3A5" width="8.8" height="2.2"/>
			</g>
			<g opacity="0.5">
				<rect x="525.1" y="180.1" fill="#9EA3A5" width="8.8" height="2.2"/>
			</g>
			<path fill="#9EA3A5" d="M542.6,221.8v-6.6h7.7c0.6,0,1.1-0.5,1.1-1.1v-28.5c0-0.6-0.5-1.1-1.1-1.1h-6.1l1.3-3.3h3.6V179h-8.8v2.2
				h2.8l-1.3,3.3h-11.3v-3.3h3.3V179h-8.8v2.2h3.3v3.3H517l-1.3-3.3h2.8V179h-8.8v2.2h3.6l1.3,3.3h-6.1c-0.6,0-1.1,0.5-1.1,1.1v28.5
				c0,0.6,0.5,1.1,1.1,1.1h7.7v6.6h-9.9v2.2h46v-2.2H542.6z M509.7,186.7h39.5V213h-31.8h-7.7V186.7z M520.7,215.2h17.5v6.6h-17.5
				V215.2z"/>
			<g>
				<g>
					<path fill="#FD9838" d="M525.1,191.1h-4.4v4.4h4.4V191.1z"/>
				</g>
				<g>
					<path fill="#FD9838" d="M525.1,204.2h-4.4v4.4h4.4V204.2z"/>
				</g>
				<g>
					<path fill="#FD9838" d="M538.2,191.1h-4.4v4.4h4.4V191.1z"/>
				</g>
				<g>
					<polygon fill="#FD9838" points="531.6,204.2 531.6,199.8 529.4,199.8 529.4,202 527.2,202 527.2,204.2 529.4,204.2 
						529.4,204.2 					"/>
				</g>
				<g>
					<rect x="527.2" y="193.2" fill="#FD9838" width="4.4" height="2.2"/>
				</g>
				<g>
					<rect x="520.7" y="197.6" fill="#FD9838" width="2.2" height="2.2"/>
				</g>
				<g>
					<polygon fill="#FD9838" points="529.4,204.2 529.4,206.4 531.6,206.4 531.6,208.6 533.8,208.6 533.8,204.2 					"/>
				</g>
				<g>
					<rect x="522.9" y="199.8" fill="#FD9838" width="4.4" height="2.2"/>
				</g>
				<g>
					<rect x="525.1" y="197.6" fill="#FD9838" width="2.2" height="2.2"/>
				</g>
				<g>
					<rect x="527.3" y="195.4" fill="#FD9838" width="2.2" height="2.2"/>
				</g>
				<g>
					<rect x="527.3" y="206.4" fill="#FD9838" width="2.2" height="2.2"/>
				</g>
				<g>
					<rect x="533.8" y="199.8" fill="#FD9838" width="4.4" height="2.2"/>
				</g>
				<g>
					<rect x="531.6" y="197.6" fill="#FD9838" width="2.2" height="2.2"/>
				</g>
				<g>
					<rect x="533.8" y="197.6" fill="#FD9838" width="2.2" height="2.2"/>
				</g>
				<g>
					<rect x="527.3" y="191.1" fill="#FD9838" width="2.2" height="2.2"/>
				</g>
				<g>
					<rect x="536" y="204.2" fill="#FD9838" width="2.2" height="4.4"/>
				</g>
				<g>
					<rect x="533.8" y="202" fill="#FD9838" width="2.2" height="2.2"/>
				</g>
			</g>
			<g>
				<path fill="#FFFFFF" d="M424.2,184.5l3.3,10.7l8.8-3.3v29.9h28.5v-29.6l8.8,3.3l3.3-11l-9.9-4.4h-9.9l-1.7,1.4
					c-2.8,2.4-7,2.4-9.8,0l-1.7-1.4h-9.9L424.2,184.5z"/>
				<path fill="#9EA3A5" d="M464.8,222.8h-28.5c-0.6,0-1.1-0.5-1.1-1.1v-28.3l-7.3,2.7c-0.3,0.1-0.6,0.1-0.9,0
					c-0.3-0.1-0.5-0.4-0.6-0.7l-3.3-10.7c-0.2-0.5,0.1-1.1,0.6-1.3l9.9-4.4c0.1-0.1,0.3-0.1,0.4-0.1h9.9c0.3,0,0.5,0.1,0.7,0.3
					l1.7,1.4c2.4,2,6.1,2,8.4,0l1.7-1.4c0.2-0.2,0.4-0.3,0.7-0.3h9.9c0.2,0,0.3,0,0.4,0.1l9.9,4.4c0.5,0.2,0.8,0.8,0.6,1.3l-3.3,11
					c-0.1,0.3-0.3,0.5-0.6,0.7c-0.3,0.1-0.6,0.1-0.9,0l-7.3-2.7v28C465.9,222.4,465.4,222.8,464.8,222.8z M437.4,220.7h26.3v-28.5
					c0-0.4,0.2-0.7,0.5-0.9c0.3-0.2,0.7-0.3,1-0.1l7.7,2.9l2.7-8.9l-8.8-3.9h-9.2l-1.4,1.1c-1.6,1.3-3.6,2-5.6,2s-4-0.7-5.6-2
					l-1.4-1.1h-9.2l-8.8,3.9l2.7,8.6l7.7-2.9c0.3-0.1,0.7-0.1,1,0.1c0.3,0.2,0.5,0.5,0.5,0.9V220.7z"/>
			</g>
			<g opacity="0.25">
				<g>
					<path fill="#9EA3A5" d="M466.5,182.3l7.7,3.4l-2.1,6.9l-6.6-2.5c-0.2-0.1-0.5-0.1-0.8-0.1c-0.4,0-0.9,0.1-1.2,0.4
						c-0.6,0.4-0.9,1.1-0.9,1.8v27.4h-24.1v-27.7c0-0.7-0.4-1.4-0.9-1.8c-0.4-0.3-0.8-0.4-1.2-0.4c-0.3,0-0.5,0-0.8,0.1l-6.6,2.5
						l-2-6.6l7.7-3.4h8.6l1.1,0.9c1.8,1.5,4,2.3,6.3,2.3c2.3,0,4.5-0.8,6.3-2.3l1.1-0.9H466.5 M467,180.1h-9.9l-1.7,1.4
						c-1.4,1.2-3.2,1.8-4.9,1.8s-3.5-0.6-4.9-1.8l-1.7-1.4h-9.9l-9.9,4.4l3.3,10.7l8.8-3.3v29.9h28.5v-29.6l8.8,3.3l3.3-11
						L467,180.1L467,180.1z"/>
				</g>
			</g>
			<g opacity="0.25">
				
					<rect x="464.8" y="180" transform="matrix(0.9839 0.1788 -0.1788 0.9839 40.7862 -80.2972)" fill="#9EA3A5" width="2.2" height="12.3"/>
			</g>
			<g opacity="0.25">
				
					<rect x="429" y="185" transform="matrix(0.1789 0.9839 -0.9839 0.1789 540.4498 -275.3238)" fill="#9EA3A5" width="12.3" height="2.2"/>
			</g>
			<g>
				<g>
					<path fill="#FD9838" d="M446.1,191.1h-4.4v4.4h4.4V191.1z"/>
				</g>
				<g>
					<path fill="#FD9838" d="M446.1,204.2h-4.4v4.4h4.4V204.2z"/>
				</g>
				<g>
					<path fill="#FD9838" d="M459.3,191.1h-4.4v4.4h4.4V191.1z"/>
				</g>
				<g>
					<polygon fill="#FD9838" points="452.7,204.2 452.7,199.8 450.5,199.8 450.5,202 448.3,202 448.3,204.2 450.5,204.2 
						450.5,204.2 					"/>
				</g>
				<g>
					<rect x="448.3" y="193.2" fill="#FD9838" width="4.4" height="2.2"/>
				</g>
				<g>
					<rect x="441.7" y="197.6" fill="#FD9838" width="2.2" height="2.2"/>
				</g>
				<g>
					<polygon fill="#FD9838" points="450.5,204.2 450.5,206.4 452.7,206.4 452.7,208.6 454.9,208.6 454.9,204.2 					"/>
				</g>
				<g>
					<rect x="443.9" y="199.8" fill="#FD9838" width="4.4" height="2.2"/>
				</g>
				<g>
					<rect x="446.1" y="197.6" fill="#FD9838" width="2.2" height="2.2"/>
				</g>
				<g>
					<rect x="448.3" y="195.4" fill="#FD9838" width="2.2" height="2.2"/>
				</g>
				<g>
					<rect x="448.3" y="206.4" fill="#FD9838" width="2.2" height="2.2"/>
				</g>
				<g>
					<rect x="454.9" y="199.8" fill="#FD9838" width="4.4" height="2.2"/>
				</g>
				<g>
					<rect x="452.7" y="197.6" fill="#FD9838" width="2.2" height="2.2"/>
				</g>
				<g>
					<rect x="454.9" y="197.6" fill="#FD9838" width="2.2" height="2.2"/>
				</g>
				<g>
					<rect x="448.3" y="191.1" fill="#FD9838" width="2.2" height="2.2"/>
				</g>
				<g>
					<rect x="457.1" y="204.2" fill="#FD9838" width="2.2" height="4.4"/>
				</g>
				<g>
					<rect x="454.9" y="202" fill="#FD9838" width="2.2" height="2.2"/>
				</g>
			</g>
			<g>
				<rect x="424.2" y="101.2" fill="#FFFFFF" width="46" height="29.6"/>
				<polygon fill="#FFFFFF" points="471.3,108.8 471.3,130.8 488.9,130.8 490,129.7 490,119.8 486.7,108.8 				"/>
				<g>
					<path fill="#9EA3A5" d="M486.7,120.9h-11c-0.6,0-1.1-0.5-1.1-1.1v-7.7c0-0.6,0.5-1.1,1.1-1.1h8.8c0.5,0,0.9,0.3,1.1,0.8
						l2.2,7.7c0.1,0.3,0,0.7-0.2,1C487.4,120.7,487,120.9,486.7,120.9z M476.8,118.7h8.4l-1.6-5.5h-6.8V118.7z"/>
				</g>
				<path fill="#9EA3A5" d="M491.1,129.7v-9.9c0-0.1,0-0.2,0-0.3l-3.3-11c-0.1-0.5-0.6-0.8-1.1-0.8h-15.3v-6.6
					c0-0.6-0.5-1.1-1.1-1.1h-46c-0.6,0-1.1,0.5-1.1,1.1v29.6c0,0.6,0.5,1.1,1.1,1.1h3.3v5.5c0,0.6,0.5,1.1,1.1,1.1h8.8
					c0,3,2.5,5.5,5.5,5.5s5.5-2.5,5.5-5.5h21.9h3.3c0,3,2.5,5.5,5.5,5.5s5.5-2.5,5.5-5.5h5.5c0.6,0,1.1-0.5,1.1-1.1v-5.5
					c0-0.5-0.3-0.9-0.7-1l0.4-0.4C491,130.2,491.1,130,491.1,129.7z M442.8,141.7c-1.8,0-3.3-1.5-3.3-3.3s1.5-3.3,3.3-3.3
					c1.8,0,3.3,1.5,3.3,3.3S444.7,141.7,442.8,141.7z M469.2,136.2h-21.3c-0.8-1.9-2.8-3.3-5-3.3c-2.2,0-4.2,1.4-5,3.3h-8.1V133
					h13.2h26.3V136.2z M469.2,129.7h-43.8v-27.4h43.8V129.7z M479,141.7c-1.8,0-3.3-1.5-3.3-3.3s1.5-3.3,3.3-3.3s3.3,1.5,3.3,3.3
					S480.8,141.7,479,141.7z M488.9,136.2H484c-0.8-1.9-2.8-3.3-5-3.3c-2.2,0-4.2,1.4-5,3.3h-2.7V133h7.7h9.9V136.2z M488.9,129.2
					l-0.5,0.5h-16v-19.7h13.4l3,10V129.2z"/>
				<g opacity="0.5">
					<rect x="428.6" y="131.9" fill="#9EA3A5" width="61.4" height="2.2"/>
				</g>
				<g opacity="0.5">
					<rect x="425.3" y="128.6" fill="#9EA3A5" width="64.7" height="2.2"/>
				</g>
				<g>
					<g>
						<path fill="#FD9838" d="M442.8,106.7h-4.4v4.4h4.4V106.7z"/>
					</g>
					<g>
						<path fill="#FD9838" d="M442.8,119.8h-4.4v4.4h4.4V119.8z"/>
					</g>
					<g>
						<path fill="#FD9838" d="M456,106.7h-4.4v4.4h4.4V106.7z"/>
					</g>
					<g>
						<polygon fill="#FD9838" points="449.4,119.8 449.4,115.4 447.2,115.4 447.2,117.6 445,117.6 445,119.8 447.2,119.8 
							447.2,119.8 						"/>
					</g>
					<g>
						<rect x="445" y="108.8" fill="#FD9838" width="4.4" height="2.2"/>
					</g>
					<g>
						<rect x="438.5" y="113.2" fill="#FD9838" width="2.2" height="2.2"/>
					</g>
					<g>
						<polygon fill="#FD9838" points="447.2,119.8 447.2,122 449.4,122 449.4,124.2 451.6,124.2 451.6,119.8 						"/>
					</g>
					<g>
						<rect x="440.7" y="115.4" fill="#FD9838" width="4.4" height="2.2"/>
					</g>
					<g>
						<rect x="442.8" y="113.2" fill="#FD9838" width="2.2" height="2.2"/>
					</g>
					<g>
						<rect x="445" y="111" fill="#FD9838" width="2.2" height="2.2"/>
					</g>
					<g>
						<rect x="445" y="122" fill="#FD9838" width="2.2" height="2.2"/>
					</g>
					<g>
						<rect x="451.6" y="115.4" fill="#FD9838" width="4.4" height="2.2"/>
					</g>
					<g>
						<rect x="449.4" y="113.2" fill="#FD9838" width="2.2" height="2.2"/>
					</g>
					<g>
						<rect x="451.6" y="113.2" fill="#FD9838" width="2.2" height="2.2"/>
					</g>
					<g>
						<rect x="445" y="106.7" fill="#FD9838" width="2.2" height="2.2"/>
					</g>
					<g>
						<rect x="453.8" y="119.8" fill="#FD9838" width="2.2" height="4.4"/>
					</g>
					<g>
						<rect x="451.6" y="117.6" fill="#FD9838" width="2.2" height="2.2"/>
					</g>
				</g>
			</g>
			<g>
				<g>
					<path fill="#9EA3A5" d="M69.8,100.3c-0.3-0.2-0.6-0.3-0.9-0.2l-16.2,3.2l-16.2-3.2c-0.1,0-0.1,0-0.2,0c-0.1,0-0.1,0-0.2,0
						l-17.5,3.3c-0.5,0.1-0.9,0.5-0.9,1.1v42.7c0,0.3,0.1,0.6,0.4,0.8c0.2,0.2,0.4,0.3,0.7,0.3c0.1,0,0.1,0,0.2,0l17.3-3.2l16.2,3.2
						c0.1,0,0.1,0,0.2,0c0.1,0,0.1,0,0.2,0l16.4-3.3c0.5-0.1,0.9-0.6,0.9-1.1v-42.8C70.2,100.8,70,100.5,69.8,100.3z M19.7,105.4
						l15.3-2.9V143l-15.3,2.9V105.4z M37.3,102.5l14.2,2.8v40.5L37.3,143V102.5z M68,143l-14.2,2.8v-40.5l14.2-2.8V143z"/>
				</g>
				<g>
					<rect x="109.6" y="127.5" fill="#FFFFFF" width="36.2" height="19.7"/>
					<path fill="#9EA3A5" d="M145.8,126.4h-17.5v-25.2c0-0.6-0.5-1.1-1.1-1.1H95.4c-0.6,0-1.1,0.5-1.1,1.1v44.9
						c0,0.6,0.5,1.1,1.1,1.1h13.2c0,0.6,0.5,1.1,1.1,1.1h36.2c0.6,0,1.1-0.5,1.1-1.1v-19.7C146.9,126.9,146.4,126.4,145.8,126.4z
						 M96.5,145v-42.7h29.6v24.1h-16.4c-0.6,0-1.1,0.5-1.1,1.1V145H96.5z M144.7,146.1h-34v-17.5h34V146.1z"/>
				</g>
				<g>
					<path fill="#9EA3A5" d="M64.7,207.5H29.6c-0.6,0-1.1-0.5-1.1-1.1v-23c0-0.6,0.5-1.1,1.1-1.1h35.1c0.6,0,1.1,0.5,1.1,1.1v23
						C65.8,207,65.3,207.5,64.7,207.5z M30.7,205.3h32.9v-20.8H30.7V205.3z"/>
				</g>
				<g>
					<path fill="#FD9838" d="M123.9,104.5h-5.5v5.5h5.5V104.5z"/>
				</g>
				<g>
					<path fill="#FD9838" d="M65.8,135.2l-5.5,1.1v5.5l5.5-1.1V135.2z"/>
				</g>
				<g>
					<path fill="#FD9838" d="M117.3,139.5h-4.4v4.4h4.4V139.5z"/>
				</g>
				<g>
					<path fill="#FD9838" d="M60.3,196.5h-6.6v6.6h6.6V196.5z"/>
				</g>
				<g>
					<path fill="#9EA3A5" d="M47.1,188.9H34v2.2h13.2V188.9z"/>
				</g>
				<g>
					<path fill="#9EA3A5" d="M47.1,200.9H34v2.2h13.2V200.9z"/>
				</g>
				<g>
					<path fill="#9EA3A5" d="M47.1,196.5H34v2.2h13.2V196.5z"/>
				</g>
				<g>
					<path fill="#9EA3A5" d="M141.4,142.8h-6.6v1.1h6.6V142.8z"/>
				</g>
				<g>
					<path fill="#9EA3A5" d="M141.4,140.6h-6.6v1.1h6.6V140.6z"/>
				</g>
				<g>
					<path fill="#9EA3A5" d="M141.4,138.4h-6.6v1.1h6.6V138.4z"/>
				</g>
				<g>
					<path fill="#9EA3A5" d="M132.6,136.2h-2.2v1.1h2.2V136.2z"/>
				</g>
			</g>
			<g>
				<g>
					<path fill="#9EA3A5" d="M107.4,215.2H95.4c-0.6,0-1.1-0.5-1.1-1.1v-11c0-0.3,0.1-0.6,0.3-0.8l0.3-0.3l-0.3-0.3
						c-0.2-0.2-0.3-0.5-0.3-0.8v-16.4c0-0.6,0.5-1.1,1.1-1.1h12.1c0.6,0,1.1,0.5,1.1,1.1v16.4c0,0.3-0.1,0.6-0.3,0.8l-0.3,0.3
						l0.3,0.3c0.2,0.2,0.3,0.5,0.3,0.8v11C108.5,214.7,108,215.2,107.4,215.2z M96.5,213h9.9v-9.4l-0.8-0.8c-0.4-0.4-0.4-1.1,0-1.6
						l0.8-0.8v-14.9h-9.9v14.9l0.8,0.8c0.4,0.4,0.4,1.1,0,1.6l-0.8,0.8V213z"/>
				</g>
				<g opacity="0.5">
					<line fill="#FFFFFF" x1="106.3" y1="202" x2="96.5" y2="202"/>
					<rect x="96.5" y="200.9" fill="#9EA3A5" width="9.9" height="2.2"/>
				</g>
				<g>
					<path fill="#50B8E7" d="M104.1,210.8v-5.5h-5.5v5.5H104.1z"/>
				</g>
			</g>
			<g>
				<g>
					<polygon fill="#FFFFFF" points="124.8,193.1 116.3,184.6 104.7,196.2 104.7,197.8 103.1,197.8 95.4,205.6 103.9,214.1 
						111.6,206.3 111.6,204.8 113.2,204.8 					"/>
					<path fill="#9EA3A5" d="M103.9,215.2c-0.3,0-0.6-0.1-0.8-0.3l-8.5-8.5c-0.4-0.4-0.4-1.1,0-1.6l7.8-7.8c0.2-0.2,0.5-0.3,0.8-0.3
						h0.5v-0.5c0-0.3,0.1-0.6,0.3-0.8l11.6-11.6c0.4-0.4,1.1-0.4,1.6,0l8.5,8.5c0.4,0.4,0.4,1.1,0,1.6L114,205.6
						c-0.2,0.2-0.5,0.3-0.8,0.3h-0.5v0.5c0,0.3-0.1,0.6-0.3,0.8l-7.8,7.8C104.5,215.1,104.2,215.2,103.9,215.2z M96.9,205.6l7,7
						l6.7-6.7v-1.1c0-0.6,0.5-1.1,1.1-1.1h1.1l10.5-10.5l-7-7l-10.5,10.5v1.1c0,0.6-0.5,1.1-1.1,1.1h-1.1L96.9,205.6z"/>
				</g>
				<g opacity="0.5">
					<line fill="#FFFFFF" x1="111.6" y1="204.8" x2="104.7" y2="197.8"/>
					
						<rect x="103.2" y="200.2" transform="matrix(0.7071 0.7071 -0.7071 0.7071 174.0096 -17.5212)" fill="#9EA3A5" width="9.9" height="2.2"/>
				</g>
				<g>
					<path fill="#50B8E7" d="M103.9,209.4l3.9-3.9l-3.9-3.9l-3.9,3.9L103.9,209.4z"/>
				</g>
			</g>
			<g>
				<g>
					<polygon fill="#FFFFFF" points="125,214.1 125,202 108.5,202 107.4,203.1 106.3,202 95.4,202 95.4,214.1 106.3,214.1 
						107.4,213 108.5,214.1 					"/>
					<path fill="#9EA3A5" d="M125,215.2h-16.4c-0.3,0-0.6-0.1-0.8-0.3l-0.3-0.3l-0.3,0.3c-0.2,0.2-0.5,0.3-0.8,0.3h-11
						c-0.6,0-1.1-0.5-1.1-1.1V202c0-0.6,0.5-1.1,1.1-1.1h11c0.3,0,0.6,0.1,0.8,0.3l0.3,0.3l0.3-0.3c0.2-0.2,0.5-0.3,0.8-0.3H125
						c0.6,0,1.1,0.5,1.1,1.1v12.1C126.1,214.7,125.6,215.2,125,215.2z M109,213h14.9v-9.9H109l-0.8,0.8c-0.4,0.4-1.1,0.4-1.6,0
						l-0.8-0.8h-9.4v9.9h9.4l0.8-0.8c0.4-0.4,1.1-0.4,1.6,0L109,213z"/>
				</g>
				<g opacity="0.5">
					<line fill="#FFFFFF" x1="107.4" y1="213" x2="107.4" y2="203.1"/>
					<rect x="106.3" y="203.1" fill="#9EA3A5" width="2.2" height="9.9"/>
				</g>
				<g>
					<path fill="#FD9838" d="M98.7,210.8h5.5v-5.5h-5.5V210.8z"/>
				</g>
			</g>
			<g>
				<g>
					<path fill="#FFFFFF" d="M539.3,143.9h-19.7c-0.6,0-1-0.4-1.1-1l-1-7.8h-0.1c-0.6,0-1-0.4-1.1-1l-2.2-17.5
						c0-0.3,0.1-0.6,0.3-0.9c0.2-0.2,0.4-0.3,0.7-0.4l-0.8-6.6h-0.1c-0.4,0-0.8-0.2-1-0.6L512,106c-0.2-0.3-0.2-0.7,0-1l2.2-4.4
						c0.2-0.4,0.6-0.6,1-0.6h1.7l0.8-0.8c0.2-0.2,0.4-0.3,0.7-0.3l20.8-2.2c0.4,0,0.8,0.1,1,0.5l1.9,2.8h1.6c0.4,0,0.8,0.2,1,0.6
						l2.2,4.4c0.2,0.3,0.2,0.7,0,1l-1.1,2.2c-0.2,0.4-0.6,0.6-1,0.6h-0.1l-0.8,6.6c0.3,0,0.5,0.2,0.7,0.4c0.2,0.2,0.3,0.5,0.3,0.9
						l-2.2,17.5c-0.1,0.5-0.5,1-1.1,1h-0.1l-1,7.8C540.3,143.5,539.9,143.9,539.3,143.9z"/>
				</g>
				<path fill="#9EA3A5" d="M546.9,105.1l-2.2-4.4c-0.2-0.4-0.6-0.6-1-0.6h-1.6l-1.9-2.8c-0.2-0.3-0.6-0.5-1-0.5L518.4,99
					c-0.2,0-0.5,0.1-0.7,0.3l-0.8,0.8h-1.7c-0.4,0-0.8,0.2-1,0.6l-2.2,4.4c-0.2,0.3-0.2,0.7,0,1l1.1,2.2c0.2,0.4,0.6,0.6,1,0.6h0.1
					l0.8,6.6c-0.3,0-0.5,0.2-0.7,0.4c-0.2,0.2-0.3,0.5-0.3,0.9l2.2,17.5c0.1,0.5,0.5,1,1.1,1h0.1l1,7.8c0.1,0.5,0.5,1,1.1,1h19.7
					c0.6,0,1-0.4,1.1-1l1-7.8h0.1c0.6,0,1-0.4,1.1-1l2.2-17.5c0-0.3-0.1-0.6-0.3-0.9c-0.2-0.2-0.4-0.3-0.7-0.4l0.8-6.6h0.1
					c0.4,0,0.8-0.2,1-0.6l1.1-2.2C547,105.7,547,105.4,546.9,105.1z M538.8,99l1.4,2.1h-21.2l0,0L538.8,99z M538.3,141.7h-17.8
					l-0.8-6.6h19.4L538.3,141.7z M540.5,133h-0.1h-22.1l-1.9-15.3h26L540.5,133z M541.6,115.4h-24.4l-0.8-6.6h26L541.6,115.4z
					 M544.1,106.7h-0.4h-28.9l-0.5-1.1l1.6-3.3h0.4h1.1h24.1h1.1h0.4l1.6,3.3L544.1,106.7z"/>
				<g opacity="0.5">
					<g>
						<rect x="516.3" y="107.7" fill="#9EA3A5" width="26.3" height="2.2"/>
					</g>
				</g>
				<g opacity="0.5">
					<g>
						<rect x="518.5" y="134.1" fill="#9EA3A5" width="21.9" height="2.2"/>
					</g>
				</g>
				<g opacity="0.25">
					<g>
						<path fill="#9EA3A5" d="M538.2,143l-2.2-0.3l1.1-8.8c0.1-0.5,0.5-1,1.1-1h0.1l1.9-15.4c-0.3,0-0.5-0.2-0.7-0.4
							c-0.2-0.2-0.3-0.5-0.3-0.9l1.1-8.8c0.1-0.5,0.5-1,1.1-1h0.4l0.5-1.1l-1.6-3.3h-1.5c-0.4,0-0.8-0.2-1-0.6l-1.1-2.2l2-1l0.8,1.6
							h1.5c0.4,0,0.8,0.2,1,0.6l2.2,4.4c0.2,0.3,0.2,0.7,0,1l-1.1,2.2c-0.2,0.4-0.6,0.6-1,0.6h-0.1l-0.8,6.6c0.3,0,0.5,0.2,0.7,0.4
							c0.2,0.2,0.3,0.5,0.3,0.9l-2.2,17.5c-0.1,0.5-0.5,1-1.1,1h-0.1L538.2,143z"/>
					</g>
				</g>
			</g>
			<g>
				<path fill="#FD9838" d="M533.8,120.9h-8.8v8.8h8.8V120.9z"/>
			</g>
			<g>
				<g>
					<path fill="#50B8E7" d="M497.5,13.3c0-0.3-0.1-0.5-0.3-0.7c-0.2-0.2-0.6-0.4-1.1-0.5c-0.9-0.3-1.6-0.6-2.1-1
						c-0.5-0.4-0.7-0.9-0.7-1.5c0-0.6,0.3-1.2,0.8-1.6c0.5-0.4,1.2-0.6,2.1-0.6c0.9,0,1.6,0.2,2.1,0.7c0.5,0.5,0.8,1,0.8,1.7l0,0
						h-1.5c0-0.4-0.1-0.7-0.4-0.9c-0.2-0.2-0.6-0.3-1-0.3c-0.4,0-0.7,0.1-1,0.3c-0.2,0.2-0.3,0.4-0.3,0.7c0,0.3,0.1,0.5,0.4,0.7
						c0.2,0.2,0.7,0.3,1.3,0.5c0.9,0.2,1.5,0.6,2,0.9c0.4,0.4,0.7,0.9,0.7,1.5c0,0.7-0.3,1.2-0.8,1.6c-0.5,0.4-1.2,0.6-2.1,0.6
						c-0.8,0-1.6-0.2-2.2-0.7c-0.6-0.4-0.9-1-0.9-1.8l0,0h1.5c0,0.5,0.1,0.8,0.4,1c0.3,0.2,0.7,0.3,1.2,0.3c0.4,0,0.7-0.1,1-0.3
						C497.4,13.8,497.5,13.6,497.5,13.3z"/>
					<path fill="#50B8E7" d="M502.9,13.2l0.1,0.4h0l0.1-0.4l1.7-5.7h1.6l-2.6,7.8h-1.6l-2.6-7.8h1.6L502.9,13.2z"/>
					<path fill="#50B8E7" d="M513.1,14.2c-0.2,0.3-0.6,0.6-1.1,0.8c-0.5,0.2-1.1,0.4-1.9,0.4c-1,0-1.7-0.3-2.3-0.9
						c-0.6-0.6-0.9-1.4-0.9-2.3v-1.6c0-0.9,0.3-1.7,0.9-2.3c0.6-0.6,1.3-0.9,2.2-0.9c0.9,0,1.7,0.2,2.2,0.7c0.5,0.5,0.8,1.1,0.8,1.8
						l0,0h-1.5c0-0.4-0.2-0.7-0.4-1c-0.2-0.2-0.6-0.4-1-0.4c-0.5,0-0.9,0.2-1.2,0.6c-0.3,0.4-0.4,0.8-0.4,1.4v1.6
						c0,0.6,0.2,1.1,0.5,1.4c0.3,0.4,0.7,0.6,1.2,0.6c0.4,0,0.7,0,0.9-0.1c0.2-0.1,0.4-0.2,0.5-0.3v-1.4h-1.4v-1.1h2.9V14.2z"/>
				</g>
				<g>
					<path fill="#50B8E7" d="M463.7,55.9v-1.5c0-4.4,3.6-8,8-8h1.5c4.4,0,8,3.6,8,8v1.5c0,4.4-3.6,8-8,8h-1.5
						C467.3,63.9,463.7,60.3,463.7,55.9z"/>
				</g>
				<g>
					<path fill="#50B8E7" d="M494.4,29.6v-1.5c0-4.4,3.6-8,8-8h1.5c4.4,0,8,3.6,8,8v1.5c0,4.4-3.6,8-8,8h-1.5
						C497.9,37.6,494.4,34,494.4,29.6z"/>
				</g>
				<g>
					<path fill="#50B8E7" d="M467.8,38.2h-3.2v2.2h3.8v1.2H463v-7.8h5.3V35h-3.8v2h3.2V38.2z"/>
					<path fill="#50B8E7" d="M470.8,38.8v2.8h-1.6v-7.8h3.1c0.9,0,1.6,0.2,2.1,0.7s0.8,1.1,0.8,1.8s-0.3,1.3-0.8,1.8
						c-0.5,0.5-1.2,0.7-2.1,0.7H470.8z M470.8,37.6h1.5c0.4,0,0.8-0.1,1-0.4c0.2-0.2,0.3-0.5,0.3-0.9c0-0.4-0.1-0.7-0.3-0.9
						c-0.2-0.2-0.6-0.4-1-0.4h-1.5V37.6z"/>
					<path fill="#50B8E7" d="M480.6,39.6c0-0.3-0.1-0.5-0.3-0.7c-0.2-0.2-0.6-0.4-1.1-0.5c-0.9-0.3-1.6-0.6-2.1-1
						c-0.5-0.4-0.7-0.9-0.7-1.5c0-0.6,0.3-1.2,0.8-1.6c0.5-0.4,1.2-0.6,2.1-0.6c0.9,0,1.6,0.2,2.1,0.7c0.5,0.5,0.8,1,0.8,1.7l0,0
						h-1.5c0-0.4-0.1-0.7-0.4-0.9c-0.2-0.2-0.6-0.3-1-0.3c-0.4,0-0.7,0.1-1,0.3c-0.2,0.2-0.3,0.4-0.3,0.7c0,0.3,0.1,0.5,0.4,0.7
						c0.2,0.2,0.7,0.3,1.3,0.5c0.9,0.2,1.5,0.6,2,0.9c0.4,0.4,0.7,0.9,0.7,1.5c0,0.7-0.3,1.2-0.8,1.6c-0.5,0.4-1.2,0.6-2.1,0.6
						c-0.8,0-1.6-0.2-2.2-0.7c-0.6-0.4-0.9-1-0.9-1.8l0,0h1.5c0,0.5,0.1,0.8,0.4,1c0.3,0.2,0.7,0.3,1.2,0.3c0.4,0,0.7-0.1,1-0.3
						C480.5,40.1,480.6,39.9,480.6,39.6z"/>
				</g>
			</g>
			<g>
				<g>
					<path fill="#50B8E7" d="M88.7,12.5v2.8h-1.6V7.5h3.1c0.9,0,1.6,0.2,2.1,0.7c0.5,0.5,0.8,1.1,0.8,1.8s-0.3,1.3-0.8,1.8
						c-0.5,0.5-1.2,0.7-2.1,0.7H88.7z M88.7,11.3h1.5c0.4,0,0.8-0.1,1-0.4c0.2-0.2,0.3-0.5,0.3-0.9c0-0.4-0.1-0.7-0.3-0.9
						c-0.2-0.2-0.6-0.4-1-0.4h-1.5V11.3z"/>
					<path fill="#50B8E7" d="M100.6,15.3h-1.6L95.9,10l0,0v5.3h-1.6V7.5h1.6l3.1,5.3l0,0V7.5h1.6V15.3z"/>
					<path fill="#50B8E7" d="M108.1,14.2c-0.2,0.3-0.6,0.6-1.1,0.8s-1.1,0.4-1.9,0.4c-1,0-1.7-0.3-2.3-0.9c-0.6-0.6-0.9-1.4-0.9-2.3
						v-1.6c0-0.9,0.3-1.7,0.9-2.3c0.6-0.6,1.3-0.9,2.2-0.9c1,0,1.7,0.2,2.2,0.7c0.5,0.5,0.8,1.1,0.8,1.8l0,0h-1.5
						c0-0.4-0.2-0.7-0.4-1c-0.2-0.2-0.6-0.4-1-0.4c-0.5,0-0.9,0.2-1.2,0.6c-0.3,0.4-0.4,0.8-0.4,1.4v1.6c0,0.6,0.2,1.1,0.5,1.4
						c0.3,0.4,0.7,0.6,1.2,0.6c0.4,0,0.7,0,0.9-0.1c0.2-0.1,0.4-0.2,0.5-0.3v-1.4h-1.4v-1.1h2.9V14.2z"/>
				</g>
				<g>
					<path fill="#50B8E7" d="M60.5,33.8h1.6v5.5c0,0.8-0.2,1.3-0.7,1.8c-0.5,0.4-1.1,0.7-1.9,0.7c-0.8,0-1.5-0.2-1.9-0.6
						c-0.5-0.4-0.7-1-0.7-1.8l0,0h1.5c0,0.4,0.1,0.7,0.3,0.9c0.2,0.2,0.5,0.3,0.8,0.3c0.3,0,0.5-0.1,0.7-0.3
						c0.2-0.2,0.3-0.5,0.3-0.9V33.8z"/>
					<path fill="#50B8E7" d="M65,38.8v2.8h-1.6v-7.8h3.1c0.9,0,1.6,0.2,2.1,0.7s0.8,1.1,0.8,1.8s-0.3,1.3-0.8,1.8
						c-0.5,0.5-1.2,0.7-2.1,0.7H65z M65,37.6h1.5c0.4,0,0.8-0.1,1-0.4c0.2-0.2,0.3-0.5,0.3-0.9c0-0.4-0.1-0.7-0.3-0.9
						c-0.2-0.2-0.6-0.4-1-0.4H65V37.6z"/>
					<path fill="#50B8E7" d="M76.6,40.6c-0.2,0.3-0.6,0.6-1.1,0.8c-0.5,0.2-1.1,0.4-1.9,0.4c-1,0-1.7-0.3-2.3-0.9
						c-0.6-0.6-0.9-1.4-0.9-2.3v-1.6c0-0.9,0.3-1.7,0.9-2.3c0.6-0.6,1.3-0.9,2.2-0.9c1,0,1.7,0.2,2.2,0.7c0.5,0.5,0.8,1.1,0.8,1.8
						l0,0H75c0-0.4-0.2-0.7-0.4-1c-0.2-0.2-0.6-0.4-1-0.4c-0.5,0-0.9,0.2-1.2,0.6c-0.3,0.4-0.4,0.8-0.4,1.4v1.6
						c0,0.6,0.2,1.1,0.5,1.4c0.3,0.4,0.7,0.6,1.2,0.6c0.4,0,0.7,0,0.9-0.1c0.2-0.1,0.4-0.2,0.5-0.3v-1.4h-1.4v-1.1h2.9V40.6z"/>
				</g>
				<g>
					<g opacity="0.75">
						<rect x="101.9" y="22.2" fill="#50B8E7" width="2.2" height="2.2"/>
					</g>
					<g opacity="0.75">
						<rect x="99.7" y="20.1" fill="#50B8E7" width="2.2" height="2.2"/>
					</g>
					<g opacity="0.75">
						<rect x="104.1" y="24.4" fill="#50B8E7" width="2.2" height="2.2"/>
					</g>
					<g opacity="0.25">
						<rect x="101.9" y="20.1" fill="#50B8E7" width="2.2" height="2.2"/>
					</g>
					<g opacity="0.25">
						<rect x="104.1" y="22.2" fill="#50B8E7" width="2.2" height="2.2"/>
					</g>
					<g opacity="0.75">
						<rect x="101.9" y="33.2" fill="#50B8E7" width="2.2" height="2.2"/>
					</g>
					<g opacity="0.75">
						<rect x="104.1" y="31" fill="#50B8E7" width="2.2" height="2.2"/>
					</g>
					<g opacity="0.75">
						<rect x="99.7" y="35.4" fill="#50B8E7" width="2.2" height="2.2"/>
					</g>
					<g opacity="0.25">
						<rect x="104.1" y="33.2" fill="#50B8E7" width="2.2" height="2.2"/>
					</g>
					<g opacity="0.25">
						<rect x="101.9" y="35.4" fill="#50B8E7" width="2.2" height="2.2"/>
					</g>
					<g opacity="0.75">
						<rect x="91" y="33.2" fill="#50B8E7" width="2.2" height="2.2"/>
					</g>
					<g opacity="0.75">
						<rect x="93.2" y="35.4" fill="#50B8E7" width="2.2" height="2.2"/>
					</g>
					<g opacity="0.75">
						<rect x="88.8" y="31" fill="#50B8E7" width="2.2" height="2.2"/>
					</g>
					<g opacity="0.25">
						<rect x="91" y="35.4" fill="#50B8E7" width="2.2" height="2.2"/>
					</g>
					<g opacity="0.25">
						<rect x="88.8" y="33.2" fill="#50B8E7" width="2.2" height="2.2"/>
					</g>
					<g opacity="0.75">
						<rect x="91" y="22.2" fill="#50B8E7" width="2.2" height="2.2"/>
					</g>
					<g>
						<polygon fill="#50B8E7" points="104.1,26.6 104.1,24.4 101.9,24.4 101.9,22.2 99.8,22.2 99.8,20.1 97.6,20.1 95.4,20.1 
							95.4,22.2 93.2,22.2 93.2,24.4 91,24.4 91,26.6 88.8,26.6 88.8,28.8 88.8,31 91,31 91,33.2 93.2,33.2 93.2,35.4 95.4,35.4 
							95.4,37.6 97.6,37.6 99.8,37.6 99.8,35.4 101.9,35.4 101.9,33.2 104.1,33.2 104.1,31 106.3,31 106.3,28.8 106.3,26.6 						
							"/>
					</g>
					<g opacity="0.75">
						<rect x="88.8" y="24.4" fill="#50B8E7" width="2.2" height="2.2"/>
					</g>
					<g opacity="0.75">
						<rect x="93.2" y="20.1" fill="#50B8E7" width="2.2" height="2.2"/>
					</g>
					<g opacity="0.25">
						<rect x="88.8" y="22.2" fill="#50B8E7" width="2.2" height="2.2"/>
					</g>
					<g opacity="0.25">
						<rect x="91" y="20.1" fill="#50B8E7" width="2.2" height="2.2"/>
					</g>
				</g>
				<g>
					<g opacity="0.75">
						<rect x="71.2" y="48.6" fill="#50B8E7" width="2.2" height="2.2"/>
					</g>
					<g opacity="0.75">
						<rect x="69.1" y="46.4" fill="#50B8E7" width="2.2" height="2.2"/>
					</g>
					<g opacity="0.75">
						<rect x="73.4" y="50.7" fill="#50B8E7" width="2.2" height="2.2"/>
					</g>
					<g opacity="0.25">
						<rect x="71.2" y="46.4" fill="#50B8E7" width="2.2" height="2.2"/>
					</g>
					<g opacity="0.25">
						<rect x="73.4" y="48.6" fill="#50B8E7" width="2.2" height="2.2"/>
					</g>
					<g opacity="0.75">
						<rect x="71.2" y="59.5" fill="#50B8E7" width="2.2" height="2.2"/>
					</g>
					<g opacity="0.75">
						<rect x="73.4" y="57.3" fill="#50B8E7" width="2.2" height="2.2"/>
					</g>
					<g opacity="0.75">
						<rect x="69.1" y="61.7" fill="#50B8E7" width="2.2" height="2.2"/>
					</g>
					<g opacity="0.25">
						<rect x="73.4" y="59.5" fill="#50B8E7" width="2.2" height="2.2"/>
					</g>
					<g opacity="0.25">
						<rect x="71.2" y="61.7" fill="#50B8E7" width="2.2" height="2.2"/>
					</g>
					<g opacity="0.75">
						<rect x="60.3" y="59.5" fill="#50B8E7" width="2.2" height="2.2"/>
					</g>
					<g opacity="0.75">
						<rect x="62.5" y="61.7" fill="#50B8E7" width="2.2" height="2.2"/>
					</g>
					<g opacity="0.75">
						<rect x="58.1" y="57.3" fill="#50B8E7" width="2.2" height="2.2"/>
					</g>
					<g opacity="0.25">
						<rect x="60.3" y="61.7" fill="#50B8E7" width="2.2" height="2.2"/>
					</g>
					<g opacity="0.25">
						<rect x="58.1" y="59.5" fill="#50B8E7" width="2.2" height="2.2"/>
					</g>
					<g opacity="0.75">
						<rect x="60.3" y="48.6" fill="#50B8E7" width="2.2" height="2.2"/>
					</g>
					<g>
						<polygon fill="#50B8E7" points="73.4,52.9 73.4,50.8 71.2,50.8 71.2,48.6 69.1,48.6 69.1,46.4 66.9,46.4 64.7,46.4 64.7,48.6 
							62.5,48.6 62.5,50.8 60.3,50.8 60.3,52.9 58.1,52.9 58.1,55.1 58.1,57.3 60.3,57.3 60.3,59.5 62.5,59.5 62.5,61.7 64.7,61.7 
							64.7,63.9 66.9,63.9 69.1,63.9 69.1,61.7 71.2,61.7 71.2,59.5 73.4,59.5 73.4,57.3 75.6,57.3 75.6,55.1 75.6,52.9 						"/>
					</g>
					<g opacity="0.75">
						<rect x="58.1" y="50.7" fill="#50B8E7" width="2.2" height="2.2"/>
					</g>
					<g opacity="0.75">
						<rect x="62.5" y="46.4" fill="#50B8E7" width="2.2" height="2.2"/>
					</g>
					<g opacity="0.25">
						<rect x="58.1" y="48.6" fill="#50B8E7" width="2.2" height="2.2"/>
					</g>
					<g opacity="0.25">
						<rect x="60.3" y="46.4" fill="#50B8E7" width="2.2" height="2.2"/>
					</g>
				</g>
			</g>
		</g>
		<g>
			<g>
				<g>
					<path fill="#50B8E7" d="M252.1,106.7h-4.4c-0.6,0-1.1-0.5-1.1-1.1v-4.4c0-0.6,0.5-1.1,1.1-1.1h4.4c0.6,0,1.1,0.5,1.1,1.1v4.4
						C253.2,106.2,252.7,106.7,252.1,106.7z"/>
				</g>
				<g>
					<path fill="#50B8E7" d="M252.1,176.8h-4.4c-0.6,0-1.1-0.5-1.1-1.1v-4.4c0-0.6,0.5-1.1,1.1-1.1h4.4c0.6,0,1.1,0.5,1.1,1.1v4.4
						C253.2,176.3,252.7,176.8,252.1,176.8z"/>
				</g>
				<g>
					<polygon fill="#FD9838" points="287.2,101.2 287.2,96.8 287.2,92.4 278.4,92.4 278.4,96.8 282.8,96.8 282.8,109.9 287.2,109.9 
						287.2,105.6 296,105.6 296,101.2 					"/>
					<polygon fill="#FD9838" points="309.1,136.2 317.9,136.2 317.9,131.9 309.1,131.9 304.7,131.9 300.3,131.9 300.3,136.2 
						304.7,136.2 304.7,145 309.1,145 					"/>
					<g>
						<path fill="#FD9838" d="M330.2,136.2h-12.3v4.4h-4.4v4.4h8.8v-4.4h4.4v8.8h4.4v-6.2c-0.7-1.4-1.1-3-1.1-4.8
							C329.9,137.7,330,137,330.2,136.2z"/>
					</g>
					<polygon fill="#FD9838" points="322.3,118.7 309.1,118.7 309.1,123.1 304.7,123.1 304.7,127.5 313.5,127.5 313.5,123.1 
						317.9,123.1 317.9,127.5 322.3,127.5 322.3,131.9 331,131.9 331,127.5 326.7,127.5 326.7,123.1 322.3,123.1 					"/>
					<rect x="300.3" y="114.3" fill="#FD9838" width="4.4" height="8.8"/>
					<polygon fill="#FD9838" points="274,118.7 278.4,118.7 278.4,123.1 282.8,123.1 282.8,114.3 274,114.3 274,105.6 278.4,105.6 
						278.4,101.2 265.3,101.2 265.3,105.6 269.7,105.6 269.7,109.9 265.3,109.9 265.3,114.3 269.7,114.3 269.7,118.7 260.9,118.7 
						260.9,123.1 274,123.1 					"/>
					<rect x="239" y="118.7" fill="#FD9838" width="8.8" height="4.4"/>
					<rect x="247.7" y="123.1" fill="#FD9838" width="4.4" height="4.4"/>
					<rect x="326.7" y="180.1" fill="#FD9838" width="4.4" height="4.4"/>
					<rect x="274" y="180.1" fill="#FD9838" width="13.2" height="4.4"/>
					<rect x="265.3" y="180.1" fill="#FD9838" width="4.4" height="4.4"/>
					<rect x="265.3" y="158.2" fill="#FD9838" width="4.4" height="8.8"/>
					<polygon fill="#FD9838" points="269.7,171.3 265.3,171.3 265.3,175.7 269.7,175.7 269.7,180.1 274,180.1 274,166.9 
						269.7,166.9 					"/>
					<rect x="326.7" y="118.7" fill="#FD9838" width="4.4" height="4.4"/>
					<rect x="313.5" y="158.2" fill="#FD9838" width="4.4" height="4.4"/>
					<path fill="#FD9838" d="M304.7,149.4V145h-4.4v8.8h4.4v4.4h-4.4v4.4H296v4.4h-4.4v4.4h-8.8v-4.4h4.4v-4.4h4.4v-4.4h4.4v-4.4
						h-8.8v4.4h-4.4v4.4H274v4.4h4.4v8.8h13.2v4.4h4.4v4.4h13.2v-4.4h4.4v-4.4h-8.8v4.4h-4.4v-4.4H296v-4.4h4.4v-4.4h4.4v4.4h17.5
						v4.4h-4.4v4.4h8.8v-4.4h4.4v-4.4h-4.4v-13.2h4.4v-4.4h-4.4v-4.4H304.7z M322.3,166.9h-13.2v-13.2h13.2V166.9z"/>
					<rect x="260.9" y="140.6" fill="#FD9838" width="4.4" height="8.8"/>
					<rect x="265.3" y="136.3" fill="#FD9838" width="4.4" height="4.4"/>
					<rect x="265.3" y="149.4" fill="#FD9838" width="4.4" height="4.4"/>
					<rect x="274" y="153.8" fill="#FD9838" width="4.4" height="4.4"/>
					<polygon fill="#FD9838" points="256.5,153.8 256.5,149.4 252.1,149.4 252.1,153.8 252.1,158.2 265.3,158.2 265.3,153.8 					
						"/>
					<polygon fill="#FD9838" points="247.7,158.2 247.7,153.8 243.3,153.8 243.3,145 239,145 239,158.2 					"/>
					<g>
						<path fill="#FD9838" d="M243.3,127.5v4.4H239v1.8c0.7,1.4,1.1,3,1.1,4.8c0,0.8-0.1,1.5-0.2,2.2h3.5v-4.4h4.4v-8.8H243.3z"/>
					</g>
					<polygon fill="#FD9838" points="256.5,145 256.5,131.9 260.9,131.9 260.9,136.2 265.3,136.2 265.3,131.9 269.7,131.9 
						269.7,127.5 265.3,127.5 260.9,127.5 260.9,123.1 256.5,123.1 256.5,127.5 252.1,127.5 252.1,140.6 247.7,140.6 247.7,149.4 
						252.1,149.4 252.1,145 					"/>
					<polygon fill="#FD9838" points="300.3,101.2 304.7,101.2 304.7,92.4 291.6,92.4 291.6,96.8 300.3,96.8 					"/>
					<polygon fill="#FD9838" points="304.7,109.9 304.7,105.6 296,105.6 296,109.9 291.6,109.9 291.6,114.3 287.2,114.3 
						287.2,123.1 291.6,123.1 291.6,118.7 296,118.7 296,114.3 300.3,114.3 300.3,109.9 					"/>
					<rect x="265.3" y="92.4" fill="#FD9838" width="8.8" height="4.4"/>
					<path fill="#FD9838" d="M245.5,114.3h8.8c3.6,0,6.6-2.9,6.6-6.6V99c0-3.6-2.9-6.6-6.6-6.6h-8.8c-3.6,0-6.6,2.9-6.6,6.6v8.8
						C239,111.4,241.9,114.3,245.5,114.3z M243.3,99c0-1.2,1-2.2,2.2-2.2h8.8c1.2,0,2.2,1,2.2,2.2v8.8c0,1.2-1,2.2-2.2,2.2h-8.8
						c-1.2,0-2.2-1-2.2-2.2V99z"/>
					<path fill="#FD9838" d="M254.3,162.6h-8.8c-3.6,0-6.6,2.9-6.6,6.6v8.8c0,3.6,2.9,6.6,6.6,6.6h8.8c3.6,0,6.6-2.9,6.6-6.6v-8.8
						C260.9,165.5,257.9,162.6,254.3,162.6z M256.5,177.9c0,1.2-1,2.2-2.2,2.2h-8.8c-1.2,0-2.2-1-2.2-2.2v-8.8c0-1.2,1-2.2,2.2-2.2
						h8.8c1.2,0,2.2,1,2.2,2.2V177.9z"/>
					<path fill="#FD9838" d="M324.5,92.4h-8.8c-3.6,0-6.6,2.9-6.6,6.6v8.8c0,3.6,2.9,6.6,6.6,6.6h8.8c3.6,0,6.6-2.9,6.6-6.6V99
						C331,95.3,328.1,92.4,324.5,92.4z M326.7,107.8c0,1.2-1,2.2-2.2,2.2h-8.8c-1.2,0-2.2-1-2.2-2.2V99c0-1.2,1-2.2,2.2-2.2h8.8
						c1.2,0,2.2,1,2.2,2.2V107.8z"/>
				</g>
				<g>
					<path fill="#50B8E7" d="M322.3,106.7h-4.4c-0.6,0-1.1-0.5-1.1-1.1v-4.4c0-0.6,0.5-1.1,1.1-1.1h4.4c0.6,0,1.1,0.5,1.1,1.1v4.4
						C323.4,106.2,322.9,106.7,322.3,106.7z"/>
				</g>
			</g>
		</g>
		<g>
			<g opacity="0.5">
				<g>
					<polygon fill="#50B8E7" points="291.6,140.6 289.4,138.4 287.2,140.6 296,149.4 296,149.4 296,140.6 293.8,138.4 					"/>
				</g>
			</g>
			<g opacity="0.25">
				<g>
					<polygon fill="#50B8E7" points="285,145 281.7,141.7 274,149.4 296,149.4 288.3,141.7 					"/>
				</g>
			</g>
			<path fill="#50B8E7" d="M296,126.4H274c-0.6,0-1.1,0.5-1.1,1.1v21.9c0,0.6,0.5,1.1,1.1,1.1H296c0.6,0,1.1-0.5,1.1-1.1v-21.9
				C297.1,126.9,296.6,126.4,296,126.4z M275.1,128.6h19.7v11l-3.3-3.3l-4.4,4.4l-2.2-2.2l-9.9,9.9V128.6z M276.7,148.3l8.3-8.3
				l8.3,8.3H276.7z M294.9,146.8l-6.1-6.1l2.8-2.8l3.3,3.3V146.8z"/>
			<g opacity="0.25">
				<g>
					<path fill="#50B8E7" d="M277.3,134.1L277.3,134.1c0,1.8,1.5,3.3,3.3,3.3l0,0c1.8,0,3.3-1.5,3.3-3.3l0,0c0-1.8-1.5-3.3-3.3-3.3
						l0,0C278.8,130.8,277.3,132.2,277.3,134.1z"/>
				</g>
			</g>
			<g opacity="0.5">
				<g>
					<path fill="#51B8E7" d="M280.6,133c0.6,0,1.1,0.5,1.1,1.1s-0.5,1.1-1.1,1.1s-1.1-0.5-1.1-1.1S280,133,280.6,133 M280.6,131.9
						c-1.2,0-2.2,1-2.2,2.2c0,1.2,1,2.2,2.2,2.2s2.2-1,2.2-2.2C282.8,132.8,281.8,131.9,280.6,131.9L280.6,131.9z"/>
				</g>
			</g>
		</g>
		<rect x="339.8" y="85.8" fill="#9EA3A5" width="2.2" height="44.9"/>
		<rect x="228" y="85.8" fill="#9EA3A5" width="2.2" height="44.9"/>
		<path fill="#9EA3A5" d="M339.8,146.1v48.2H230.2v-48.2H228v49.3c0,0.6,0.5,1.1,1.1,1.1h111.8c0.6,0,1.1-0.5,1.1-1.1v-49.3H339.8z"
			/>
		<path fill="#9EA3A5" d="M377.1,69.4V55.7c0-4.2-1.8-8.1-5-10.8l-9.5-8.2c-1-0.9-2.3-1.3-3.6-1.3h-10.4V14.6c0-0.6-0.5-1.1-1.1-1.1
			h-4.4c-0.6,0-1.1,0.5-1.1,1.1v2.2h-2.2V1.4c0-0.6-0.5-1.1-1.1-1.1H231.3c-0.6,0-1.1,0.5-1.1,1.1v15.3H228v-2.2
			c0-0.6-0.5-1.1-1.1-1.1h-4.4c-0.6,0-1.1,0.5-1.1,1.1v20.8H211c-1.3,0-2.6,0.5-3.6,1.3l-9.5,8.2c-3.2,2.7-5,6.7-5,10.8v13.7
			c0,0.6,0.5,1.1,1.1,1.1h1.1l-2,2.6c-0.1,0.2-0.2,0.4-0.2,0.7v24.1c0,4.2,3.4,7.7,7.7,7.7h20.8c0.2,0,0.3-0.1,0.5-0.1l0,0l4.2-2.1
			h4.1v-2.2h-3.3V85.9c0.4-0.1,0.7-0.1,1.1-0.1h114c0.4,0,0.7,0,1.1,0.1v15.2h-3.3v2.2h4.1l4.2,2.1l0,0c0.1,0.1,0.3,0.1,0.5,0.1
			h20.8c4.2,0,7.7-3.4,7.7-7.7V73.8c0-0.2-0.1-0.5-0.2-0.7l-2-2.6h1.1C376.6,70.5,377.1,70,377.1,69.4z M344.2,15.7h2.2v23h-2.2
			V15.7z M339.8,19h2.2v19.7h-2.2V19z M232.4,2.5h105.2v36.2H232.4V2.5z M228,19h2.2v19.7H228V19z M223.6,15.7h2.2v23h-2.2V15.7z
			 M224.7,101.6l-2.2,1.1V91.3c0-1.8,0.9-3.4,2.2-4.4V101.6z M347.5,102.7l-2.2-1.1V87c1.3,1,2.2,2.6,2.2,4.4V102.7z M374.9,97.9
			c0,3-2.5,5.5-5.5,5.5h-19.7V91.3c0-4.2-3.4-7.7-7.7-7.7H228c-4.2,0-7.7,3.4-7.7,7.7v12.1h-19.7c-3,0-5.5-2.5-5.5-5.5V74.1l2.7-3.7
			h174.3l2.7,3.7V97.9z M374.9,68.3H195.1V55.7c0-3.5,1.5-6.9,4.2-9.2l9.5-8.2c0.6-0.5,1.4-0.8,2.1-0.8h10.4v1.1h-1.1
			c-0.6,0-1.1,0.5-1.1,1.1c0,0.6,0.5,1.1,1.1,1.1h129.3c0.6,0,1.1-0.5,1.1-1.1c0-0.6-0.5-1.1-1.1-1.1h-1.1v-1.1H359
			c0.8,0,1.5,0.3,2.1,0.8l9.5,8.2c2.7,2.3,4.2,5.6,4.2,9.2V68.3z"/>
	</g>
	<path fill="#9EA3A5" d="M452.7,69.4c0,0.6,0.5,1.1,1.1,1.1h37.3c0.6,0,1.1-0.5,1.1-1.1V44.2h29.6c0.6,0,1.1-0.5,1.1-1.1V10.2
		c0-0.3-0.1-0.6-0.3-0.8l-8.8-8.8c-0.2-0.2-0.5-0.3-0.8-0.3h-28.5c-0.6,0-1.1,0.5-1.1,1.1v25.9l-0.3-0.3c-0.2-0.2-0.5-0.3-0.8-0.3
		h-28.5c-0.6,0-1.1,0.5-1.1,1.1V69.4z M485.6,2.5h26.9l8.1,8.1V42h-28.5v-5.5c0-0.3-0.1-0.6-0.3-0.8l-6.3-6.3V2.5z M454.9,28.8h26.9
		L490,37v31.3h-35.1V28.8z"/>
	<path fill="#9EA3A5" d="M47.1,69.4c0,0.6,0.5,1.1,1.1,1.1h37.3c0.6,0,1.1-0.5,1.1-1.1V44.2h29.6c0.6,0,1.1-0.5,1.1-1.1V10.2
		c0-0.3-0.1-0.6-0.3-0.8l-8.8-8.8c-0.2-0.2-0.5-0.3-0.8-0.3H78.9c-0.6,0-1.1,0.5-1.1,1.1v25.9L77.5,27c-0.2-0.2-0.5-0.3-0.8-0.3
		H48.2c-0.6,0-1.1,0.5-1.1,1.1V69.4z M80,2.5H107l8.1,8.1V42H86.6v-5.5c0-0.3-0.1-0.6-0.3-0.8L80,29.5V2.5z M49.3,28.8h26.9l8.1,8.1
		v31.3H49.3V28.8z"/>
	<path fill="#9EA3A5" d="M557.9,33.2h-36.2v2.2h36.2c5.4,0,9.9,4.4,9.9,9.9v186.3c0,5.4-4.4,9.9-9.9,9.9H417.6
		c-5.4,0-9.9-4.4-9.9-9.9V45.3c0-5.4,4.4-9.9,9.9-9.9h36.2v-2.2h-36.2c-6.6,0-12.1,5.4-12.1,12.1v92.1h-55.9h-0.1
		c-0.5-4.3-4.2-7.7-8.7-7.7c-4.8,0-8.8,3.9-8.8,8.8s3.9,8.8,8.8,8.8c4.5,0,8.2-3.4,8.7-7.7h0.1h55.9v92.1c0,6.6,5.4,12.1,12.1,12.1
		h140.3c6.6,0,12.1-5.4,12.1-12.1V45.3C570,38.6,564.6,33.2,557.9,33.2z M340.9,145c-3.6,0-6.6-2.9-6.6-6.6c0-3.6,2.9-6.6,6.6-6.6
		s6.6,2.9,6.6,6.6C347.5,142.1,344.5,145,340.9,145z"/>
	<path fill="#9EA3A5" d="M229.1,129.7c-4.5,0-8.2,3.4-8.7,7.7h-0.1h-55.9V45.3c0-6.6-5.4-12.1-12.1-12.1h-36.2v2.2h36.2
		c5.4,0,9.9,4.4,9.9,9.9v186.3c0,5.4-4.4,9.9-9.9,9.9H12.1c-5.4,0-9.9-4.4-9.9-9.9V45.3c0-5.4,4.4-9.9,9.9-9.9h36.2v-2.2H12.1
		C5.4,33.2,0,38.6,0,45.3v186.3c0,6.6,5.4,12.1,12.1,12.1h140.3c6.6,0,12.1-5.4,12.1-12.1v-92.1h55.9h0.1c0.5,4.3,4.2,7.7,8.7,7.7
		c4.8,0,8.8-3.9,8.8-8.8S233.9,129.7,229.1,129.7z M229.1,145c-3.6,0-6.6-2.9-6.6-6.6c0-3.6,2.9-6.6,6.6-6.6c3.6,0,6.6,2.9,6.6,6.6
		C235.7,142.1,232.7,145,229.1,145z"/>
	<g>
		<circle fill="#50B8E7" cx="340.9" cy="138.4" r="4.4"/>
	</g>
	<g>
		<circle fill="#50B8E7" cx="229.1" cy="138.4" r="4.4"/>
	</g>
</g>
</svg>
