<?xml version="1.0" encoding="utf-8"?>
<!-- Generator: Adobe Illustrator 18.1.1, SVG Export Plug-In . SVG Version: 6.00 Build 0)  -->
<!DOCTYPE svg PUBLIC "-//W3C//DTD SVG 1.1//EN" "http://www.w3.org/Graphics/SVG/1.1/DTD/svg11.dtd">
<svg version="1.1" id="Ebene_1" xmlns="http://www.w3.org/2000/svg" xmlns:xlink="http://www.w3.org/1999/xlink" x="0px" y="0px"
	 width="570px" height="298px" viewBox="0 0 570 298" enable-background="new 0 0 570 298" xml:space="preserve">
<g>
	<g opacity="0.5">
		<g>
			<g>
				<path fill="#9EA3A5" d="M554.7,297.5H392.4c-1.2,0-2.2-1-2.2-2.2s1-2.2,2.2-2.2h162.2c1.2,0,2.2,1,2.2,2.2
					S555.9,297.5,554.7,297.5z"/>
			</g>
		</g>
	</g>
	<g opacity="0.5">
		<g>
			<g>
				<path fill="#9EA3A5" d="M395.7,287.7H86.6c-1.2,0-2.2-1-2.2-2.2s1-2.2,2.2-2.2h309.1V287.7z"/>
			</g>
		</g>
	</g>
	<g>
		<g>
			<path fill="#9EA3A5" d="M96.6,281.1H0v2.2h105.6C102.5,282.8,99.5,282.1,96.6,281.1z"/>
		</g>
		<g>
			<path fill="#9EA3A5" d="M551.4,281.1c0.2,0.7,0.4,1.5,0.4,2.2H570v-2.2H551.4z"/>
		</g>
	</g>
	<g>
		<g>
			<g>
				<path fill="#50B8E7" d="M241.8,115.1c0,0.8-0.1,1.5-0.4,2.1c-0.2,0.6-0.6,1.2-1.1,1.7l2.1,2l-1.6,1.3l-2.2-2.2
					c-0.3,0.1-0.6,0.2-1,0.3c-0.3,0.1-0.7,0.1-1,0.1c-1.5,0-2.8-0.5-3.7-1.5c-1-1-1.4-2.3-1.4-3.8v-2.2c0-1.5,0.5-2.8,1.4-3.8
					c1-1,2.2-1.5,3.7-1.5c1.5,0,2.8,0.5,3.8,1.5c1,1,1.5,2.3,1.5,3.8V115.1z M239.3,112.8c0-1-0.2-1.8-0.7-2.4
					c-0.5-0.6-1.2-0.9-2-0.9c-0.9,0-1.5,0.3-2,0.9c-0.5,0.6-0.7,1.4-0.7,2.4v2.3c0,1,0.2,1.8,0.7,2.4c0.5,0.6,1.1,0.9,2,0.9
					c0.9,0,1.5-0.3,2-0.9c0.5-0.6,0.7-1.4,0.7-2.4V112.8z"/>
			</g>
			<g>
				<path fill="#50B8E7" d="M246.6,115.2v5h-2.5v-12.5h4.7c1.4,0,2.5,0.3,3.3,1c0.8,0.6,1.2,1.6,1.2,2.7c0,0.6-0.2,1.2-0.5,1.7
					c-0.3,0.5-0.8,0.8-1.5,1.1c0.7,0.2,1.3,0.6,1.6,1.1c0.3,0.5,0.5,1.1,0.5,1.9v0.9c0,0.3,0,0.7,0.1,1.1c0.1,0.4,0.3,0.7,0.5,0.8
					v0.2h-2.6c-0.2-0.2-0.4-0.5-0.4-0.9s-0.1-0.8-0.1-1.2v-0.9c0-0.6-0.2-1.1-0.5-1.5c-0.3-0.3-0.8-0.5-1.4-0.5H246.6z M246.6,113.3
					h2.2c0.7,0,1.2-0.1,1.6-0.4c0.3-0.3,0.5-0.7,0.5-1.3c0-0.6-0.2-1-0.5-1.4c-0.3-0.3-0.9-0.5-1.5-0.5h-2.2V113.3z"/>
			</g>
			<g>
				<path fill="#50B8E7" d="M266.2,122.5h-1.5v-14.8h1.5V122.5z"/>
			</g>
			<g>
				<path fill="#50B8E7" d="M285.3,115h-5.2v5.2h-2.5v-12.5h8.6v1.9h-6.1v3.4h5.2V115z"/>
			</g>
			<g>
				<path fill="#50B8E7" d="M293,117.5h-4.4l-0.8,2.7h-2.5l4.3-12.5h2.6l4.3,12.5h-2.5L293,117.5z M289.3,115.5h3.1l-1.5-4.9h-0.1
					L289.3,115.5z"/>
			</g>
			<g>
				<path fill="#50B8E7" d="M307.6,115.1c0,0.8-0.1,1.5-0.4,2.1s-0.6,1.2-1.1,1.7l2.1,2l-1.6,1.3l-2.2-2.2c-0.3,0.1-0.6,0.2-1,0.3
					s-0.7,0.1-1,0.1c-1.5,0-2.8-0.5-3.7-1.5c-1-1-1.4-2.3-1.4-3.8v-2.2c0-1.5,0.5-2.8,1.4-3.8s2.2-1.5,3.7-1.5
					c1.5,0,2.8,0.5,3.8,1.5c1,1,1.5,2.3,1.5,3.8V115.1z M305.1,112.8c0-1-0.2-1.8-0.7-2.4c-0.5-0.6-1.2-0.9-2-0.9
					c-0.9,0-1.5,0.3-2,0.9c-0.5,0.6-0.7,1.4-0.7,2.4v2.3c0,1,0.2,1.8,0.7,2.4c0.5,0.6,1.1,0.9,2,0.9c0.9,0,1.5-0.3,2-0.9
					c0.5-0.6,0.7-1.4,0.7-2.4V112.8z"/>
			</g>
		</g>
		<g opacity="0.25">
			<g>
				<path fill="#9EA3A5" d="M411.1,69.5c7.3,0,13.2,5.9,13.2,13.2v7.8l3.3-0.1v-7.7c0-9.1-7.4-16.4-16.4-16.4H216.5
					c0.5,1.1,0.9,2.2,1.4,3.3H411.1z"/>
			</g>
			<g>
				<path fill="#9EA3A5" d="M424.2,245.1v6.4c0.1-0.1,0.1-0.2,0.2-0.4C424.4,249.1,424.3,247.1,424.2,245.1z"/>
			</g>
			<g>
				<g>
					<path fill="#9EA3A5" d="M111.8,257c0,3.7,1.2,7.1,3.3,9.9c0.6-0.2,1.2-0.3,1.8-0.4c0.7-0.1,1.4-0.1,2.1-0.2
						c-2.4-2.4-3.9-5.7-3.9-9.3v-14.5c-1.1,0.2-2.2,0.3-3.3,0.3V257z"/>
				</g>
			</g>
		</g>
		<g opacity="0.5">
			<g>
				<g>
					<path fill="#9EA3A5" d="M395.5,253.7H130.4v-21.4c-0.6,1-1.4,2-2.2,3v18.4c0,1.2,1,2.2,2.2,2.2h265.2
						C395.5,255.2,395.5,254.4,395.5,253.7z"/>
				</g>
			</g>
			<g>
				<path fill="#9EA3A5" d="M375.2,84.9c0.3-0.8,0.6-1.5,1-2.2h-154c0.2,0.7,0.4,1.5,0.5,2.2H375.2z"/>
			</g>
		</g>
		<g>
			<g>
				<path fill="#9EA3A5" d="M375.2,84.9c0.1-0.4,0.3-0.7,0.4-1.1H222.5c0.1,0.4,0.2,0.7,0.3,1.1H375.2z"/>
			</g>
			<g>
				<g>
					<path fill="#9EA3A5" d="M395.4,253.7h-265v-21.4c-0.3,0.6-0.7,1.1-1.1,1.6v19.8c0,0.6,0.5,1.1,1.1,1.1h265.1
						C395.5,254.4,395.5,254,395.4,253.7z"/>
				</g>
			</g>
		</g>
		<g opacity="0.5">
			<g>
				<g>
					<rect x="233.5" y="88.2" fill="#50B8E7" width="32.9" height="4.4"/>
				</g>
			</g>
		</g>
		<g opacity="0.5">
			<g>
				<g>
					<rect x="288.3" y="88.2" fill="#50B8E7" width="32.9" height="4.4"/>
				</g>
			</g>
		</g>
		<g>
			<g>
				<path fill="#9EA3A5" d="M300.3,267.9v3.3c0,1.2-1,2.2-2.2,2.2h-57c-1.2,0-2.2-1-2.2-2.2v-3.3H300.3 M302.5,265.7h-65.8v5.5
					c0,2.4,2,4.4,4.4,4.4h57c2.4,0,4.4-2,4.4-4.4V265.7L302.5,265.7z"/>
			</g>
		</g>
		<g>
			<g>
				<path fill="#9EA3A5" d="M292.7,275.6h-46c-3,0-5.5-2.5-5.5-5.5v-2.2h2.2v2.2c0,1.8,1.5,3.3,3.3,3.3h46c1.8,0,3.3-1.5,3.3-3.3
					v-2.2h2.2v2.2C298.2,273.1,295.7,275.6,292.7,275.6z"/>
			</g>
		</g>
		<g opacity="0.25">
			<g>
				<g>
					<path fill="#9EA3A5" d="M237.6,270.1v-3.3h64.1v3.3c0,2.7-2.2,4.9-4.9,4.9h-54.3C239.8,275.1,237.6,272.8,237.6,270.1z"/>
				</g>
			</g>
		</g>
		<g opacity="0.25">
			<g>
				<g>
					<path fill="#9EA3A5" d="M237.6,270.1L237.6,270.1h64.1l0,0c0,2.7-2.2,4.9-4.9,4.9h-54.3C239.8,275.1,237.6,272.8,237.6,270.1z"
						/>
				</g>
			</g>
		</g>
		<g opacity="0.5">
			<g>
				<g>
					<path fill="#9EA3A5" d="M395.2,278.3H113.5c-7.3,0-37.8-0.4-37.8-9.9v1.6c0,9.5,30.6,13.2,37.8,13.2h281.7V278.3z"/>
				</g>
			</g>
		</g>
		<g opacity="0.25">
			<g>
				<g>
					<path fill="#9EA3A5" d="M269.7,73.9c1.2,0,2.2,1,2.2,2.2c0,1.2-1,2.2-2.2,2.2s-2.2-1-2.2-2.2C267.5,74.9,268.4,73.9,269.7,73.9
						 M269.7,72.8c-1.8,0-3.3,1.5-3.3,3.3c0,1.8,1.5,3.3,3.3,3.3s3.3-1.5,3.3-3.3C272.9,74.3,271.5,72.8,269.7,72.8L269.7,72.8z"/>
				</g>
			</g>
		</g>
		<g opacity="0.5">
			<g>
				<g>
					<path fill="#9EA3A5" d="M269.7,75c0.6,0,1.1,0.5,1.1,1.1s-0.5,1.1-1.1,1.1s-1.1-0.5-1.1-1.1S269,75,269.7,75 M269.7,73.9
						c-1.2,0-2.2,1-2.2,2.2c0,1.2,1,2.2,2.2,2.2c1.2,0,2.2-1,2.2-2.2C271.8,74.9,270.9,73.9,269.7,73.9L269.7,73.9z"/>
				</g>
			</g>
		</g>
		<g>
			<g>
				<circle fill="#9EA3A5" cx="269.7" cy="76.1" r="1.1"/>
			</g>
		</g>
		<g opacity="0.25">
			<g>
				<g>
					<polygon fill="#9EA3A5" points="395.7,267.9 115.1,267.9 112.9,263.5 395.7,263.5 					"/>
				</g>
			</g>
		</g>
		<g opacity="0.25">
			<g>
				<g>
					<rect x="301.4" y="269" fill="#9EA3A5" width="94.3" height="2.2"/>
				</g>
			</g>
		</g>
		<g opacity="0.25">
			<g>
				<g>
					<rect x="78.9" y="269" fill="#9EA3A5" width="158.9" height="2.2"/>
				</g>
			</g>
		</g>
		<g>
			<g opacity="0.75">
				<g>
					<g>
						<rect x="163.3" y="218.6" fill="#FD9838" width="61.4" height="4.4"/>
					</g>
				</g>
			</g>
			<g opacity="0.75">
				<g>
					<g>
						<rect x="163.3" y="226.3" fill="#9EA3A5" width="94.3" height="2.2"/>
					</g>
				</g>
			</g>
			<g opacity="0.75">
				<g>
					<g>
						<rect x="163.3" y="231.8" fill="#9EA3A5" width="94.3" height="2.2"/>
					</g>
				</g>
			</g>
			<g opacity="0.75">
				<g>
					<g>
						<rect x="163.3" y="237.2" fill="#9EA3A5" width="50.4" height="2.2"/>
					</g>
				</g>
			</g>
		</g>
		<g>
			<g>
				<g>
					<path fill="#9EA3A5" d="M286.1,139.7c1.8,0,3.3,1.5,3.3,3.3c0,1.8-1.5,3.3-3.3,3.3c-1.8,0-3.3-1.5-3.3-3.3
						C282.8,141.2,284.3,139.7,286.1,139.7 M286.1,138.6c-2.4,0-4.4,2-4.4,4.4c0,2.4,2,4.4,4.4,4.4c2.4,0,4.4-2,4.4-4.4
						C290.5,140.6,288.5,138.6,286.1,138.6L286.1,138.6z"/>
				</g>
			</g>
			<g opacity="0.75">
				<g>
					<g>
						<rect x="297.1" y="139.7" fill="#FD9838" width="72.3" height="4.4"/>
					</g>
				</g>
			</g>
			<g opacity="0.75">
				<g>
					<g>
						<rect x="297.1" y="147.4" fill="#9EA3A5" width="94.3" height="2.2"/>
					</g>
				</g>
			</g>
			<g opacity="0.75">
				<g>
					<g>
						<rect x="297.1" y="152.8" fill="#9EA3A5" width="94.3" height="2.2"/>
					</g>
				</g>
			</g>
			<g opacity="0.75">
				<g>
					<g>
						<rect x="297.1" y="158.3" fill="#9EA3A5" width="61.4" height="2.2"/>
					</g>
				</g>
			</g>
		</g>
		<g>
			<g>
				<g>
					<path fill="#9EA3A5" d="M286.1,179.1c1.8,0,3.3,1.5,3.3,3.3s-1.5,3.3-3.3,3.3c-1.8,0-3.3-1.5-3.3-3.3S284.3,179.1,286.1,179.1
						 M286.1,178c-2.4,0-4.4,2-4.4,4.4c0,2.4,2,4.4,4.4,4.4c2.4,0,4.4-2,4.4-4.4C290.5,180,288.5,178,286.1,178L286.1,178z"/>
				</g>
			</g>
			<g opacity="0.75">
				<g>
					<g>
						<rect x="297.1" y="179.1" fill="#FD9838" width="72.3" height="4.4"/>
					</g>
				</g>
			</g>
			<g opacity="0.75">
				<g>
					<g>
						<rect x="297.1" y="186.8" fill="#9EA3A5" width="94.3" height="2.2"/>
					</g>
				</g>
			</g>
			<g opacity="0.75">
				<g>
					<g>
						<rect x="297.1" y="192.3" fill="#9EA3A5" width="94.3" height="2.2"/>
					</g>
				</g>
			</g>
			<g opacity="0.75">
				<g>
					<g>
						<rect x="297.1" y="197.8" fill="#9EA3A5" width="61.4" height="2.2"/>
					</g>
				</g>
			</g>
		</g>
		<g>
			<g>
				<g>
					<path fill="#9EA3A5" d="M286.1,218.6c1.8,0,3.3,1.5,3.3,3.3c0,1.8-1.5,3.3-3.3,3.3c-1.8,0-3.3-1.5-3.3-3.3
						C282.8,220.1,284.3,218.6,286.1,218.6 M286.1,217.5c-2.4,0-4.4,2-4.4,4.4c0,2.4,2,4.4,4.4,4.4c2.4,0,4.4-2,4.4-4.4
						C290.5,219.5,288.5,217.5,286.1,217.5L286.1,217.5z"/>
				</g>
			</g>
			<g opacity="0.75">
				<g>
					<g>
						<rect x="297.1" y="218.6" fill="#FD9838" width="72.3" height="4.4"/>
					</g>
				</g>
			</g>
			<g opacity="0.75">
				<g>
					<g>
						<rect x="297.1" y="226.3" fill="#9EA3A5" width="94.3" height="2.2"/>
					</g>
				</g>
			</g>
			<g opacity="0.75">
				<g>
					<g>
						<rect x="297.1" y="231.8" fill="#9EA3A5" width="94.3" height="2.2"/>
					</g>
				</g>
			</g>
			<g opacity="0.75">
				<g>
					<g>
						<rect x="297.1" y="237.2" fill="#9EA3A5" width="61.4" height="2.2"/>
					</g>
				</g>
			</g>
		</g>
		<g>
			<g>
				<g>
					<path fill="#50B8E7" d="M224.8,95.8c0,0.4,0.1,0.7,0.2,1.1h149.3c-0.1-0.4-0.1-0.7-0.2-1.1H224.8z"/>
				</g>
			</g>
		</g>
	</g>
	<g>
		<g opacity="0.5">
			<g>
				<g>
					<rect x="413.2" y="122.1" fill="#50B8E7" width="120.6" height="27.4"/>
				</g>
			</g>
		</g>
		<g opacity="0.25">
			<g>
				<g>
					<rect x="413.2" y="110.1" fill="#50B8E7" width="120.6" height="11"/>
				</g>
			</g>
		</g>
		<g>
			<g>
				<rect x="412.7" y="121" fill="#50B8E7" width="121.7" height="1.1"/>
			</g>
		</g>
		<g>
			<g>
				<rect x="412.7" y="149.5" fill="#50B8E7" width="121.7" height="1.1"/>
			</g>
		</g>
		<g opacity="0.25">
			<g>
				<path fill="#9EA3A5" d="M542.6,90.4H417.5c0.1,0.7,0.1,1.5,0.1,2.2l0,0h125c3.6,0,6.6,3,6.6,6.6v186.3c0,3.6-3,6.6-6.6,6.6
					H404.5c-3.6,0-6.6-3-6.6-6.6V114.4c-0.7,0.1-1.5,0.1-2.2,0.1v171c0,4.8,3.9,8.8,8.8,8.8h138.1c4.8,0,8.8-3.9,8.8-8.8V99.1
					C551.4,94.3,547.4,90.4,542.6,90.4z"/>
			</g>
		</g>
		<g opacity="0.25">
			<g>
				<g>
					<path fill="#9EA3A5" d="M533.8,276.7H413.2c-1.2,0-2.2-1-2.2-2.2V110.1c0-1.2,1-2.2,2.2-2.2h120.6c1.2,0,2.2,1,2.2,2.2v164.4
						C536,275.7,535,276.7,533.8,276.7z M413.2,110.1v164.4h120.6l0-164.4H413.2z"/>
				</g>
			</g>
		</g>
		<g>
			<g>
				<path fill="#9EA3A5" d="M533.8,110.1v164.4H413.2V110.1H533.8 M533.8,109H413.2c-0.6,0-1.1,0.5-1.1,1.1v164.4
					c0,0.6,0.5,1.1,1.1,1.1h120.6c0.6,0,1.1-0.5,1.1-1.1V110.1C534.9,109.5,534.4,109,533.8,109L533.8,109z"/>
			</g>
		</g>
		<g opacity="0.25">
			<g>
				<g>
					<path fill="#9EA3A5" d="M473.5,98c1.2,0,2.2,1,2.2,2.2c0,1.2-1,2.2-2.2,2.2c-1.2,0-2.2-1-2.2-2.2C471.3,99,472.3,98,473.5,98
						 M473.5,96.9c-1.8,0-3.3,1.5-3.3,3.3s1.5,3.3,3.3,3.3s3.3-1.5,3.3-3.3S475.4,96.9,473.5,96.9L473.5,96.9z"/>
				</g>
			</g>
		</g>
		<g opacity="0.5">
			<g>
				<g>
					<path fill="#9EA3A5" d="M473.5,99.1c0.6,0,1.1,0.5,1.1,1.1s-0.5,1.1-1.1,1.1s-1.1-0.5-1.1-1.1S472.9,99.1,473.5,99.1 M473.5,98
						c-1.2,0-2.2,1-2.2,2.2c0,1.2,1,2.2,2.2,2.2c1.2,0,2.2-1,2.2-2.2C475.7,99,474.7,98,473.5,98L473.5,98z"/>
				</g>
			</g>
		</g>
		<g>
			<g>
				<circle fill="#9EA3A5" cx="473.5" cy="100.2" r="1.1"/>
			</g>
		</g>
		<g opacity="0.25">
			<g>
				<g>
					<path fill="#9EA3A5" d="M473.5,281.1c2.4,0,4.4,2,4.4,4.4c0,2.4-2,4.4-4.4,4.4c-2.4,0-4.4-2-4.4-4.4
						C469.2,283,471.1,281.1,473.5,281.1 M473.5,280c-3,0-5.5,2.5-5.5,5.5c0,3,2.5,5.5,5.5,5.5c3,0,5.5-2.5,5.5-5.5
						C479,282.4,476.6,280,473.5,280L473.5,280z"/>
				</g>
			</g>
		</g>
		<g>
			<g>
				<path fill="#9EA3A5" d="M473.5,280c2.4,0,4.4,2,4.4,4.4s-2,4.4-4.4,4.4c-2.4,0-4.4-2-4.4-4.4S471.1,280,473.5,280 M473.5,278.9
					c-3,0-5.5,2.5-5.5,5.5s2.5,5.5,5.5,5.5c3,0,5.5-2.5,5.5-5.5S476.6,278.9,473.5,278.9L473.5,278.9z"/>
			</g>
		</g>
		<g>
			<g>
				<path fill="#FFFFFF" d="M447,136.5c0,0.7-0.1,1.3-0.3,1.8c-0.2,0.6-0.5,1.1-0.9,1.5l1.8,1.8l-1.4,1.2l-2-1.9
					c-0.3,0.1-0.5,0.2-0.8,0.2c-0.3,0.1-0.6,0.1-0.9,0.1c-1.3,0-2.4-0.4-3.3-1.3c-0.8-0.9-1.3-2-1.3-3.3v-2c0-1.3,0.4-2.4,1.3-3.3
					c0.8-0.9,1.9-1.3,3.3-1.3c1.4,0,2.5,0.4,3.3,1.3c0.8,0.9,1.3,2,1.3,3.3V136.5z M444.8,134.6c0-0.8-0.2-1.5-0.6-2.1
					c-0.4-0.5-1-0.8-1.8-0.8c-0.7,0-1.3,0.3-1.7,0.8c-0.4,0.5-0.6,1.2-0.6,2.1v2c0,0.9,0.2,1.6,0.6,2.1c0.4,0.5,1,0.8,1.7,0.8
					c0.7,0,1.3-0.3,1.8-0.8c0.4-0.5,0.6-1.3,0.6-2.1V134.6z"/>
			</g>
			<g>
				<path fill="#FFFFFF" d="M451.1,136.6v4.4h-2.2v-10.9h4.1c1.2,0,2.2,0.3,2.9,0.9c0.7,0.6,1.1,1.4,1.1,2.4c0,0.6-0.1,1-0.4,1.5
					s-0.7,0.7-1.3,1c0.6,0.2,1.1,0.5,1.4,1c0.3,0.4,0.4,1,0.4,1.6v0.8c0,0.3,0,0.6,0.1,1c0.1,0.3,0.2,0.6,0.4,0.7v0.2h-2.3
					c-0.2-0.2-0.3-0.4-0.4-0.8c-0.1-0.4-0.1-0.7-0.1-1.1v-0.8c0-0.5-0.1-1-0.4-1.3c-0.3-0.3-0.7-0.5-1.3-0.5H451.1z M451.1,135h1.9
					c0.6,0,1.1-0.1,1.4-0.4c0.3-0.3,0.5-0.6,0.5-1.2c0-0.5-0.2-0.9-0.5-1.2c-0.3-0.3-0.7-0.4-1.3-0.4h-1.9V135z"/>
			</g>
			<g>
				<path fill="#FFFFFF" d="M473.4,136.2h-4.5v3.1h5.3v1.7h-7.5v-10.9h7.5v1.7h-5.3v2.7h4.5V136.2z"/>
			</g>
			<g>
				<path fill="#FFFFFF" d="M475.5,141v-10.9h3.7c1.3,0,2.3,0.3,3,0.7c0.7,0.5,1.1,1.2,1.1,2.2c0,0.5-0.1,1-0.4,1.4
					c-0.3,0.4-0.7,0.7-1.2,0.9c0.7,0.1,1.1,0.4,1.5,0.9c0.3,0.5,0.5,1,0.5,1.6c0,1-0.3,1.8-1,2.4c-0.7,0.5-1.7,0.8-2.9,0.8H475.5z
					 M477.7,134.7h1.6c0.6,0,1-0.1,1.3-0.4c0.3-0.2,0.5-0.6,0.5-1c0-0.5-0.2-0.9-0.5-1.1c-0.3-0.2-0.8-0.4-1.4-0.4h-1.5V134.7z
					 M477.7,136.2v3.1h2c0.6,0,1-0.1,1.3-0.4c0.3-0.3,0.5-0.6,0.5-1.1c0-0.5-0.1-0.9-0.4-1.2c-0.3-0.3-0.7-0.4-1.2-0.4H477.7z"/>
			</g>
			<g>
				<path fill="#FFFFFF" d="M484.9,136.9c0-1.2,0.3-2.2,1-3c0.7-0.8,1.6-1.2,2.8-1.2c1.2,0,2.1,0.4,2.8,1.2c0.7,0.8,1,1.8,1,3v0.2
					c0,1.2-0.3,2.2-1,3c-0.7,0.8-1.6,1.1-2.8,1.1c-1.2,0-2.1-0.4-2.8-1.1c-0.7-0.8-1-1.8-1-3V136.9z M487,137c0,0.7,0.1,1.3,0.4,1.8
					c0.3,0.4,0.7,0.7,1.3,0.7c0.6,0,1-0.2,1.2-0.7c0.3-0.4,0.4-1,0.4-1.8v-0.2c0-0.7-0.1-1.3-0.4-1.8c-0.3-0.5-0.7-0.7-1.3-0.7
					c-0.6,0-1,0.2-1.2,0.7c-0.3,0.5-0.4,1-0.4,1.8V137z"/>
			</g>
			<g>
				<path fill="#FFFFFF" d="M493.5,136.9c0-1.2,0.3-2.2,1-3c0.7-0.8,1.6-1.2,2.8-1.2c1.2,0,2.1,0.4,2.8,1.2c0.7,0.8,1,1.8,1,3v0.2
					c0,1.2-0.3,2.2-1,3c-0.7,0.8-1.6,1.1-2.8,1.1c-1.2,0-2.1-0.4-2.8-1.1c-0.7-0.8-1-1.8-1-3V136.9z M495.7,137
					c0,0.7,0.1,1.3,0.4,1.8s0.7,0.7,1.3,0.7c0.6,0,1-0.2,1.2-0.7c0.3-0.4,0.4-1,0.4-1.8v-0.2c0-0.7-0.1-1.3-0.4-1.8
					c-0.3-0.5-0.7-0.7-1.3-0.7c-0.6,0-1,0.2-1.2,0.7c-0.3,0.5-0.4,1-0.4,1.8V137z"/>
			</g>
			<g>
				<path fill="#FFFFFF" d="M505.3,137.6h-0.6v3.4h-2.2v-11.7h2.2v6.6h0.5l1.9-3h2.5l-2.6,3.7l3,4.4h-2.5L505.3,137.6z"/>
			</g>
		</g>
		<path fill="#9EA3A5" d="M542.6,89.3h-114v-6.6c0-9.7-7.9-17.5-17.5-17.5H216c0.3,0.7,0.6,1.5,1,2.2h194.1
			c8.5,0,15.3,6.9,15.3,15.3v6.6h-9c0.1,0.7,0.2,1.5,0.2,2.2h125c4.2,0,7.7,3.4,7.7,7.7v186.3c0,4.2-3.4,7.7-7.7,7.7H404.5
			c-4.2,0-7.7-3.4-7.7-7.7V114.4c-0.4,0-0.7,0.1-1.1,0.1c-0.4,0-0.7,0-1.1-0.1v151.3H115.7c-1.7-2.5-2.8-5.5-2.8-8.8v-14.3
			c-0.4,0-0.7,0.1-1.1,0.1c-0.4,0-0.7,0-1.1-0.1V257c0,3.2,0.9,6.2,2.4,8.8H76.7c-1.2,0-2.2,1-2.2,2.2v2.2
			c0,11.2,34.8,14.2,39.5,14.2h280.6v1.1c0,5.4,4.4,9.9,9.9,9.9h138.1c5.4,0,9.9-4.4,9.9-9.9V99.1C552.5,93.7,548,89.3,542.6,89.3z
			 M114,282.2c-9.3,0-37.3-4.3-37.3-12.1v-2.2h317.9v14.2H114z"/>
	</g>
	<g>
		<g opacity="0.25">
			<g>
				<path fill="#50B8E7" d="M111.6,10.7c-3.1,0.5-6.4,1.3-9.2,3.3c-1.4,1-2.6,2.1-3.6,3.4c-1,1.3-1.9,2.6-2.8,3.9l-2.5,4
					c-0.8,1.3-1.6,2.6-2.5,3.9c-0.8,1.3-1.5,1.9-3,2.1c-1.8,0.3-3.3,1.2-4.6,2.3c-1.3,1.1-2.4,2.4-3.3,3.8c-0.9,1.4-1.7,2.8-2.3,4.3
					c-1.3,3-2.2,6.1-2.8,9.2c-0.6,3.1-0.9,6.3-0.9,9.6l0,0.1l0,0.1c0.4,3.8,0.6,7.6,0.8,11.4c0.1,1.9,0.2,3.8,0.2,5.7
					c0.1,1.9,0,3.8,0.1,5.8c0.1,2,0.3,3.9,0.6,5.9c0.3,1.9,0.8,3.8,1.3,5.7c0.6,1.9,1.2,3.7,2,5.5c0.4,0.9,0.8,1.8,1.2,2.7
					c0.2,0.4,0.4,0.9,0.7,1.3c0.2,0.4,0.6,1,0.9,1.3c2.3,3.1,4.6,6.1,6.9,9.2c0,0,0.1,0.1,0.1,0.1c2.6,11.1,2.3,22.2,1.4,28.9
					c-0.1,0-0.1,0-0.2,0c-0.1,0-0.2,0-0.4,0.1c-0.2,0-0.4,0.1-0.6,0.2c-0.4,0.1-0.9,0.3-1.3,0.6c-0.4,0.3-0.9,0.5-1.3,0.9
					c-0.2,0.2-0.5,0.4-0.7,0.6c-0.2,0.2-0.4,0.4-0.7,0.7c-0.9,0.9-1.8,2.1-2.6,3.3c-0.8,1.3-1.7,2.7-2.4,4.3
					c-0.8,1.5-1.6,3.2-2.3,4.9c-1.5,3.5-2.9,7.2-4.3,11c-2.7,7.5-5.2,15.1-7.4,20.7c-1.1,2.8-2.2,5-3.1,6.5c-0.4,0.6-0.7,1-0.9,1.4
					c-2.3,0.8-3.7,4.1-4,4.1c2.7-7.5,7.4-30,8.4-34.9c2-9.8,3.5-21.5,4.2-34c0.3-6.3,0.5-12.7,0.6-19.3c0.1-6.6,0-13.3,0-19.9
					c0.1-6.7-0.1-13.4-1-20c-0.4-3.3-1-6.5-1.3-9.6c-0.2-1.6-0.1-3-0.1-4.7c0.1-1.6,0.2-3.1,0.3-4.6c0.7-6.1,2.1-11.9,4.2-17.1
					c2.1-5.2,4.7-9.9,7.8-13.7c3-3.9,6.3-6.9,9.6-9.1c3.2-2.3,6.4-3.6,9.1-4.5c2.7-0.8,4.9-1.1,6.4-1.3c1.5-0.1,2.3-0.1,2.3-0.1
					c1.7,0,3.4,0.1,5,0.2C112.9,10.6,112.3,10.7,111.6,10.7z"/>
			</g>
		</g>
		<g opacity="0.5">
			<g>
				<path fill="#50B8E7" d="M85.5,163.8h-2.2c0-10.1,3.4-12.1,6.1-13.7c1.4-0.8,2.3-1.4,2.7-3c1.2-6.4,2-16.6-1.1-29.1l2.1-0.5
					c3.2,12.9,2.4,23.5,1.1,30.1c-0.5,2.6-2.2,3.6-3.7,4.5C88.2,153.4,85.5,155,85.5,163.8z"/>
			</g>
		</g>
		<g opacity="0.5">
			<g>
				<g>
					<path fill="#50B8E7" d="M86.6,145.9c0,0,0.2-1,0.5-2.9c0.3-1.8,0.6-4.4,0.9-7.5c0.2-3.1,0.3-6.7,0-10.6c-0.1-1.9-0.4-3.7-1-5.5
						c-0.6-1.8-1.4-3.5-2.5-5.1c-0.1-0.2-0.3-0.4-0.4-0.6l-0.5-0.6c-0.3-0.4-0.6-0.8-1-1.3c-0.7-1-1.2-1.9-1.7-2.9c-1-2-1.8-4-2.4-6
						c-0.6-2-1-4-1.4-5.8c-0.4-1.8-0.6-3.6-0.8-5.2c-0.2-1.6-0.3-3.1-0.5-4.4c-0.1-1.3-0.2-2.5-0.2-3.4c-0.1-1.9-0.1-3-0.1-3h2.2
						c0,0,0,1.1,0,2.9c0,0.9,0.1,2.1,0.1,3.3c0.1,1.3,0.2,2.7,0.5,4.3c0.2,1.6,0.6,3.2,1,5c0.5,1.7,1.1,3.5,1.9,5.3
						c0.8,1.7,1.9,3.5,3,5.1c1.2,1.7,2.4,3,3.9,4.8c1.4,1.9,2.6,4,3.4,6.2c0.8,2.2,1.2,4.5,1.4,6.6c0.4,4.2,0.3,8.1,0,11.4
						c-0.3,3.3-0.8,6-1.1,7.9c-0.4,1.9-0.6,2.9-0.6,2.9L86.6,145.9z"/>
				</g>
			</g>
		</g>
		<g opacity="0.25">
			<g>
				<path fill="#50B8E7" d="M158.9,146.3L158.9,146.3c-0.4,0-0.7,0-1.1,0.1c-0.4,0.1-0.9,0.1-1.3,0.2c-0.8,0.2-1.6,0.5-2.3,0.8
					c-1.5,0.7-2.8,1.7-3.9,2.7c-2.3,2.1-4.1,4.6-5.7,7.2c-3.1,5.2-5.4,11.9-7.3,17.6c-2,5.7-3.6,11.4-5,17.2c-1,4.3-2,10.8-2.8,15.1
					c-0.9-7.8-1.7-19-2.5-26.8c-0.4-4.7-0.9-9.4-1.2-14.1c-0.2-2.4-0.3-4.7-0.4-7.1c-0.1-2.4-0.2-4.7,0.1-7c0.2-1.2,0.3-2.3,0.6-3.5
					c0.2-1.2,0.5-2.3,0.7-3.5c0.5-2.3,1.1-4.6,1.6-6.9c1.1-4.6,2.4-9.2,3.6-13.7l1.8-6.9c0.6-2.3,1.2-4.6,1.7-6.9
					c0.6-2.3,1.1-4.6,1.6-6.9c0.1-0.3,0.1-0.6,0.2-0.9c3.1-7.6,4-14.9,4.1-18.2c0.1-7.9-0.2-19-4.7-26.6c0.2-0.2,0.3-0.5,0.4-0.8
					c0-0.6-0.5-1.1-1.1-1.1c0,0-0.3,0-0.7,0c-0.5,0-1.2,0-2.1-0.1c-0.9,0-1.9-0.1-3.2-0.2c-1.2-0.1-2.6-0.2-4.1-0.5
					c-1.5-0.2-3.1-0.5-4.8-0.9c-1.7-0.4-3.5-0.8-5.2-1.4c-3.6-1.1-7.3-2.8-10.5-5c-3.3-2.2-6.1-5.1-7.9-8.3
					c-1.8-3.2-2.6-6.6-2.6-9.5l0-0.5c0-0.2,0-0.4,0-0.5c0-0.3,0.1-0.6,0.1-0.9c0.1-0.6,0.3-1.2,0.5-1.8c0.1-0.3,0.2-0.6,0.3-0.9
					l2.1-3.5c1.6-2.6,3.3-5.1,5.7-6.9c2.4-1.8,5.3-2.7,8.3-3.2c2.7-0.5,5.5-0.7,8.2-0.8c8.6,1.8,15.7,5.6,21.2,11.6
					c5.9,6.3,7.7,12.7,7.8,12.8l1-0.3l-1,0.3c2.7,8.4,4,18.2,4.7,28.6h-2.4l-4.6,25.3c0,5.2,4.2,3.8,6.9,1.2
					c0.3-0.3,0.6-0.6,0.9-0.8c0,1.8,0,3.6,0,5.5c0.1,20.3,0.2,39.5,5.2,50.9c-0.2,0-0.4-0.1-0.6-0.1
					C159.1,146.3,159,146.3,158.9,146.3z"/>
			</g>
		</g>
		<g opacity="0.5">
			<g>
				<g>
					<path fill="#50B8E7" d="M122.8,154.1l-2.2-0.4c0.2-0.8,0.3-1.8,0.5-2.8c1.4-7,4.6-16.4,0.3-21.6c-1.8-2.2-9-2.2-13-2.2l3.3-2.2
						c7.7,0.5,23.1-18.2,23.6-14.7c0.8,6.7-7.8,35.1-11,41.1C123.9,152.3,122.9,153.3,122.8,154.1z"/>
				</g>
			</g>
		</g>
		<g opacity="0.9">
			<g>
				<path fill="#50B8E7" d="M88.8,68.4c1.8,0,3.3,0.4,3.3,2.2s-1.5,3.3-3.3,3.3c-1.8,0-3.3-1.5-3.3-3.3S87,68.4,88.8,68.4z"/>
			</g>
		</g>
		<g opacity="0.9">
			<g>
				<path fill="#50B8E7" d="M121.7,68.4c1.8,0,3.3,0.4,3.3,2.2s-1.5,3.3-3.3,3.3c-1.8,0-3.3-1.5-3.3-3.3S119.9,68.4,121.7,68.4z"/>
			</g>
		</g>
		<g opacity="0.5">
			<g>
				<g>
					<path fill="#50B8E7" d="M158.6,142.7c-0.2-0.7-0.4-1.5-0.7-2.3c-0.2-0.9-0.4-1.8-0.6-2.8c-0.4-2-0.8-4.3-1-6.9
						c-0.6-5.1-0.7-11.2-0.7-17.7c0-6.5,0.2-13.5,0.4-20.6c0-1,0-2,0.1-2.9c-1,0.9-2.1,1.5-3.3,1.8c0,0.3,0,0.7,0,1
						c-0.3,7-0.6,14-0.8,20.6c-0.1,6.6-0.1,12.8,0.4,18.2c0.2,2.7,0.6,5.1,0.9,7.3c0.2,1.1,0.4,2.1,0.6,3.1c0.3,0.9,0.5,1.8,0.7,2.6
						c0.5,1.5,1,2.8,1.4,3.6c0.4,0.8,0.6,1.2,0.6,1.2l3.9-2.1c0,0-0.2-0.4-0.5-1C159.5,145.1,159.1,144,158.6,142.7z"/>
				</g>
				<g>
					<path fill="#50B8E7" d="M150.3,41.6c0.4,1.4,0.7,3.3,1.1,5.3c0.2,1,0.3,2.2,0.5,3.3c0.1,1.2,0.3,2.4,0.4,3.7
						c0.1,1.3,0.2,2.7,0.3,4.1c0.1,1.4,0.2,2.9,0.2,4.3c0,0.7,0.1,1.5,0.1,2.2c0.4-0.1,0.8-0.1,1.2-0.1c0.5,0,1.1,0,1.6,0.1
						c0-0.8-0.1-1.6-0.1-2.4c-0.1-1.5-0.2-3-0.3-4.4c-0.1-1.4-0.3-2.8-0.4-4.1c-0.2-1.3-0.3-2.6-0.5-3.8c-0.2-1.2-0.4-2.3-0.6-3.4
						c-0.4-2.1-0.8-4-1.2-5.5c-0.4-1.5-0.7-2.7-1-3.5c-0.2-0.8-0.4-1.2-0.4-1.2l-2.1,0.6c0,0,0.1,0.4,0.3,1.2
						C149.7,39,150,40.1,150.3,41.6z"/>
				</g>
			</g>
		</g>
		<g>
			<g>
				<path fill="#50B8E7" d="M156.1,65.2c-0.7-10.8-2.1-21.1-4.8-29.9l-2.1,0.7c2.7,8.7,4.1,18.8,4.8,29.5
					C154.6,65.2,155.3,65.1,156.1,65.2z"/>
			</g>
			<g>
				<path fill="#50B8E7" d="M156.8,88.6c-0.2,0.1-0.4,0.3-0.7,0.4c-0.5,0.2-1,0.4-1.5,0.6c0,2,0,4,0,6c0.1,21.5,0.2,41.7,6.1,52.7
					l1.9-1c-5.6-10.5-5.7-30.6-5.8-51.7C156.8,93.3,156.8,90.9,156.8,88.6z"/>
			</g>
		</g>
		<g>
			<g>
				<path fill="#50B8E7" d="M149.3,94.4c-0.4,0-0.9-0.1-1.3-0.3c-1-0.4-2.2-1.5-2.2-4.4h2.2c0,0.7,0.1,2.1,0.8,2.3
					c0.9,0.4,2.7-0.5,4.2-2l0.7-0.7c3.4-3.4,6.9-6.8,6.9-11.2c0-7.2-3-12.6-5.8-12.6h-3.4v-2.2h3.4c4.9,0,7.9,7.7,7.9,14.8
					c0,5.3-3.8,9.1-7.5,12.8l-0.7,0.7C153.2,93.1,151.1,94.4,149.3,94.4z"/>
			</g>
		</g>
		<g>
			<g>
				<path fill="#50B8E7" d="M69.2,83.5c-2.1-2.3-4.5-5.5-4.5-9.7c0-3.6,0.8-7.2,2.1-10l2,1c-1.2,2.5-1.9,5.8-1.9,9
					c0,2.7,1.2,5.1,4,8.2L69.2,83.5z"/>
			</g>
		</g>
		<g opacity="0.5">
			<g>
				<path fill="#50B8E7" d="M70,82.8c-2.4-2.6-4.2-5.5-4.2-8.9c0-3.6,0.8-7,2-9.5"/>
			</g>
		</g>
		<g opacity="0.5">
			<g>
				<path fill="#50B8E7" d="M146.9,89.8c0,5.2,4.2,3.8,6.9,1.2c3.7-3.7,7.9-7.5,7.9-12.7c0-7.2-3.1-13.7-6.9-13.7h-3.4"/>
			</g>
		</g>
		<g>
			<g opacity="0.5">
				<g>
					<path fill="#50B8E7" d="M155.8,64.7c-0.3-0.1-0.6-0.2-1-0.2h-3.4l-4.6,25.3c0,3.7,2.1,4.1,4.3,3c-0.6-0.5-1-1.5-1-3
						C150.6,80.9,153.4,72.6,155.8,64.7z"/>
				</g>
			</g>
		</g>
		<g>
			<g>
				<path fill="#50B8E7" d="M149.1,35.8c0-0.1-1.9-6.5-7.8-12.8c-7.9-8.4-18.9-12.7-32.8-12.7V8.1c18.1,0,28.8,7.3,34.5,13.5
					c6.2,6.7,8.1,13.3,8.2,13.6L149.1,35.8z"/>
			</g>
		</g>
		<g>
			<g>
				<path fill="#50B8E7" d="M135.9,58.6c0,0-0.3,0-0.7,0c-0.5,0-1.2,0-2.1,0c-0.9,0-2-0.1-3.3-0.2c-1.3-0.1-2.7-0.2-4.2-0.4
					c-3.1-0.4-6.7-1.1-10.5-2.3c-3.7-1.2-7.7-2.9-11.1-5.3c-3.5-2.4-6.5-5.6-8.5-9.2c-2-3.5-2.8-7.4-2.8-10.6c0-0.2,0-0.4,0-0.6
					c0-0.2,0-0.3,0-0.6c0.1-0.5,0.1-0.8,0.2-1.2c0.2-0.7,0.4-1.4,0.7-2c0.5-1.2,1.1-2.2,1.6-3c0.5-0.8,1-1.3,1.4-1.7
					c0.4-0.4,0.6-0.5,0.6-0.5c0.2-0.2,0.6-0.1,0.8,0.1c0.2,0.2,0.1,0.5,0,0.7c0,0-0.1,0.2-0.4,0.6c-0.3,0.4-0.6,1-1,1.7
					c-0.4,0.8-0.8,1.7-1.1,2.9c-0.2,0.6-0.3,1.2-0.5,1.8c-0.1,0.3-0.1,0.6-0.1,0.9c0,0.1,0,0.3,0,0.5l0,0.5c0,2.9,0.8,6.3,2.6,9.5
					c1.8,3.2,4.6,6.1,7.9,8.3c3.3,2.3,6.9,3.9,10.5,5c1.8,0.6,3.6,1,5.2,1.4c1.7,0.3,3.3,0.7,4.8,0.9c1.5,0.2,2.9,0.4,4.1,0.5
					c1.2,0.1,2.3,0.2,3.2,0.2c0.9,0,1.6,0,2.1,0.1c0.5,0,0.7,0,0.7,0c0.6,0,1.1,0.5,1.1,1.1C137,58.1,136.5,58.6,135.9,58.6z"/>
			</g>
		</g>
		<g opacity="0.25">
			<g>
				<path fill="#50B8E7" d="M76.4,85.2c-0.6,0-1.1-0.5-1.1-1.1V62.8c0-13.5,4.6-27.9,13.3-29.3c0.9-0.1,1.7-0.7,2.3-1.5
					c0.3-0.5,1-0.6,1.5-0.3c0.5,0.3,0.6,1,0.3,1.5c-0.9,1.3-2.3,2.2-3.8,2.5c-7.4,1.1-11.4,14.8-11.4,27.1v21.4
					C77.5,84.7,77,85.2,76.4,85.2z"/>
			</g>
		</g>
		<g opacity="0.45">
			<g>
				<g>
					<path fill="#50B8E7" d="M117.9,122c-1.7,1-3.5,1.9-5.3,2.6c-1.8,0.7-3.7,1.4-5.8,1.6c-1,0.2-2.1,0.1-3,0.1c-1,0-2-0.1-3.1-0.3
						c-1-0.2-2.1-0.6-3.1-1.2c-0.9-0.6-1.6-1.3-2.3-1.9c-0.8-0.7-1.5-1.5-2.1-2.2c-0.6-0.7-1.3-1.5-1.9-2.2c-1.2-1.5-2.4-3-3.6-4.5
						c-2.3-3-4.6-6.1-6.9-9.2c-0.3-0.3-0.6-0.9-0.9-1.3c-0.2-0.4-0.5-0.9-0.7-1.3c-0.4-0.9-0.8-1.8-1.2-2.7c-0.8-1.8-1.4-3.6-2-5.5
						c-0.5-1.9-1-3.8-1.3-5.7c-0.3-1.9-0.6-3.9-0.6-5.9c-0.1-2,0-3.8-0.1-5.8c0-1.9-0.1-3.8-0.2-5.7c-0.2-3.8-0.5-7.6-0.8-11.4
						l0-0.1v-0.1c0-3.2,0.3-6.4,0.9-9.5c0.6-3.1,1.5-6.2,2.8-9.1c0.6-1.5,1.4-2.9,2.3-4.3c0.9-1.4,1.9-2.7,3.2-3.8
						c1.3-1.1,2.8-2,4.5-2.4c0.4-0.1,0.9-0.2,1.1-0.2c0.3-0.1,0.5-0.2,0.8-0.3c0.5-0.3,0.9-0.7,1.3-1.3c0.9-1.3,1.7-2.6,2.5-3.9
						l2.5-4c0.9-1.3,1.8-2.6,2.8-3.9c1-1.2,2.3-2.4,3.7-3.2c2.8-1.8,6.1-2.5,9.2-2.9c3.2-0.4,6.3-0.4,9.4-0.3c0.3,0,0.5,0.3,0.5,0.6
						c0,0.3-0.2,0.5-0.5,0.5l0,0c-3.1,0.1-6.2,0.3-9.2,0.8c-3,0.5-6,1.3-8.4,2.9c-2.4,1.6-4.2,4-5.8,6.6l-2.4,4
						c-0.8,1.3-1.6,2.7-2.5,4c-0.4,0.7-1.1,1.5-1.9,2c-0.4,0.3-0.9,0.5-1.3,0.6c-0.6,0.2-0.9,0.2-1.2,0.3c-1.3,0.3-2.5,1-3.6,2
						c-1.1,0.9-2,2.1-2.8,3.3c-0.8,1.2-1.5,2.6-2.1,4c-1.2,2.8-2,5.7-2.6,8.7c-0.6,3-0.9,6-0.9,9.1l0-0.1c0.4,3.8,0.6,7.7,0.8,11.5
						c0.1,1.9,0.2,3.8,0.2,5.8c0.1,1.9,0,3.9,0.1,5.7c0.1,1.9,0.3,3.7,0.6,5.5c0.3,1.8,0.8,3.6,1.3,5.4c0.5,1.8,1.2,3.5,1.9,5.3
						c0.4,0.9,0.8,1.7,1.2,2.5c0.2,0.4,0.4,0.8,0.6,1.2c0.2,0.4,0.3,0.6,0.7,1.1c2.3,3.1,4.6,6.1,6.9,9.1c1.2,1.5,2.3,3,3.5,4.5
						c0.6,0.7,1.2,1.5,1.8,2.2c0.6,0.7,1.2,1.3,1.9,2c0.7,0.6,1.4,1.3,2.1,1.7c0.7,0.4,1.4,0.7,2.2,0.9c0.8,0.2,1.8,0.2,2.6,0.3
						c1,0,1.8,0,2.7-0.1c1.8-0.2,3.5-0.8,5.2-1.4c1.7-0.7,3.4-1.5,5-2.4l0,0c0.5-0.3,1.2-0.1,1.5,0.4
						C118.5,121,118.4,121.7,117.9,122z"/>
				</g>
			</g>
		</g>
		<g>
			<g>
				<path fill="#50B8E7" d="M119,123.1c-1.7,1-3.5,1.9-5.3,2.6c-1.8,0.7-3.7,1.4-5.8,1.6c-1,0.2-2.1,0.1-3,0.1c-1,0-2-0.1-3.1-0.3
					c-1-0.2-2.1-0.6-3.1-1.2c-0.9-0.6-1.6-1.3-2.3-1.9c-0.8-0.7-1.5-1.5-2.1-2.2c-0.6-0.7-1.3-1.5-1.9-2.2c-1.2-1.5-2.4-3-3.6-4.5
					c-2.3-3-4.6-6.1-6.9-9.2c-0.3-0.3-0.6-0.9-0.9-1.3c-0.2-0.4-0.5-0.9-0.7-1.3c-0.4-0.9-0.8-1.8-1.2-2.7c-0.8-1.8-1.4-3.6-2-5.5
					c-0.5-1.9-1-3.8-1.3-5.7c-0.3-1.9-0.6-3.9-0.6-5.9c-0.1-2,0-3.8-0.1-5.8c0-1.9-0.1-3.8-0.2-5.7c-0.2-3.8-0.5-7.6-0.8-11.4l0-0.1
					v-0.1c0-3.2,0.3-6.4,0.9-9.6c0.6-3.1,1.5-6.2,2.8-9.2c0.7-1.5,1.4-2.9,2.3-4.3c0.9-1.4,2-2.7,3.3-3.8c1.3-1.1,2.9-2,4.6-2.3
					c1.5-0.2,2.2-0.8,3-2.1c0.9-1.3,1.7-2.6,2.5-3.9l2.5-4c0.8-1.3,1.7-2.7,2.8-3.9c1-1.3,2.2-2.4,3.6-3.4c2.8-1.9,6-2.8,9.2-3.3
					c3.2-0.4,6.3-0.5,9.5-0.4c0.3,0,0.5,0.3,0.5,0.6c0,0.3-0.2,0.5-0.5,0.5l0,0c-3.1,0.1-6.2,0.3-9.2,0.9c-3,0.5-6,1.5-8.3,3.2
					c-2.4,1.8-4.1,4.3-5.7,6.9l-2.4,4c-0.8,1.3-1.6,2.7-2.5,4L92.6,31c-0.1,0.2-0.3,0.4-0.4,0.6c-0.3,0.4-0.7,0.7-1.1,1
					c-0.4,0.3-0.8,0.5-1.3,0.7c-0.2,0.1-0.5,0.2-0.7,0.2l-0.6,0.1c-1.3,0.3-2.6,0.9-3.7,1.9c-2.2,1.9-3.8,4.5-5,7.3
					c-1.2,2.8-2.1,5.7-2.6,8.7c-0.6,3-0.9,6.1-0.9,9.1l0-0.1c0.4,3.8,0.6,7.7,0.8,11.5c0.1,1.9,0.2,3.8,0.2,5.8
					c0.1,1.9,0,3.9,0.1,5.7c0.1,1.9,0.3,3.7,0.6,5.5c0.3,1.8,0.8,3.6,1.3,5.4c0.5,1.8,1.2,3.5,1.9,5.3c0.4,0.9,0.8,1.7,1.2,2.5
					c0.2,0.4,0.4,0.8,0.6,1.2c0.2,0.4,0.3,0.6,0.7,1.1c2.3,3.1,4.6,6.1,6.9,9.1c1.2,1.5,2.3,3,3.5,4.5c0.6,0.7,1.2,1.5,1.8,2.2
					c0.6,0.7,1.2,1.3,1.9,2c0.7,0.6,1.4,1.3,2.1,1.7c0.7,0.4,1.4,0.7,2.2,0.9c0.8,0.2,1.8,0.2,2.6,0.3c1,0,1.8,0,2.7-0.1
					c1.8-0.2,3.5-0.8,5.2-1.4c1.7-0.7,3.4-1.5,5-2.4l0,0c0.5-0.3,1.2-0.1,1.5,0.4C119.6,122.1,119.5,122.8,119,123.1z"/>
			</g>
		</g>
		<g opacity="0.5">
			<g>
				<g>
					<path fill="#50B8E7" d="M135.9,60.8c-26,0-44.3-11.6-44.4-28.3c-0.2-0.7-0.4-2.7,1.8-6.2l1.9,1.2c-2,3.1-1.6,4.5-1.6,4.5
						l0.1,0.2l0,0.2c0,15.5,17.4,26.3,42.2,26.3V60.8z"/>
				</g>
			</g>
			<g>
				<g>
					<path fill="#50B8E7" d="M135.6,57.4c0,0,0.2,0.3,0.5,0.8c0.2,0.3,0.4,0.5,0.6,1c0.2,0.4,0.5,0.9,0.9,1.5
						c0.3,0.6,0.5,1.2,0.9,1.8c0.3,0.7,0.6,1.4,0.8,2.2c0.5,1.6,1,3.4,1.4,5.4c0.8,4,0.9,8.7,0.8,13.6l0,0.9l0,0.2l0,0.2l0,0.1
						l0,0.5c0,0.3-0.1,0.7-0.1,1.1l-0.2,1c-0.2,1.3-0.6,2.6-0.9,3.9c-0.7,2.5-1.7,5-2.7,7.5c-2.1,4.9-4.9,9.5-8,13.3
						c-3.1,3.9-6.6,7-9.8,9.3c-1.7,1.1-3.2,2-4.7,2.7c-0.7,0.4-1.4,0.7-2,0.9c-0.6,0.3-1.2,0.5-1.8,0.7c-1.1,0.4-1.9,0.6-2.5,0.8
						c-0.6,0.2-0.9,0.3-0.9,0.3l-0.3-1.1c0,0,0.3-0.1,0.9-0.3c0.6-0.2,1.4-0.5,2.4-1c0.5-0.2,1.1-0.5,1.6-0.8c0.6-0.3,1.2-0.6,1.9-1
						c1.3-0.8,2.7-1.8,4.2-2.9c1.5-1.2,3-2.5,4.5-4.1c1.5-1.6,2.9-3.3,4.3-5.3c2.7-3.8,5.1-8.3,6.9-13c0.9-2.3,1.7-4.7,2.2-7.1
						c0.3-1.2,0.5-2.4,0.7-3.5l0.1-0.8l0.1-0.8l0-0.8l0-0.9c0-4.8-0.4-9.1-1-12.7c-0.3-1.8-0.7-3.4-1.2-4.8
						c-0.2-0.7-0.5-1.3-0.7-1.9c-0.2-0.6-0.5-1.1-0.7-1.6c-0.2-0.4-0.4-0.8-0.6-1.1c-0.2-0.3-0.4-0.7-0.5-0.9
						c-0.3-0.5-0.5-0.8-0.5-0.8L135.6,57.4z"/>
				</g>
			</g>
		</g>
		<g>
			<g>
				<path fill="#50B8E7" d="M118.8,123.2l-0.8-2.1c17.2-6.5,21.1-30.3,21.2-36.3c0.1-5.2,0.3-18.9-5.3-26.7l1.8-1.3
					c5.4,7.6,5.8,19.6,5.7,28.1c-0.1,3.4-1.1,11.3-4.6,19.3C132.7,113.7,126.5,120.3,118.8,123.2z"/>
			</g>
		</g>
		<g>
			<g>
				<path fill="#50B8E7" d="M95.5,179.5c-1.3,0-2.6-0.2-3.8-0.6c-5.1-1.6-8.3-6.1-8.3-11.5v-3.6c0-10.1,2.5-12,4.5-13.6
					c1-0.8,1.7-1.4,2.1-3c1.1-5.9,2.1-19.3-1.1-32.4c-0.1-0.6,0.2-1.2,0.8-1.3c0.6-0.1,1.2,0.2,1.3,0.8c3.3,13.5,2.3,27.3,1.1,33.4
					c-0.5,2.5-1.7,3.5-2.9,4.4c-1.7,1.3-3.7,2.9-3.7,11.9v3.6c0,4.4,2.7,8,6.8,9.4c4.1,1.3,8.5-0.1,11-3.6c2.6-3.5,5-6.5,7.3-8.8
					c5.5-6,10-10.5,13.6-13.6c0.5-0.4,1.2-0.3,1.5,0.1c0.4,0.5,0.3,1.2-0.1,1.5c-3.5,3-8,7.5-13.4,13.4c-2.3,2.3-4.7,5.1-7.1,8.5
					C102.8,177.8,99.2,179.5,95.5,179.5z"/>
			</g>
		</g>
		<g opacity="0.5">
			<g>
				<g>
					<path fill="#50B8E7" d="M111.3,67.9c0,0-0.1,0.3-0.4,0.9c-0.3,0.5-0.6,1.3-1,2.3c-0.4,1-0.8,2.1-1.1,3.3
						c-0.2,0.6-0.3,1.3-0.4,1.9c-0.1,0.3-0.1,0.7-0.2,1l-0.1,1c-0.1,0.7-0.1,1.3-0.1,2c0,0.3,0,0.7,0,1c0,0.3,0.1,0.6,0.1,1
						c0.1,0.6,0.2,1.2,0.3,1.8c0.2,0.6,0.3,1.1,0.5,1.6c0.2,0.5,0.3,0.9,0.5,1.3c0.2,0.4,0.3,0.7,0.5,1c0.3,0.5,0.5,0.8,0.5,0.8
						s-0.2-0.2-0.7-0.7c-0.2-0.2-0.4-0.5-0.7-0.9c-0.1-0.2-0.3-0.4-0.4-0.6c-0.1-0.2-0.2-0.4-0.4-0.7c-0.3-0.5-0.5-1-0.7-1.6
						c-0.2-0.6-0.4-1.2-0.5-1.9c0-0.3-0.1-0.7-0.2-1c0-0.3,0-0.7-0.1-1.1c0-0.7,0-1.4,0.1-2.1l0.1-1.1c0.1-0.3,0.1-0.7,0.2-1
						c0.1-0.7,0.4-1.3,0.6-2c0.4-1.3,1-2.4,1.5-3.3c0.2-0.5,0.5-0.9,0.8-1.2c0.2-0.4,0.5-0.7,0.6-0.9
						C111,68.2,111.3,67.9,111.3,67.9z"/>
				</g>
			</g>
		</g>
		<g opacity="0.5">
			<g>
				<g>
					<path fill="#50B8E7" d="M98.1,92c0,0,0.2,0.1,0.5,0.2c0.1,0,0.3,0.1,0.5,0.1c0.2,0,0.4,0.1,0.6,0.1c0.5,0.1,1,0.1,1.6,0.2
						c0.6,0,1.2,0.1,1.8,0c0.6,0,1.2,0,1.8,0c0.3,0,0.6,0,0.8-0.1c0.3,0,0.5-0.1,0.7-0.1c0.5-0.1,0.9-0.2,1.1-0.3
						c0.3-0.1,0.5-0.2,0.5-0.2s0,0.2-0.2,0.5c-0.1,0.2-0.2,0.3-0.3,0.5c-0.1,0.2-0.3,0.4-0.5,0.6c-0.9,0.8-2.4,1.3-3.9,1.3
						c-1.5,0-3-0.5-3.9-1.3c-0.2-0.2-0.4-0.4-0.6-0.6c-0.2-0.2-0.3-0.4-0.3-0.6C98.1,92.2,98.1,92,98.1,92z"/>
				</g>
			</g>
		</g>
		<g opacity="0.5">
			<g>
				<g>
					<path fill="#50B8E7" d="M86.5,151.7l9.3,0c0.3,0,0.5,0.2,0.5,0.5c0,0.3-0.2,0.5-0.5,0.5l-9.3,1.1c-0.6,0.1-1.1-0.4-1.2-1
						c-0.1-0.6,0.4-1.1,1-1.2C86.4,151.7,86.5,151.7,86.5,151.7z"/>
				</g>
			</g>
		</g>
		<g>
			<g>
				<path fill="#50B8E7" d="M89.3,149.8l6.7,2c0.3,0.1,0.5,0.4,0.4,0.7c-0.1,0.3-0.3,0.4-0.6,0.4l-6.9-0.9c-0.6-0.1-1-0.6-0.9-1.2
					c0.1-0.6,0.6-1,1.2-0.9C89.2,149.7,89.3,149.8,89.3,149.8z"/>
			</g>
		</g>
		<g opacity="0.5">
			<g>
				<g>
					<path fill="#50B8E7" d="M111.4,152.8l9.4,1.1c0.6,0.1,1,0.6,1,1.2c-0.1,0.6-0.6,1-1.2,1c0,0-0.1,0-0.1,0l-9.2-2.2
						c-0.3-0.1-0.5-0.4-0.4-0.7C110.8,153,111.1,152.8,111.4,152.8z"/>
				</g>
			</g>
		</g>
		<g>
			<g>
				<path fill="#50B8E7" d="M111.2,152.8l13.7-1.1c0.6,0,1.1,0.4,1.2,1c0,0.6-0.4,1.1-1,1.2c0,0-0.1,0-0.1,0l-13.7,0
					c-0.3,0-0.5-0.2-0.5-0.5C110.7,153.1,111,152.9,111.2,152.8z"/>
			</g>
		</g>
		<g opacity="0.5">
			<g>
				<g>
					<path fill="#50B8E7" d="M106.3,152.6l3.3-11.9l-1.1,12.3c-0.1,0.6-0.6,1.1-1.2,1c-0.6-0.1-1.1-0.6-1-1.2
						C106.3,152.8,106.3,152.7,106.3,152.6z"/>
				</g>
			</g>
		</g>
		<g opacity="0.5">
			<g>
				<g>
					<path fill="#50B8E7" d="M98.7,152.8l1.1-13.2l1.1,13.2c0.1,0.6-0.4,1.1-1,1.2c-0.6,0.1-1.1-0.4-1.2-1
						C98.6,153,98.6,152.9,98.7,152.8z"/>
				</g>
			</g>
		</g>
		<g>
			<g>
				<path fill="#50B8E7" d="M99.2,93.1c0,0,0.1,0.1,0.3,0.3c0.1,0.1,0.2,0.1,0.3,0.2c0.1,0.1,0.3,0.2,0.5,0.2
					c0.7,0.3,1.7,0.5,2.7,0.5c0.2,0,0.5,0,0.7,0c0.2-0.1,0.5-0.1,0.7-0.1c0.2,0,0.4-0.1,0.7-0.2c0.2-0.1,0.4-0.2,0.6-0.2
					c0.2-0.1,0.3-0.2,0.5-0.2c0.2-0.1,0.3-0.2,0.4-0.2c0.2-0.1,0.3-0.2,0.3-0.2s-0.1,0.1-0.2,0.4c-0.1,0.1-0.1,0.3-0.3,0.4
					c-0.1,0.1-0.2,0.3-0.4,0.4c-0.2,0.1-0.3,0.3-0.6,0.4c-0.2,0.1-0.5,0.3-0.7,0.4c-0.3,0.1-0.5,0.2-0.8,0.3c-0.3,0-0.6,0.1-0.9,0.1
					c-0.6,0-1.2-0.1-1.7-0.3c-0.3-0.1-0.5-0.2-0.7-0.4c-0.2-0.1-0.4-0.3-0.6-0.4c-0.3-0.3-0.5-0.7-0.6-0.9
					C99.2,93.2,99.2,93.1,99.2,93.1z"/>
			</g>
		</g>
		<g>
			<g>
				<path fill="#50B8E7" d="M105.7,107.9h-1.9c-2.7,0-5.4-1-7.5-2.8l-4.6-3.9c-0.2-0.2-0.2-0.4-0.1-0.7c0.1-0.2,0.4-0.3,0.6-0.3
					c0.1,0,8,2.2,10.8,2.2h2.8c1.4,0,10.2-1.4,14.7-2.2c0.3,0,0.5,0.1,0.6,0.4c0.1,0.3,0,0.5-0.3,0.7l-9.6,5.2
					C109.5,107.4,107.6,107.9,105.7,107.9z M94.2,101.9l2.8,2.4c1.9,1.6,4.3,2.5,6.8,2.5h1.9c1.7,0,3.5-0.4,5-1.3l6.8-3.7
					c-4,0.7-10.4,1.7-11.7,1.7H103C101.1,103.5,96.9,102.5,94.2,101.9z"/>
			</g>
		</g>
		<g opacity="0.5">
			<g>
				<g>
					<path fill="#50B8E7" d="M120.6,101.4c0,0-1.5,1.5-3.9,3.4c-0.6,0.5-1.3,1-2,1.5c-0.7,0.5-1.5,1-2.3,1.5
						c-0.4,0.3-0.8,0.5-1.2,0.8c-0.5,0.3-1.1,0.6-1.6,0.8c-1.1,0.4-2.4,0.6-3.6,0.6c-1,0-2,0-3-0.1c-1.2,0-2.4-0.3-3.4-0.7
						c-1.1-0.4-2-1-2.7-1.7c-0.2-0.2-0.4-0.3-0.5-0.5c-0.1-0.2-0.3-0.3-0.4-0.5c-0.3-0.3-0.5-0.6-0.8-0.9c-2-2.3-3.1-4.1-3.1-4.1
						l0.1-0.2c0,0,1.5,1.3,3.8,3.3c0.6,0.5,1.2,1,1.9,1.6c0.7,0.5,1.5,0.9,2.4,1.2c0.9,0.3,1.8,0.4,2.8,0.4c1,0,2,0,3,0
						c1,0,2-0.1,2.9-0.4c0.9-0.3,1.8-0.8,2.6-1.2c1.7-0.9,3.2-1.7,4.6-2.4c2.7-1.4,4.4-2.4,4.4-2.4L120.6,101.4z"/>
				</g>
			</g>
		</g>
		<g opacity="0.5">
			<g>
				<g>
					<path fill="#50B8E7" d="M113.9,73.9c0,0,0-0.4,0-1c0-0.2,0-0.3,0-0.5c0-0.2,0.1-0.4,0.2-0.6c0.1-0.2,0.2-0.5,0.2-0.7
						c0.1-0.2,0.3-0.5,0.4-0.7c0.2-0.2,0.3-0.5,0.5-0.8c0.2-0.2,0.4-0.5,0.7-0.7c0.5-0.5,1.1-0.9,1.7-1.3c0.3-0.2,0.7-0.3,1-0.5
						c0.3-0.1,0.7-0.3,1.1-0.3c0.4-0.1,0.7-0.2,1.1-0.2c0.4-0.1,0.8-0.1,1.1-0.1l1.1,0c0.4,0,0.7,0.1,1.1,0.1c0.4,0,0.7,0.1,1.1,0.2
						c0.3,0.1,0.7,0.2,1,0.3c0.7,0.2,1.3,0.5,1.8,0.8c0.3,0.2,0.5,0.3,0.8,0.5c0.2,0.2,0.5,0.4,0.7,0.5c0.2,0.2,0.4,0.3,0.6,0.5
						c0.2,0.2,0.3,0.4,0.5,0.5c0.3,0.3,0.5,0.6,0.7,0.9c0.3,0.6,0.4,0.9,0.4,0.9l-0.2,0.2c0,0-0.2-0.2-0.7-0.6
						c-0.2-0.2-0.5-0.4-0.8-0.6c-0.3-0.2-0.7-0.5-1.1-0.7c-0.2-0.1-0.4-0.2-0.7-0.3c-0.2-0.1-0.5-0.2-0.8-0.3
						c-0.5-0.2-1.1-0.3-1.7-0.5c-0.6-0.1-1.2-0.3-1.8-0.3c-0.3,0-0.6,0-1-0.1l-1,0c-0.3,0-0.6,0.1-1,0.1c-0.3,0-0.6,0.1-0.9,0.2
						c-0.3,0.1-0.6,0.2-0.9,0.2c-0.3,0.1-0.6,0.2-0.9,0.3c-0.3,0.1-0.5,0.3-0.8,0.4c-0.2,0.2-0.5,0.3-0.7,0.4
						c-0.4,0.3-0.9,0.6-1.1,1c-0.2,0.2-0.3,0.3-0.5,0.5c-0.1,0.2-0.2,0.4-0.3,0.5c-0.1,0.2-0.2,0.3-0.3,0.5
						c-0.1,0.2-0.1,0.3-0.2,0.4c-0.2,0.5-0.3,0.8-0.3,0.8L113.9,73.9z"/>
				</g>
			</g>
		</g>
		<g>
			<g>
				<path fill="#50B8E7" d="M114,73.9c0,0,0.1-0.3,0.2-0.9c0-0.1,0.1-0.3,0.1-0.5c0.1-0.2,0.2-0.3,0.3-0.5c0.1-0.2,0.2-0.4,0.3-0.6
					c0.1-0.2,0.3-0.4,0.4-0.6c0.3-0.4,0.7-0.8,1.2-1.2c0.2-0.2,0.5-0.3,0.7-0.5c0.3-0.2,0.5-0.4,0.8-0.5c0.3-0.1,0.6-0.3,0.9-0.4
					c0.3-0.1,0.6-0.2,1-0.3c0.3-0.1,0.7-0.1,1-0.2c0.3,0,0.7-0.1,1-0.1l1,0c0.3,0,0.7,0.1,1,0.1c0.7,0,1.3,0.2,1.9,0.4
					c0.6,0.2,1.2,0.4,1.7,0.6c0.3,0.1,0.5,0.2,0.8,0.4c0.2,0.1,0.5,0.3,0.7,0.4c0.4,0.2,0.8,0.5,1.1,0.8c0.3,0.3,0.6,0.5,0.8,0.7
					c0.4,0.4,0.6,0.7,0.6,0.7s-0.3-0.2-0.7-0.5c-0.2-0.2-0.5-0.4-0.9-0.5c-0.3-0.2-0.7-0.4-1.2-0.6c-0.4-0.2-0.9-0.4-1.4-0.5
					c-0.5-0.2-1.1-0.3-1.6-0.4c-0.6-0.1-1.2-0.2-1.8-0.2c-0.3,0-0.6,0-0.9-0.1l-0.9,0c-0.3,0-0.6,0.1-0.9,0.1
					c-0.3,0-0.6,0.1-0.9,0.2c-0.3,0.1-0.6,0.1-0.9,0.2c-0.3,0.1-0.6,0.2-0.8,0.3c-0.3,0.1-0.5,0.2-0.8,0.4c-0.2,0.1-0.5,0.2-0.7,0.4
					c-0.4,0.3-0.9,0.6-1.2,0.9c-0.2,0.2-0.3,0.3-0.5,0.5c-0.1,0.2-0.2,0.3-0.4,0.5c-0.1,0.2-0.2,0.3-0.3,0.4
					c-0.1,0.1-0.1,0.3-0.2,0.4C114.2,73.6,114,73.9,114,73.9z"/>
			</g>
		</g>
		<g opacity="0.5">
			<g>
				<g>
					<path fill="#50B8E7" d="M116.2,75c0,0,0.2,0,0.6,0c0.2,0,0.4,0,0.7,0c0.3,0,0.5,0,0.9,0c0.6,0,1.3,0,2.1,0.1
						c0.8,0,1.6,0,2.4-0.1c0.4,0,0.8-0.1,1.2-0.1c0.4-0.1,0.8-0.1,1.2-0.2c0.8-0.1,1.5-0.3,2.1-0.4c1.2-0.3,2-0.5,2-0.5
						s-0.7,0.6-1.8,1.1c-0.6,0.3-1.3,0.5-2.1,0.7c-0.8,0.2-1.6,0.3-2.5,0.4c-0.9,0.1-1.7,0-2.5,0c-0.4,0-0.8-0.1-1.2-0.2
						c-0.4,0-0.7-0.2-1-0.2c-0.6-0.1-1.1-0.4-1.5-0.5C116.4,75.1,116.2,75,116.2,75z"/>
				</g>
			</g>
		</g>
		<g opacity="0.5">
			<g>
				<g>
					<path fill="#50B8E7" d="M93.2,75c0,0-0.2,0.1-0.5,0.2c-0.3,0.1-0.8,0.3-1.4,0.4c-0.6,0.1-1.3,0.2-2.1,0.3c-0.8,0-1.6,0-2.4-0.1
						c-0.8-0.1-1.6-0.3-2.3-0.6c-0.4-0.1-0.7-0.3-1-0.4c-0.3-0.1-0.6-0.3-0.9-0.5c-0.5-0.4-0.9-0.7-1.1-1c-0.2-0.3-0.3-0.5-0.3-0.5
						s0.2,0.1,0.5,0.3c0.3,0.2,0.7,0.4,1.3,0.6c0.3,0.1,0.6,0.2,0.9,0.3c0.3,0.1,0.6,0.2,1,0.3c0.3,0.1,0.7,0.1,1.1,0.2
						c0.4,0.1,0.7,0.1,1.1,0.2c0.8,0.1,1.5,0.2,2.3,0.3c0.7,0,1.4,0.1,2,0.1c0.6,0,1.1,0,1.4,0C93,75,93.2,75,93.2,75z"/>
				</g>
			</g>
		</g>
		<g>
			<g>
				<path fill="#50B8E7" d="M78.9,71.7c0,0,0.1-0.3,0.5-0.7c0.4-0.4,1-1,1.8-1.5c0.4-0.2,0.9-0.5,1.4-0.7c0.5-0.2,1.1-0.4,1.7-0.5
					c1.2-0.3,2.5-0.4,3.8-0.4c1.3,0.1,2.6,0.3,3.8,0.8c1.2,0.5,2.1,1.2,2.7,2.1c0.2,0.2,0.3,0.4,0.4,0.6c0.1,0.2,0.2,0.4,0.2,0.6
					c0.1,0.4,0.2,0.7,0.2,1c0,0.3,0,0.5,0,0.7c0,0.1,0,0.2,0,0.2s0-0.1,0-0.2c0-0.1-0.1-0.4-0.1-0.6c-0.1-0.3-0.2-0.6-0.3-0.9
					c-0.2-0.3-0.4-0.7-0.7-1c-0.6-0.6-1.5-1.2-2.6-1.5c-0.5-0.2-1.1-0.3-1.7-0.4c-0.6-0.1-1.2-0.2-1.8-0.2c-2.4-0.1-4.9,0.3-6.6,1
					c-0.8,0.3-1.5,0.7-1.9,1.1c-0.2,0.2-0.4,0.3-0.5,0.4C79,71.7,78.9,71.7,78.9,71.7z"/>
			</g>
		</g>
		<g opacity="0.5">
			<g>
				<g>
					<path fill="#50B8E7" d="M78.8,71.7c0,0,0-0.1,0.1-0.2c0-0.2,0.1-0.4,0.2-0.7c0.2-0.3,0.3-0.6,0.6-1c0.3-0.4,0.6-0.7,1.1-1
						c0.4-0.3,0.9-0.7,1.5-0.9c0.5-0.3,1.1-0.5,1.8-0.7c0.6-0.2,1.3-0.4,2-0.4c0.7-0.1,1.4-0.1,2.1-0.1c0.7,0.1,1.4,0.1,2.1,0.3
						c0.7,0.1,1.4,0.4,2,0.7c0.7,0.3,1.2,0.7,1.7,1.2c0.5,0.5,0.9,1,1.2,1.5c0.1,0.3,0.3,0.5,0.3,0.8c0.1,0.3,0.1,0.5,0.2,0.7
						c0.1,0.5,0,0.9,0,1.2c0,0.3-0.2,0.6-0.2,0.7c-0.1,0.2-0.1,0.2-0.1,0.2h-0.2c0,0,0-0.1,0-0.2c0-0.1,0-0.4-0.1-0.6
						c0-0.3-0.1-0.6-0.3-0.9c-0.2-0.3-0.4-0.7-0.6-1.1c-0.6-0.7-1.5-1.3-2.6-1.7c-1.1-0.4-2.3-0.6-3.6-0.6c-2.5-0.1-5,0.4-6.7,1.2
						c-0.8,0.4-1.5,0.9-1.9,1.2c-0.4,0.4-0.5,0.7-0.5,0.7L78.8,71.7z"/>
				</g>
			</g>
		</g>
		<g>
			<g>
				<path fill="#50B8E7" d="M77.8,64c0,0,0.2-0.3,0.5-0.9c0.1-0.3,0.4-0.6,0.7-0.9c0.2-0.2,0.4-0.3,0.6-0.5c0.2-0.1,0.5-0.3,0.7-0.4
					c0.3-0.1,0.6-0.2,0.9-0.3c0.3-0.1,0.6-0.1,1-0.1c0.6,0,1.4,0,2,0.1c1.4,0.2,2.7,0.6,4,1c1.3,0.4,2.6,0.8,3.8,1.2
					c0.6,0.2,1.2,0.4,1.7,0.5c0.6,0.1,1.1,0.3,1.6,0.5c0.5,0.1,0.9,0.2,1.3,0.4c0.4,0.1,0.8,0.2,1.1,0.3c0.6,0.1,0.9,0.3,0.9,0.3
					s-0.3,0.1-1,0.2c-0.6,0.1-1.5,0.2-2.6,0.2c-1.1,0-2.3-0.1-3.6-0.4c-0.6-0.1-1.3-0.3-2-0.4c-0.7-0.2-1.3-0.4-2-0.6
					c-0.6-0.2-1.3-0.4-1.9-0.6c-0.6-0.2-1.2-0.4-1.8-0.5c-0.6-0.2-1.1-0.3-1.7-0.3c-0.3,0-0.5,0-0.8-0.1c-0.2,0-0.5,0-0.7,0
					c-0.2,0-0.4,0.1-0.6,0.2c-0.2,0-0.4,0.1-0.6,0.2c-0.3,0.2-0.7,0.3-0.9,0.5C78.1,63.8,77.8,64,77.8,64z"/>
			</g>
		</g>
		<g>
			<g>
				<path fill="#50B8E7" d="M132.6,64c0,0-0.3-0.2-0.8-0.6c-0.2-0.2-0.6-0.3-0.9-0.5c-0.2-0.1-0.3-0.2-0.6-0.2
					c-0.2-0.1-0.4-0.2-0.6-0.2c-0.5-0.1-0.9-0.1-1.5-0.1c-0.3,0-0.5,0-0.8,0.1c-0.3,0-0.6,0.1-0.9,0.1c-0.6,0.1-1.2,0.3-1.8,0.4
					c-0.6,0.2-1.3,0.3-2,0.5c-1.3,0.3-2.7,0.6-4,0.8c-1.3,0.2-2.5,0.3-3.6,0.2c-1.1,0-1.9-0.1-2.5-0.2c-0.6-0.1-0.9-0.2-0.9-0.2
					s0.3-0.1,0.9-0.2c0.3-0.1,0.6-0.1,1.1-0.2c0.4-0.1,0.9-0.2,1.4-0.3c0.5-0.1,1-0.3,1.6-0.4c0.6-0.1,1.1-0.3,1.8-0.5
					c1.2-0.3,2.5-0.7,3.9-1c1.3-0.3,2.7-0.6,4.1-0.7c0.3,0,0.7,0,1,0c0.3,0,0.7,0,1,0.1c0.3,0.1,0.6,0.1,0.9,0.2
					c0.3,0.1,0.6,0.2,0.8,0.4c0.5,0.3,0.9,0.6,1.2,0.9c0.3,0.3,0.6,0.6,0.7,0.9C132.5,63.7,132.6,64,132.6,64z"/>
			</g>
		</g>
		<g>
			<g>
				<path fill="#50B8E7" d="M55.9,200c0,0,0.3-0.8,1-2.2c0.3-0.7,0.7-1.6,1.1-2.7c0.4-1,0.9-2.3,1.4-3.6c2-5.5,4.3-13.5,6.1-23.3
					c0.9-4.9,1.7-10.3,2.3-16c0.6-5.7,1-11.7,1.3-17.9c0.3-6.2,0.4-12.7,0.3-19.2c0-6.6-0.2-13.2-0.3-19.9c0-6.7-0.2-13.3-1.1-19.7
					c-0.4-3.2-1.1-6.4-1.4-9.7c-0.2-1.6-0.2-3.4-0.1-4.9c0-1.6,0.1-3.3,0.3-4.8c0.6-6.3,2.1-12.4,4.3-17.8c2.2-5.4,5-10.3,8.1-14.3
					c3.1-4.1,6.7-7.3,10.2-9.6c3.5-2.4,6.9-3.8,9.8-4.7c2.9-0.9,5.3-1.1,6.9-1.3c1.6-0.1,2.5-0.1,2.5-0.1v2.2c0,0-0.8,0-2.3,0.1
					c-1.5,0.1-3.7,0.4-6.4,1.3c-2.7,0.8-5.9,2.2-9.1,4.5c-3.2,2.2-6.6,5.3-9.6,9.1c-3,3.8-5.7,8.5-7.8,13.7
					c-2.1,5.2-3.5,11-4.2,17.1c-0.2,1.5-0.3,3-0.3,4.6c0,1.6-0.1,3.1,0.1,4.7c0.3,3.1,1,6.3,1.3,9.6c0.8,6.6,1,13.4,1,20
					c0,6.7,0.1,13.3,0,19.9c-0.1,6.6-0.2,13.1-0.6,19.3c-0.7,12.5-2.2,24.2-4.2,34c-1,4.9-2.2,9.4-3.3,13.3c-1.2,3.9-2.4,7.3-3.5,10
					c-0.5,1.4-1,2.6-1.5,3.6c-0.4,1-0.8,1.9-1.2,2.6C56.3,199.2,55.9,200,55.9,200z"/>
			</g>
		</g>
		<g opacity="0.5">
			<g>
				<g>
					<path fill="#50B8E7" d="M58.1,203.3c0,0,0.3-0.8,1-2.2c0.3-0.7,0.7-1.6,1.1-2.7c0.4-1.1,0.9-2.3,1.5-3.7
						c1.1-2.8,2.2-6.2,3.4-10.1c1.2-4,2.4-8.4,3.4-13.4c1.1-5,2-10.4,2.7-16.1c0.8-5.8,1.3-11.9,1.7-18.2c0.4-6.3,0.5-12.9,0.5-19.6
						c0-6.7,0.1-13.5-0.6-20.1c-0.7-6.7-1.9-13.3-3.2-19.9c-0.7-3.3-1.4-6.5-1.9-9.8c-0.1-0.8-0.2-1.7-0.3-2.5c0-0.4-0.1-0.9,0-1.3
						l0-1.2c0-0.8,0-1.6,0.1-2.4c0-0.8,0.1-1.6,0.2-2.4c1-12.9,5.2-24.7,11.3-33.2c3-4.3,6.5-7.6,10.1-10.1c3.5-2.4,7-3.9,10-4.8
						c3-0.9,5.4-1.1,7-1.2c1.6-0.1,2.5-0.1,2.5-0.1v2.2c0,0-0.8,0-2.4,0.1c-1.5,0.2-3.8,0.4-6.5,1.2c-2.7,0.8-6,2.2-9.2,4.5
						c-3.3,2.3-6.5,5.5-9.4,9.6c-5.8,8.1-9.8,19.4-10.8,31.9c-0.1,0.8-0.1,1.6-0.2,2.3c0,0.8-0.1,1.6-0.1,2.4l0,1.2
						c0,0.4,0,0.7,0,1.1c0,0.7,0.1,1.5,0.2,2.3c0.5,3.2,1.2,6.4,1.8,9.7c1.3,6.6,2.5,13.3,3.1,20.1c0.7,6.9,0.5,13.7,0.5,20.4
						c-0.1,6.7-0.3,13.3-0.8,19.7c-0.4,6.4-1.1,12.5-2,18.3c-0.9,5.8-2,11.2-3.2,16.2c-1.2,5-2.5,9.5-3.8,13.4
						c-1.3,3.9-2.6,7.3-3.8,10c-0.6,1.4-1.1,2.6-1.6,3.6c-0.5,1.1-0.9,1.9-1.2,2.7C58.5,202.5,58.1,203.3,58.1,203.3z"/>
				</g>
			</g>
		</g>
		<g>
			<g>
				<path fill="#50B8E7" d="M58.1,203.3c0,0,0.2-0.5,0.6-1.5c0.4-1,1-2.4,1.8-4.2c0.7-1.8,1.6-4,2.5-6.6c0.9-2.6,1.8-5.5,2.7-8.7
					c1.8-6.4,3.4-14.1,4.6-22.4c1.1-8.3,1.8-17.2,2.1-26.1c0.1-4.5,0.2-8.9,0.1-13.3c0-4.4-0.1-8.7-0.1-12.9c0-4.2-0.4-8.1-0.8-12
					c-0.4-3.8-1-7.4-1.5-10.6c-1.1-6.6-2.3-12-2.9-15.9c-0.3-1.9-0.5-3.5-0.6-4.6c-0.1-1.1-0.1-1.7-0.1-1.7h2.2c0,0,0,0.5,0.1,1.5
					c0.1,1,0.3,2.5,0.7,4.4c0.4,1.9,0.8,4.2,1.4,6.9c0.5,2.7,1.1,5.7,1.7,9c0.6,3.3,1.1,7,1.4,10.8c0.4,3.8,0.6,8,0.6,12.2
					c0,4.2,0,8.5,0,12.9c0,4.4-0.1,8.9-0.3,13.4c-0.4,9-1.2,17.9-2.6,26.2c-0.7,4.2-1.5,8.1-2.3,11.9c-0.9,3.8-1.8,7.3-2.8,10.5
					c-1,3.2-2,6.1-3,8.7c-1,2.6-1.9,4.7-2.7,6.5c-0.8,1.8-1.5,3.2-1.9,4.1C58.3,202.8,58.1,203.3,58.1,203.3z"/>
			</g>
		</g>
		<g>
			<g>
				<path fill="#50B8E7" d="M148,89.8h-2.2c0-7.3,1.9-13.7,3.7-19.8c0.4-1.3,0.8-2.7,1.2-4c2.2-8,4-16.9-1.5-30l2-0.9
					c5.8,13.7,4,23,1.6,31.4c-0.4,1.3-0.8,2.7-1.2,4.1C149.8,76.6,148,82.9,148,89.8z"/>
			</g>
		</g>
		<g opacity="0.5">
			<g>
				<g>
					<path fill="#50B8E7" d="M136,58.6c0,0,0.1,0,0.3,0c0.1,0,0.6,0,1,0.2c0.9,0.2,2.1,0.8,3.1,2c2,2.3,3.4,6,4.4,10.5
						c0.5,2.2,0.9,4.7,1.2,7.3c0.3,2.6,0.5,5.3,0.7,8.2c0.2,2.8,0.2,5.8,0.3,8.7c0,1.5,0,3,0,4.5c-0.1,1.5-0.1,3-0.3,4.5l-0.2,2.3
						l-0.3,2.2c-0.2,1.5-0.4,3-0.6,4.4c-0.5,2.9-1,5.8-1.6,8.6c-1.2,5.5-2.6,10.6-3.8,14.9c-0.6,2.2-1.3,4.1-1.8,5.9
						c-0.6,1.7-1.1,3.2-1.6,4.5c-0.5,1.2-0.9,2.2-1.1,2.8c-0.3,0.6-0.5,1-0.5,1s0.1-0.3,0.4-1c0.2-0.7,0.6-1.6,0.9-2.9
						c0.4-1.3,0.8-2.8,1.3-4.5c0.5-1.8,1-3.8,1.5-5.9c1.1-4.4,2.2-9.5,3.2-15c0.5-2.8,1-5.6,1.4-8.5c0.2-1.5,0.4-2.9,0.5-4.4
						l0.2-2.2l0.1-2.2c0.1-1.5,0.1-3,0.1-4.5c0-1.4,0-3-0.1-4.4c-0.1-2.9-0.2-5.8-0.4-8.6c-0.2-2.8-0.5-5.5-0.8-8
						c-0.3-2.5-0.7-4.9-1.1-7.1c-0.5-2.2-1-4.1-1.6-5.7c-0.6-1.6-1.3-2.9-2.1-3.8c-0.7-0.9-1.4-1.2-1.9-1.4
						c-0.3-0.1-0.3-0.1-0.6-0.1c-0.2,0-0.3,0-0.3,0L136,58.6z"/>
				</g>
			</g>
		</g>
		<g>
			<g>
				<path fill="#50B8E7" d="M136,56.4c0,0,0.1,0,0.3,0c0.1,0,0.6,0,1,0.1c0.8,0.1,2.1,0.6,3.3,1.6c1.2,1,2.2,2.5,3.1,4.2
					c0.9,1.8,1.6,3.8,2.1,6.1c1.1,4.5,1.8,9.9,2.1,15.6c0.2,2.9,0.2,5.8,0.2,8.8c0,1.5,0,3,0,4.5c0,0.8,0,1.5,0,2.3l-0.1,2.3
					c-0.1,1.5-0.3,3.1-0.4,4.6c-0.2,1.5-0.4,3-0.6,4.5c-0.5,3-1,5.9-1.6,8.7c-0.6,2.8-1.3,5.5-1.9,8c-0.7,2.5-1.3,4.9-2,7.1
					c-0.6,2.2-1.3,4.2-1.9,5.9c-0.6,1.7-1.2,3.3-1.6,4.5c-0.5,1.2-0.9,2.2-1.2,2.8c-0.3,0.6-0.5,1-0.5,1s0.1-0.3,0.4-1
					c0.2-0.7,0.6-1.6,1-2.9c0.8-2.5,1.8-6.2,2.9-10.6c1.1-4.4,2.2-9.6,3.2-15.1c0.5-2.8,0.9-5.7,1.3-8.6c0.2-1.5,0.3-3,0.5-4.4
					c0.1-1.5,0.2-2.9,0.3-4.5l0.1-2.3l0-2.2c0-1.5,0-3-0.1-4.5c-0.1-3-0.2-5.9-0.4-8.7c-0.4-5.6-1-10.8-2.1-15.1
					c-0.5-2.1-1.2-4.1-1.9-5.6c-0.7-1.6-1.6-2.8-2.4-3.5c-0.8-0.7-1.6-1-2.2-1.1c-0.5-0.1-0.9-0.1-0.9-0.1L136,56.4z"/>
			</g>
		</g>
		<g opacity="0.5">
			<g>
				<g>
					<path fill="#50B8E7" d="M137,57.5c0,0-0.9,0-2.4-0.1c-0.8,0-1.7,0-2.8-0.1c-1.1-0.1-2.3-0.2-3.7-0.3c-1.3-0.2-2.8-0.4-4.3-0.6
						c-1.5-0.3-3.1-0.7-4.7-1.1c-1.6-0.5-3.3-1-4.9-1.7c-0.8-0.4-1.7-0.6-2.5-1c-0.8-0.4-1.6-0.8-2.4-1.2c-0.8-0.4-1.6-1-2.3-1.4
						c-0.4-0.2-0.8-0.5-1.1-0.7l-1.1-0.8c-1.5-1-2.7-2.3-4-3.5c-0.6-0.7-1.1-1.3-1.6-1.9c-0.3-0.3-0.5-0.6-0.7-1
						c-0.2-0.3-0.4-0.7-0.7-1c-0.2-0.3-0.4-0.7-0.6-1c-0.2-0.3-0.3-0.7-0.5-1c-0.3-0.7-0.7-1.3-0.9-1.9c-0.2-0.7-0.4-1.3-0.6-1.9
						c-0.1-0.3-0.2-0.6-0.3-0.9c-0.1-0.3-0.1-0.6-0.2-0.9c-0.1-0.6-0.2-1.1-0.2-1.6c0-0.2-0.1-0.5-0.1-0.7c0-0.2,0-0.4,0-0.6
						c0-1.6,0.1-2.5,0.1-2.5c0-0.3,0.3-0.5,0.6-0.5c0.2,0,0.4,0.2,0.5,0.4l0,0.1c0,0,0.2,0.9,0.4,2.3c0,0.2,0.1,0.4,0.1,0.6
						c0.1,0.2,0.1,0.4,0.2,0.6c0.1,0.4,0.2,0.9,0.4,1.4c0.1,0.2,0.1,0.5,0.2,0.8c0.1,0.3,0.2,0.5,0.3,0.8c0.2,0.5,0.4,1.1,0.6,1.7
						c0.3,0.6,0.6,1.1,0.9,1.8c0.2,0.3,0.3,0.6,0.5,0.9c0.2,0.3,0.4,0.6,0.6,0.9c0.2,0.3,0.4,0.6,0.6,0.9c0.2,0.3,0.4,0.6,0.7,0.9
						c0.5,0.6,1,1.2,1.5,1.8c1.2,1.1,2.3,2.2,3.7,3.2l1,0.8c0.3,0.2,0.7,0.4,1.1,0.7c0.7,0.4,1.4,0.9,2.2,1.3
						c0.8,0.4,1.5,0.8,2.3,1.1c0.8,0.4,1.6,0.7,2.3,1c1.5,0.7,3.2,1.1,4.7,1.6c1.6,0.4,3.1,0.8,4.5,1.1c1.5,0.2,2.9,0.5,4.1,0.7
						c1.3,0.1,2.5,0.3,3.5,0.4c1,0.1,2,0.1,2.8,0.1c1.5,0.1,2.4,0.1,2.4,0.1c0.6,0,1.1,0.5,1.1,1.1C138.1,57,137.6,57.5,137,57.5z"
						/>
				</g>
			</g>
			<g>
				<g>
					<path fill="#50B8E7" d="M147,89.5c-0.1-2.1,0.3-4.1,0.9-6.1c0.2-1.1,0.4-2.2,0.8-3.3c-0.3-4.8-1-9.3-1.9-13.1
						c-0.6-2.2-1.3-4.3-2.1-6c-0.9-1.7-2-3.2-3.2-4.1c-1.2-1-2.4-1.4-3.3-1.5c-0.4-0.1-0.8-0.1-1-0.1c-0.2,0-0.3,0-0.3,0l-0.1,2.2
						c0,0,0.4,0,0.9,0.1c0.6,0.1,1.3,0.4,2.2,1.1c0.8,0.7,1.7,1.9,2.5,3.4c0.7,1.5,1.4,3.4,1.9,5.5c1.1,4.2,1.6,9.4,2,15
						c0.2,2.8,0.3,5.7,0.4,8.6c0,1.5,0,2.9,0,4.4l0,1.1l0,1.1l-0.1,2.2c-0.1,1.5-0.2,2.9-0.3,4.4c-0.2,1.5-0.3,2.9-0.5,4.4
						c-0.4,2.9-0.8,5.8-1.3,8.5c-0.5,2.8-1,5.4-1.6,7.9c-0.5,2.5-1.1,4.9-1.7,7c-1.1,4.3-2.1,8-2.9,10.4c-0.4,1.2-0.7,2.2-1,2.9
						c-0.3,0.6-0.4,1-0.4,1s0.2-0.3,0.5-1c0.3-0.6,0.7-1.6,1.2-2.8c0.5-1.2,1-2.7,1.6-4.5c0.6-1.7,1.3-3.7,1.9-5.8
						c0.7-2.2,1.3-4.5,2-7c0.7-2.5,1.3-5.1,1.9-7.9c0.6-2.8,1.1-5.6,1.6-8.6c0.2-1.5,0.4-3,0.6-4.4c0.2-1.5,0.3-3,0.4-4.5l0.1-2.2
						c0-0.4,0-0.7,0.1-1.1l0-1.1c0-0.2,0-0.4,0-0.5C147.9,93.5,147.1,91.5,147,89.5z"/>
				</g>
			</g>
		</g>
		<g>
			<g>
				<path fill="#50B8E7" d="M108.8,11.4c0,0-1.2,0-3.2,0c-1.1,0.1-2.3,0.1-3.8,0.2c-0.7,0.1-1.5,0.1-2.3,0.2
					c-0.8,0.1-1.7,0.2-2.6,0.4c-0.9,0.1-1.8,0.4-2.8,0.5c-1,0.2-1.9,0.5-3,0.8c-2,0.6-4.1,1.5-6.1,2.6c-2,1.2-4,2.6-5.7,4.4
					c-1.7,1.8-3.2,3.8-4.4,6c-1.2,2.2-2,4.5-2.7,6.9c-0.7,2.3-1.2,4.6-1.5,6.9c-0.1,0.8-0.2,1.6-0.3,2.4c0.4-0.8,0.7-1.7,1.1-2.5
					c0.1-1.8,0.8-3.5,1.8-4.8c0-0.1,0.1-0.2,0.1-0.3c0.2-0.6,0.4-1.1,0.7-1.6c0.2-0.6,0.5-1.1,0.9-1.6c0.4-1.3,1.1-2.4,2.1-3.4
					c0.4-0.3,0.8-0.6,1.2-0.9c0.9-1.8,2.1-3.5,3.4-4.9c1.5-1.6,3.2-2.9,4.9-4c1.8-1.1,3.7-1.9,5.5-2.5c0.9-0.3,1.8-0.6,2.7-0.8
					c0.9-0.2,1.8-0.4,2.6-0.6c0.9-0.1,1.7-0.3,2.4-0.4c0.8-0.1,1.5-0.2,2.2-0.3c1.4-0.2,2.6-0.2,3.6-0.3c2.1-0.1,3.2-0.1,3.2-0.1
					c0.6,0,1.1-0.5,1.1-1.1C109.9,11.9,109.4,11.4,108.8,11.4z"/>
			</g>
		</g>
		<g opacity="0.5">
			<g>
				<g>
					<path fill="#50B8E7" d="M108.8,12.5c0,0-1.2,0-3.2,0c-1.1,0.1-2.3,0.1-3.8,0.2c-0.7,0.1-1.5,0.1-2.3,0.2
						c-0.8,0.1-1.7,0.2-2.6,0.4c-0.9,0.1-1.8,0.4-2.8,0.5c-1,0.2-1.9,0.5-3,0.8c-2,0.6-4.1,1.5-6.1,2.6c-2,1.2-4,2.6-5.7,4.4
						c-1.7,1.8-3.2,3.8-4.4,6c-1.2,2.2-2,4.5-2.7,6.9c-0.7,2.3-1.2,4.6-1.5,6.9c-0.1,0.8-0.2,1.6-0.3,2.4c0.4-0.8,0.7-1.7,1.1-2.5
						c0.1-1.8,0.8-3.5,1.8-4.8c0-0.1,0.1-0.2,0.1-0.3c0.2-0.6,0.4-1.1,0.7-1.6c0.2-0.6,0.5-1.1,0.9-1.6c0.4-1.3,1.1-2.4,2.1-3.4
						c0.4-0.3,0.8-0.6,1.2-0.9c0.9-1.8,2.1-3.5,3.4-4.9c1.5-1.6,3.2-2.9,4.9-4c1.8-1.1,3.7-1.9,5.5-2.5c0.9-0.3,1.8-0.6,2.7-0.8
						c0.9-0.2,1.8-0.4,2.6-0.6c0.9-0.1,1.7-0.3,2.4-0.4c0.8-0.1,1.5-0.2,2.2-0.3c1.4-0.2,2.6-0.2,3.6-0.3c2.1-0.1,3.2-0.1,3.2-0.1
						c0.6,0,1.1-0.5,1.1-1.1C109.9,13,109.4,12.5,108.8,12.5z"/>
				</g>
			</g>
			<g>
				<g>
					<path fill="#50B8E7" d="M106.4,12.5c0,0,1.3,0,3.4,0.1c1.1,0.1,2.4,0,4,0.2c0.8,0.1,1.6,0.2,2.5,0.3c0.9,0.1,1.8,0.1,2.7,0.4
						c0.9,0.2,1.9,0.4,2.9,0.6c0.5,0.1,1,0.2,1.5,0.3c0.5,0.1,1,0.3,1.6,0.5c1.1,0.3,2.1,0.7,3.2,1c1.1,0.4,2.2,0.9,3.3,1.4
						c0.6,0.3,1.1,0.5,1.7,0.8c0.5,0.3,1.1,0.6,1.6,0.9c0.5,0.3,1.1,0.6,1.6,1l0.8,0.5l0.8,0.6c1,0.8,2.1,1.6,3.1,2.4
						c0.9,0.9,1.9,1.8,2.8,2.7c0.5,0.4,0.9,1,1.3,1.5l1.2,1.5c0.9,1,1.5,2.1,2.2,3.2c0.3,0.5,0.7,1.1,1,1.6c0.4,0.5,0.6,1.1,0.9,1.7
						c0.5,1.1,1.1,2.2,1.6,3.3c0.9,2.3,1.8,4.5,2.3,6.6c0.3,1.1,0.6,2.1,0.8,3.1c0.2,1,0.4,2,0.6,3c0.4,1.9,0.5,3.7,0.7,5.2
						c0.1,0.8,0.2,1.5,0.2,2.2c0,0.7,0.1,1.3,0.1,1.9c0.1,2.2,0.2,3.5,0.2,3.5c0.1,1.2-0.9,2.2-2.1,2.3c-1.2,0.1-2.2-0.9-2.3-2.1
						c0,0,0,0,0,0l0-0.1c0,0,0-1.2-0.1-3.4c0-0.5,0-1.1,0-1.8c0-0.6-0.1-1.3-0.2-2.1c-0.2-1.5-0.2-3.2-0.5-4.9
						c-0.1-0.9-0.3-1.8-0.5-2.8c-0.1-1-0.5-1.9-0.7-2.9c-0.4-2-1.2-4.1-1.9-6.2c-0.4-1.1-0.9-2.1-1.4-3.1c-0.3-0.5-0.5-1.1-0.8-1.6
						c-0.3-0.5-0.6-1-0.9-1.5c-0.6-1-1.2-2.1-2-3l-1.1-1.4c-0.4-0.5-0.7-1-1.1-1.4c-0.8-0.9-1.7-1.7-2.5-2.6
						c-0.9-0.8-1.8-1.5-2.8-2.3l-0.7-0.6l-0.7-0.5c-0.5-0.3-1-0.6-1.5-0.9c-0.5-0.3-1-0.6-1.5-0.9c-0.5-0.3-1-0.5-1.5-0.8
						c-1-0.5-2-1-3-1.4c-1-0.4-2-0.7-3-1.1c-0.5-0.2-1-0.4-1.5-0.5c-0.5-0.1-1-0.2-1.5-0.3c-1-0.2-1.9-0.4-2.8-0.7
						c-0.9-0.3-1.8-0.3-2.6-0.4c-0.8-0.1-1.6-0.2-2.3-0.3c-1.4-0.3-2.8-0.2-3.9-0.3c-2.2-0.1-3.4-0.2-3.4-0.2c-0.6,0-1.1-0.5-1-1.2
						C105.3,13,105.8,12.5,106.4,12.5z"/>
				</g>
			</g>
		</g>
		<g>
			<g>
				<path fill="#50B8E7" d="M106.3,11.4c0,0,1.3,0,3.5,0c1.1,0.1,2.5,0.1,4.1,0.2c1.6,0.1,3.3,0.3,5.3,0.6c1,0.2,2,0.3,3,0.6
					c1,0.3,2.1,0.5,3.2,0.8c2.2,0.6,4.4,1.4,6.7,2.4c2.2,1,4.5,2.3,6.6,3.8c2.1,1.5,4.1,3.3,5.9,5.3c1.8,2,3.4,4.1,4.7,6.4
					c1.3,2.3,2.4,4.6,3.3,6.9c0.9,2.3,1.6,4.6,2.1,6.8c0.5,2.2,0.9,4.3,1.2,6.2c0.6,3.9,0.8,7.1,0.9,9.4c0.1,1.1,0.1,2,0.1,2.6
					c0,0.6,0,0.9,0,0.9c0,1.2-0.9,2.2-2.1,2.2c-1.2,0-2.2-0.9-2.2-2.1c0,0,0,0,0,0v-0.1c0,0,0-0.3,0-0.9c0-0.6,0-1.4,0-2.5
					c0-2.2-0.2-5.3-0.6-9c-0.2-1.8-0.6-3.8-1-5.9c-0.5-2.1-1.1-4.2-1.8-6.4c-0.8-2.2-1.7-4.3-2.9-6.4c-1.1-2.1-2.6-4.1-4.1-6
					c-1.6-1.8-3.4-3.5-5.3-5c-1.9-1.4-4-2.7-6-3.7c-2.1-1-4.2-1.8-6.2-2.4c-1-0.3-2-0.6-3-0.8c-1-0.2-1.9-0.4-2.9-0.6
					c-1.8-0.3-3.5-0.6-5.1-0.7c-1.5-0.2-2.8-0.2-3.9-0.3c-2.2-0.1-3.5-0.1-3.5-0.1c-0.6,0-1.1-0.5-1.1-1.1
					C105.3,11.9,105.8,11.4,106.3,11.4z"/>
			</g>
		</g>
		<g>
			<g>
				<path fill="#50B8E7" d="M155.5,85.4c0,0-0.4,0.6-1,1.6c-0.6,1-1.5,2.5-2.6,4.2c-1.1,1.7-2.4,3.7-3.8,5.9c-0.7,1-1.5,2.1-2.4,3.2
					c-0.8,1.1-1.7,2.1-2.6,3.2c-0.9,1-1.9,2-2.9,3c-0.5,0.5-1,0.9-1.5,1.4c-0.5,0.4-1,0.9-1.5,1.3c-1,0.8-2,1.6-2.9,2.4
					c-0.9,0.8-1.9,1.4-2.7,2c-0.8,0.6-1.6,1.2-2.3,1.7c-0.7,0.5-1.2,1-1.7,1.4c-0.9,0.8-1.4,1.4-1.4,1.4c-1,1.2-2.9,1.3-4.1,0.3
					c-1.2-1-1.3-2.9-0.3-4.1c0.4-0.5,1-0.8,1.7-1l0,0c0,0,0.7-0.1,1.8-0.5c0.6-0.2,1.2-0.4,2-0.8c0.7-0.4,1.6-0.7,2.4-1.3
					c0.9-0.5,1.8-1.1,2.7-1.7c1-0.6,1.9-1.3,2.9-2.1c1-0.7,2-1.5,3-2.4c1-0.8,1.9-1.8,2.9-2.7c0.9-1,1.8-1.9,2.6-2.9
					c0.8-1,1.6-2,2.4-3c0.7-1,1.5-2,2.1-2.9c0.7-0.9,1.2-1.9,1.8-2.7c1.1-1.7,1.9-3.1,2.5-4.2c0.6-1,0.9-1.6,0.9-1.6
					c0.3-0.5,1-0.7,1.5-0.4C155.6,84.2,155.8,84.9,155.5,85.4C155.5,85.4,155.5,85.4,155.5,85.4z"/>
			</g>
		</g>
		<g>
			<g>
				<path fill="#50B8E7" d="M154.6,83.8c0.6,0,1.1,0.5,1.1,1.1s-0.5,1.1-1.1,1.1s-1.1-0.5-1.1-1.1S154,83.8,154.6,83.8 M154.6,81.6
					c-1.8,0-3.3,1.5-3.3,3.3s1.5,3.3,3.3,3.3s3.3-1.5,3.3-3.3S156.4,81.6,154.6,81.6L154.6,81.6z"/>
			</g>
		</g>
		<g>
			<g>
				<g>
					<path fill="#FFFFFF" d="M116.2,123.2c-1.2,0-2.4-0.7-2.9-1.8c-0.8-1.6-0.2-3.6,1.5-4.4l6.6-3.3c1.6-0.8,3.6-0.2,4.4,1.5
						c0.8,1.6,0.2,3.6-1.5,4.4l-6.6,3.3C117.2,123.1,116.7,123.2,116.2,123.2z"/>
				</g>
				<g>
					<path fill="#50B8E7" d="M116.2,124.3c-1.7,0-3.2-0.9-3.9-2.4c-1.1-2.2-0.2-4.8,2-5.9l6.6-3.3c0.6-0.3,1.3-0.5,2-0.5
						c1.7,0,3.2,0.9,3.9,2.4c1.1,2.2,0.2,4.8-2,5.9l-6.6,3.3C117.5,124.2,116.9,124.3,116.2,124.3z M122.8,114.5
						c-0.3,0-0.7,0.1-1,0.2l-6.6,3.3c-1.1,0.5-1.5,1.9-1,2.9c0.5,1.1,1.9,1.5,2.9,1l6.6-3.3c1.1-0.5,1.5-1.9,1-2.9
						C124.4,114.9,123.6,114.5,122.8,114.5z"/>
				</g>
			</g>
		</g>
		<g opacity="0.5">
			<g>
				<g>
					<path fill="#50B8E7" d="M125.7,115.2c-0.2-0.4-0.5-0.8-0.9-1.1c-0.2,0.9-0.8,1.7-1.7,2.2l-6.6,3.3c-0.5,0.2-1,0.3-1.5,0.3
						c-0.8,0-1.5-0.3-2.1-0.8c-0.2,0.7-0.1,1.5,0.2,2.2c0.6,1.2,1.7,1.8,2.9,1.8c0.5,0,1-0.1,1.5-0.3l6.6-3.3
						C125.9,118.8,126.5,116.8,125.7,115.2z"/>
				</g>
			</g>
		</g>
		<g>
			<g>
				<path fill="#50B8E7" d="M129.3,208.7c0,0-0.3-1.8-0.7-4.8c-0.4-3.1-1.1-7.5-1.7-12.8c-0.6-5.3-1.4-11.5-2-18.1
					c-0.3-3.3-0.6-6.8-0.8-10.3c-0.1-1.7-0.2-3.5-0.3-5.3c0-0.9-0.1-1.7-0.1-2.7c0-0.8,0.1-1.9,0.2-2.8c0.5-3.6,1.3-7.1,2.1-10.5
					c0.8-3.4,1.7-6.7,2.5-10c1.7-6.4,3.3-12.4,4.7-17.6c0.7-2.6,1.3-4.9,1.8-7c0.5-2.1,0.9-3.9,1.2-5.4c0.3-1.5,0.5-2.7,0.5-3.5
					c0.1-0.4,0-0.7,0.1-0.9c0-0.2,0-0.3,0-0.3h2.2c0,0,0,0.1,0,0.4c0,0.2,0,0.6,0,1c-0.1,0.9-0.2,2.1-0.5,3.7
					c-0.6,3.1-1.5,7.5-2.8,12.6c-1.3,5.2-3,11.2-4.7,17.6c-0.9,3.2-1.8,6.5-2.6,9.9c-0.8,3.4-1.7,6.8-2.2,10.2
					c-0.1,0.9-0.2,1.6-0.3,2.5l0,2.6c0,1.8,0.1,3.5,0.1,5.2c0.1,3.5,0.3,6.9,0.5,10.2c0.5,6.6,0.9,12.8,1.3,18.1
					C128.8,201.7,129.3,208.7,129.3,208.7z"/>
			</g>
		</g>
		<g>
			<g>
				<path fill="#50B8E7" d="M159,148.4c0,0-0.3,0-0.7,0.1c-0.2,0-0.5,0-0.9,0.1c-0.4,0-0.6,0.2-1,0.2c-0.2,0-0.4,0.1-0.6,0.1
					c-0.2,0.1-0.4,0.2-0.7,0.3c-0.5,0.2-1,0.4-1.5,0.7c-0.5,0.3-1.1,0.6-1.6,1c-0.5,0.4-1.1,0.8-1.6,1.4c-0.3,0.3-0.5,0.5-0.8,0.8
					c-0.3,0.3-0.5,0.6-0.8,0.9c-0.6,0.6-1.1,1.3-1.6,2c-1,1.4-2,3-3,4.6c-0.9,1.7-1.8,3.4-2.7,5.3c-0.8,1.8-1.7,3.7-2.4,5.6
					c-3,7.7-5.2,15.7-6.6,21.7c-1.4,6-2.2,10.1-2.2,10.1s0.6-4.1,1.8-10.2c1.2-6.1,3.2-14.1,5.9-22c0.7-2,1.4-3.9,2.2-5.8
					c0.8-1.9,1.7-3.7,2.6-5.5c0.9-1.7,1.9-3.4,2.9-4.9c0.5-0.7,1-1.5,1.6-2.1c0.3-0.3,0.5-0.7,0.8-1c0.3-0.3,0.6-0.6,0.9-0.9
					c0.5-0.6,1.1-1.1,1.7-1.6c0.5-0.5,1.2-0.9,1.7-1.2c0.5-0.4,1.1-0.6,1.7-0.9c0.3-0.1,0.5-0.3,0.8-0.3c0.3-0.1,0.5-0.2,0.8-0.2
					c0.5-0.1,1-0.3,1.3-0.3c0.3,0,0.6-0.1,0.9-0.1c0.5-0.1,0.7-0.1,0.7-0.1L159,148.4z"/>
			</g>
		</g>
		<g>
			<g>
				<path fill="#50B8E7" d="M121.7,68.4c0,0,0.3,0,0.8,0c0.3,0,0.6,0,1,0.1c0.4,0.1,0.8,0.2,1.1,0.6c0.4,0.3,0.6,0.9,0.6,1.4
					c0.1,0.5,0,1.2-0.3,1.8c-0.3,0.6-0.7,1.1-1.3,1.5c-0.6,0.4-1.3,0.6-2,0.6c-0.3,0-0.7-0.1-1-0.2c-0.3-0.1-0.7-0.2-0.9-0.4
					c-0.6-0.4-1-0.9-1.3-1.5c-0.3-0.6-0.4-1.2-0.3-1.8c0.1-0.5,0.3-1.1,0.6-1.4c0.4-0.3,0.8-0.5,1.1-0.6c0.4-0.1,0.7-0.1,1-0.1
					C121.4,68.4,121.7,68.4,121.7,68.4z M121.7,68.4c0,0-0.3,0-0.8,0c-0.3,0-0.6,0.1-0.9,0.2c-0.3,0.1-0.7,0.3-1,0.7
					c-0.3,0.3-0.3,0.8-0.3,1.3c0,0.5,0.2,1,0.5,1.4c0.3,0.4,0.7,0.8,1.1,1c0.2,0.1,0.5,0.2,0.7,0.3c0.3,0.1,0.4,0.1,0.8,0.1
					c0.5,0,1-0.1,1.4-0.4c0.4-0.2,0.8-0.6,1.1-1c0.3-0.4,0.4-0.9,0.5-1.4c0-0.5,0-0.9-0.3-1.3c-0.2-0.3-0.6-0.5-1-0.7
					c-0.3-0.1-0.7-0.2-0.9-0.2C122,68.4,121.7,68.4,121.7,68.4z"/>
			</g>
		</g>
		<g>
			<g>
				<path fill="#50B8E7" d="M88.8,68.4c0,0,0.3,0,0.8,0c0.3,0,0.6,0,1,0.1c0.4,0.1,0.8,0.2,1.1,0.6c0.4,0.3,0.6,0.9,0.6,1.4
					c0,0.5-0.1,1.2-0.3,1.8c-0.3,0.6-0.7,1.1-1.3,1.5c-0.6,0.4-1.2,0.6-2,0.6c-0.3,0-0.7,0-1-0.1c-0.3-0.1-0.7-0.2-0.9-0.4
					c-0.6-0.4-1-0.9-1.3-1.5c-0.2-0.6-0.3-1.2-0.3-1.8c0.1-0.5,0.3-1.1,0.6-1.4c0.4-0.3,0.8-0.5,1.1-0.6c0.4-0.1,0.7-0.1,1-0.1
					C88.5,68.4,88.8,68.4,88.8,68.4z M88.8,68.4c0,0-0.3,0-0.8,0c-0.3,0-0.6,0.1-0.9,0.2c-0.3,0.1-0.7,0.3-1,0.7
					c-0.3,0.3-0.3,0.8-0.3,1.3c0,0.5,0.2,0.9,0.5,1.4c0.3,0.4,0.6,0.8,1.1,1c0.2,0.1,0.5,0.2,0.7,0.3c0.3,0.1,0.4,0.1,0.8,0.1
					c0.5,0,1-0.1,1.4-0.4c0.4-0.2,0.8-0.6,1.1-1c0.3-0.4,0.4-0.9,0.4-1.4c0-0.5,0-0.9-0.3-1.3c-0.2-0.3-0.6-0.5-1-0.7
					c-0.3-0.1-0.7-0.2-0.9-0.2C89.1,68.4,88.8,68.4,88.8,68.4z"/>
			</g>
		</g>
		<g opacity="0.75">
			<g>
				<circle fill="#FFFFFF" cx="120.6" cy="70.6" r="1.1"/>
			</g>
		</g>
		<g opacity="0.75">
			<g>
				<circle fill="#FFFFFF" cx="87.7" cy="70.6" r="1.1"/>
			</g>
		</g>
		<g>
			<g>
				<path fill="#50B8E7" d="M197.3,182.4c-0.5,0-0.9-0.3-1.1-0.8c-5.9-22.4-11.9-27.7-37.5-33.2c-0.6-0.1-1-0.7-0.8-1.3
					c0.1-0.6,0.7-1,1.3-0.8c26.4,5.7,33,11.5,39.2,34.8c0.2,0.6-0.2,1.2-0.8,1.3C197.5,182.4,197.4,182.4,197.3,182.4z"/>
			</g>
		</g>
		<g>
			<g>
				<path fill="#50B8E7" d="M28.5,182.4c-0.3,0-0.6-0.1-0.8-0.3c-0.4-0.4-0.4-1.1,0-1.6c6.3-6.3,9-11.5,11.5-16.2
					c4.6-8.7,7.9-15,29.4-19.6c0.6-0.1,1.2,0.2,1.3,0.8c0.1,0.6-0.3,1.2-0.8,1.3c-20.5,4.4-23.5,10-27.9,18.4
					c-2.5,4.8-5.4,10.2-11.9,16.7C29.1,182.3,28.8,182.4,28.5,182.4z"/>
			</g>
		</g>
		<g opacity="0.5">
			<g>
				<g>
					<path fill="#50B8E7" d="M91.2,150.6c0,0-0.2,0-0.7,0.1c-0.1,0-0.2,0-0.4,0c-0.1,0-0.1,0.1-0.2,0.1c-0.1,0-0.1,0-0.2,0.1
						c0,0-0.1,0-0.1,0l-0.2,0.1c-0.3,0.2-0.6,0.2-0.9,0.5c-0.3,0.2-0.7,0.5-1.1,0.8c-0.8,0.6-1.5,1.6-2.4,2.6
						c-0.8,1.1-1.6,2.3-2.5,3.7c-0.8,1.4-1.6,2.8-2.4,4.4c-1.6,3.1-3.2,6.6-4.7,10.1c-3.1,7-6,14-8.6,19.1c-0.7,1.3-1.3,2.4-1.9,3.4
						c-0.6,1-1.2,1.8-1.7,2.5c-0.5,0.6-1,1.1-1.3,1.4c-0.3,0.3-0.5,0.5-0.5,0.5s0.2-0.2,0.5-0.5c0.3-0.3,0.7-0.8,1.2-1.5
						c0.5-0.7,1-1.6,1.5-2.6c0.5-1,1.1-2.2,1.6-3.5c2.3-5.2,4.6-12.4,7.2-19.6c2.6-7.2,5.3-14.4,8.6-19.5c0.9-1.3,1.7-2.4,2.6-3.3
						c0.4-0.5,0.9-0.9,1.4-1.3c0.4-0.4,1-0.7,1.4-0.9c0.9-0.5,2.3-0.9,2.5-0.9c0.4-0.1,0.7-0.1,0.7-0.1L91.2,150.6z"/>
				</g>
			</g>
		</g>
		<g>
			<g>
				<path fill="#50B8E7" d="M91.1,146.3c0,0-0.2,0-0.7,0.1c-0.1,0-0.2,0-0.4,0c-0.1,0-0.2,0.1-0.3,0.1c-0.2,0.1-0.5,0.1-0.8,0.3
					c-0.3,0.2-0.7,0.3-1.1,0.7c-0.2,0.1-0.4,0.3-0.6,0.4c-0.2,0.2-0.4,0.4-0.6,0.6c-0.8,0.8-1.7,1.8-2.5,3c-0.8,1.2-1.7,2.5-2.5,4
					c-0.8,1.5-1.6,3.1-2.4,4.8c-1.6,3.4-3.1,7-4.6,10.7c-2.9,7.4-5.7,14.9-8.1,20.4c-1.2,2.7-2.4,5-3.3,6.4
					c-0.5,0.7-0.9,1.3-1.2,1.6c-0.3,0.3-0.5,0.5-0.5,0.5s0.2-0.2,0.5-0.5c0.3-0.3,0.7-0.9,1.2-1.7c0.9-1.5,2-3.7,3.1-6.5
					c2.3-5.5,4.7-13.1,7.4-20.7c1.4-3.8,2.8-7.5,4.2-11c0.8-1.7,1.5-3.4,2.3-4.9c0.8-1.6,1.6-3,2.4-4.3c0.9-1.3,1.7-2.4,2.6-3.3
					c0.2-0.2,0.4-0.5,0.7-0.7c0.2-0.2,0.5-0.4,0.7-0.6c0.4-0.4,0.9-0.6,1.3-0.9c0.4-0.3,0.9-0.4,1.3-0.6c0.2-0.1,0.4-0.1,0.6-0.2
					c0.1,0,0.3,0,0.4-0.1c0.5-0.1,0.7-0.1,0.7-0.1L91.1,146.3z"/>
			</g>
		</g>
		<g opacity="0.5">
			<g>
				<g>
					<path fill="#50B8E7" d="M92.1,100.1c0,0,0.5,0,1.3,0c0.8,0,1.9,0.1,3.3,0.3c0.7,0.1,1.4,0.2,2.1,0.3c0.8,0.1,1.5,0.3,2.3,0.6
						c0.8,0.3,1.6,0.6,2.5,0.7l0.3,0l0.2,0l0,0c0-0.1,0,0.2,0-0.2l0,0l0,0l0.1,0c0.2,0,0.4-0.1,0.6-0.1c0.4-0.1,0.9-0.2,1.3-0.3
						c0.9-0.2,1.8-0.4,2.6-0.5c0.9-0.2,1.7-0.3,2.6-0.5c0.8-0.1,1.6-0.2,2.4-0.3c0.8,0,1.5-0.1,2.2-0.1c2.7-0.1,4.6,0.1,4.6,0.1
						l0,0.2c0,0-1.7,0.8-4.3,1.5c-0.7,0.2-1.4,0.3-2.1,0.5c-0.8,0.2-1.6,0.3-2.4,0.4c-0.8,0.1-1.7,0.2-2.6,0.2
						c-0.9,0.1-1.8,0.1-2.7,0.1c-0.5,0-0.9,0-1.4,0c-0.2,0-0.5,0-0.7,0l-0.1,0l0,0l0,0c0-0.4,0-0.1,0-0.2l0,0l-0.2,0l-0.4,0
						c-0.9,0-1.8,0.1-2.7,0.1c-0.9,0-1.7-0.1-2.5-0.3c-0.8-0.2-1.5-0.3-2.1-0.5c-2.6-0.7-4.2-1.7-4.2-1.7L92.1,100.1z"/>
				</g>
			</g>
		</g>
		<g opacity="0.25">
			<g>
				<g>
					<path fill="#50B8E7" d="M120.6,101.4c0,0-0.4,0.1-1.2,0.3c-0.8,0.2-1.9,0.4-3.2,0.7c-1.3,0.3-2.9,0.6-4.5,0.9
						c-1.7,0.3-3.4,0.7-5.2,0.9l-1.4,0.2c-0.2,0-0.5,0-0.7,0.1l-0.1,0l0,0l0,0c-0.1,0.2,0,0,0,0.1l0,0l-0.2,0l-0.3,0
						c-1-0.1-1.8-0.3-2.7-0.4c-0.8-0.2-1.7-0.3-2.4-0.5c-0.8-0.2-1.5-0.4-2.1-0.6c-0.7-0.2-1.3-0.4-1.8-0.6c-0.5-0.2-1-0.4-1.3-0.5
						c-0.4-0.1-0.7-0.3-0.9-0.4c-0.2-0.1-0.3-0.1-0.3-0.1l0-0.1c0,0,1.8,0.4,4.4,1c1.3,0.3,2.9,0.6,4.5,0.8c0.8,0.1,1.7,0.3,2.6,0.3
						c0.9,0.1,1.8-0.1,2.7-0.2c3.6-0.4,7.2-0.9,9.8-1.3c2.7-0.4,4.5-0.6,4.5-0.6L120.6,101.4z"/>
				</g>
			</g>
		</g>
	</g>
	<g>
		<g>
			<path fill="#FD9838" d="M112.9,221.9c-61,0-110.7-49.7-110.7-110.7S51.9,0.5,112.9,0.5s110.7,49.7,110.7,110.7
				S174,221.9,112.9,221.9z M112.9,2.7C53.1,2.7,4.4,51.3,4.4,111.2s48.7,108.5,108.5,108.5S221.4,171,221.4,111.2
				S172.7,2.7,112.9,2.7z"/>
		</g>
	</g>
	<g>
		<g>
			<g>
				<g>
					<path fill="#FFFFFF" d="M111.8,239.4c-10.3,0-18.6-8.4-18.6-18.6s8.4-18.6,18.6-18.6s18.6,8.4,18.6,18.6
						S122.1,239.4,111.8,239.4z"/>
				</g>
			</g>
			<g>
				<g>
					<path fill="#FD9838" d="M111.8,203.3c9.7,0,17.5,7.9,17.5,17.5s-7.9,17.5-17.5,17.5s-17.5-7.9-17.5-17.5
						S102.1,203.3,111.8,203.3 M111.8,201.1c-10.9,0-19.7,8.9-19.7,19.7s8.9,19.7,19.7,19.7s19.7-8.9,19.7-19.7
						S122.7,201.1,111.8,201.1L111.8,201.1z"/>
				</g>
			</g>
		</g>
	</g>
	<g>
		<g>
			<g>
				<path fill="#50B8E7" d="M111.8,231.8c-6,0-11-4.9-11-11h2.2c0,4.8,3.9,8.8,8.8,8.8s8.8-3.9,8.8-8.8s-3.9-8.8-8.8-8.8v-2.2
					c6,0,11,4.9,11,11C122.8,226.8,117.9,231.8,111.8,231.8z"/>
			</g>
		</g>
	</g>
	<g>
		<g>
			<polygon fill="#50B8E7" points="105.2,220.8 98.7,220.8 101.9,217.5 			"/>
		</g>
	</g>
	<g>
		<g>
			<path fill="#50B8E7" d="M115.1,225.2c-0.3,0-0.6-0.1-0.8-0.3l-3.3-3.3c-0.4-0.4-0.4-1.1,0-1.6c0.4-0.4,1.1-0.4,1.6,0l3.3,3.3
				c0.4,0.4,0.4,1.1,0,1.6C115.7,225.1,115.4,225.2,115.1,225.2z"/>
		</g>
	</g>
	<g>
		<g>
			<path fill="#50B8E7" d="M111.8,221.9c-0.6,0-1.1-0.5-1.1-1.1v-5.5c0-0.6,0.5-1.1,1.1-1.1s1.1,0.5,1.1,1.1v5.5
				C112.9,221.4,112.4,221.9,111.8,221.9z"/>
		</g>
	</g>
	<g opacity="0.2">
		<g>
			<path fill="#50B8E7" d="M373.8,92.5c0-2.7,0.5-5.3,1.4-7.7H222.7c0.9,3.6,1.5,7.2,2,11h149.3C373.9,94.8,373.8,93.7,373.8,92.5
				L373.8,92.5z"/>
		</g>
	</g>
	<g>
		<g>
			<g>
				<g>
					<path fill="#FD9838" d="M395.7,75c9.7,0,17.5,7.9,17.5,17.5s-7.9,17.5-17.5,17.5s-17.5-7.9-17.5-17.5S386,75,395.7,75
						 M395.7,72.8c-10.9,0-19.7,8.9-19.7,19.7s8.9,19.7,19.7,19.7s19.7-8.9,19.7-19.7S406.6,72.8,395.7,72.8L395.7,72.8z"/>
				</g>
			</g>
		</g>
	</g>
	<g>
		<g>
			<g>
				<rect x="391.3" y="94.7" fill="#50B8E7" width="8.8" height="2.2"/>
			</g>
		</g>
		<g>
			<g>
				<rect x="391.3" y="90.4" fill="#50B8E7" width="8.8" height="2.2"/>
			</g>
		</g>
		<g>
			<g>
				<path fill="#50B8E7" d="M404.5,83.8h-17.5v17.5h17.5V83.8z M391.3,86h1.1v1.1h-1.1V86z M389.1,86h1.1v1.1h-1.1V86z M402.3,99.1
					h-13.2v-11h13.2V99.1z M402.3,87.1h-8.8V86h8.8V87.1z"/>
			</g>
		</g>
	</g>
	<g>
		<g>
			<polygon fill="#FFFFFF" points="510.8,254.8 440.7,254.8 439.6,253.7 438.5,254.8 437.4,254.8 436.3,253.7 436.3,167.1 
				437.4,166 438.5,166 439.6,167.1 440.7,166 510.8,166 			"/>
		</g>
		<g>
			<path fill="#9EA3A5" d="M510.8,255.9h-70.2c-0.3,0-0.6-0.1-0.8-0.3l-0.3-0.3l-0.3,0.3c-0.2,0.2-0.5,0.3-0.8,0.3h-1.1
				c-0.3,0-0.6-0.1-0.8-0.3l-1.1-1.1c-0.2-0.2-0.3-0.5-0.3-0.8v-86.6c0-0.3,0.1-0.6,0.3-0.8l1.1-1.1c0.2-0.2,0.5-0.3,0.8-0.3h1.1
				c0.3,0,0.6,0.1,0.8,0.3l0.3,0.3l0.3-0.3c0.2-0.2,0.5-0.3,0.8-0.3h70.2c0.6,0,1.1,0.5,1.1,1.1v88.8
				C511.9,255.4,511.4,255.9,510.8,255.9z M441.1,253.7h68.6v-86.6h-68.6l-0.8,0.8c-0.4,0.4-1.1,0.4-1.6,0l-0.8-0.8h-0.2l-0.5,0.5
				v85.7l0.5,0.5h0.2l0.8-0.8c0.4-0.4,1.1-0.4,1.6,0L441.1,253.7z"/>
		</g>
	</g>
	<g>
		<g>
			<g>
				<g>
					<rect x="467" y="198.9" fill="#50B8E7" width="6.6" height="2.2"/>
				</g>
			</g>
			<g opacity="0.5">
				<g>
					<rect x="477.9" y="187.9" fill="#50B8E7" width="6.6" height="2.2"/>
				</g>
			</g>
			<g opacity="0.5">
				<g>
					<rect x="475.7" y="192.3" fill="#50B8E7" width="4.4" height="2.2"/>
				</g>
			</g>
			<g opacity="0.5">
				<g>
					<rect x="477.9" y="196.7" fill="#50B8E7" width="4.4" height="2.2"/>
				</g>
			</g>
			<g opacity="0.5">
				<g>
					<rect x="475.7" y="198.9" fill="#50B8E7" width="4.4" height="2.2"/>
				</g>
			</g>
			<g opacity="0.5">
				<g>
					<rect x="484.5" y="203.3" fill="#50B8E7" width="2.2" height="2.2"/>
				</g>
			</g>
			<g opacity="0.5">
				<g>
					<rect x="484.5" y="207.6" fill="#50B8E7" width="2.2" height="6.6"/>
				</g>
			</g>
			<g opacity="0.5">
				<g>
					<rect x="486.7" y="203.3" fill="#50B8E7" width="2.2" height="2.2"/>
				</g>
			</g>
			<g opacity="0.5">
				<g>
					<rect x="486.7" y="207.6" fill="#50B8E7" width="4.4" height="2.2"/>
				</g>
			</g>
			<g opacity="0.5">
				<g>
					<rect x="488.9" y="212" fill="#50B8E7" width="4.4" height="2.2"/>
				</g>
			</g>
			<g opacity="0.5">
				<g>
					<rect x="491.1" y="209.8" fill="#50B8E7" width="6.6" height="2.2"/>
				</g>
			</g>
			<g opacity="0.5">
				<g>
					<rect x="493.3" y="205.5" fill="#50B8E7" width="4.4" height="2.2"/>
				</g>
			</g>
			<g opacity="0.5">
				<g>
					<rect x="491.1" y="203.3" fill="#50B8E7" width="4.4" height="2.2"/>
				</g>
			</g>
			<g opacity="0.5">
				<g>
					<rect x="486.7" y="201.1" fill="#50B8E7" width="6.6" height="2.2"/>
				</g>
			</g>
			<g opacity="0.5">
				<g>
					<rect x="482.3" y="198.9" fill="#50B8E7" width="2.2" height="4.4"/>
				</g>
			</g>
			<g>
				<g>
					<rect x="462.6" y="201.1" fill="#50B8E7" width="6.6" height="2.2"/>
				</g>
			</g>
			<g>
				<g>
					<rect x="451.6" y="201.1" fill="#50B8E7" width="4.4" height="2.2"/>
				</g>
			</g>
			<g>
				<g>
					<rect x="456" y="203.3" fill="#50B8E7" width="2.2" height="2.2"/>
				</g>
			</g>
			<g>
				<g>
					<rect x="460.4" y="203.3" fill="#50B8E7" width="2.2" height="4.4"/>
				</g>
			</g>
			<g>
				<g>
					<rect x="462.6" y="205.5" fill="#50B8E7" width="2.2" height="4.4"/>
				</g>
			</g>
			<g opacity="0.5">
				<g>
					<rect x="495.5" y="231.8" fill="#50B8E7" width="2.2" height="2.2"/>
				</g>
			</g>
			<g opacity="0.5">
				<g>
					<rect x="491.1" y="229.6" fill="#50B8E7" width="4.4" height="2.2"/>
				</g>
			</g>
			<g opacity="0.5">
				<g>
					<rect x="484.5" y="229.6" fill="#50B8E7" width="4.4" height="2.2"/>
				</g>
			</g>
			<g opacity="0.5">
				<g>
					<rect x="477.9" y="229.6" fill="#50B8E7" width="4.4" height="2.2"/>
				</g>
			</g>
			<g opacity="0.5">
				<g>
					<rect x="480.1" y="231.8" fill="#50B8E7" width="6.6" height="2.2"/>
				</g>
			</g>
			<g>
				<g>
					<rect x="469.2" y="231.8" fill="#50B8E7" width="4.4" height="2.2"/>
				</g>
			</g>
			<g>
				<g>
					<rect x="464.8" y="231.8" fill="#50B8E7" width="2.2" height="2.2"/>
				</g>
			</g>
			<g>
				<g>
					<rect x="464.8" y="227.4" fill="#50B8E7" width="2.2" height="2.2"/>
				</g>
			</g>
			<g>
				<g>
					<rect x="464.8" y="220.8" fill="#50B8E7" width="2.2" height="4.4"/>
				</g>
			</g>
			<g>
				<g>
					<rect x="467" y="225.2" fill="#50B8E7" width="2.2" height="6.6"/>
				</g>
			</g>
			<g>
				<g>
					<rect x="471.3" y="223" fill="#50B8E7" width="2.2" height="6.6"/>
				</g>
			</g>
			<g opacity="0.5">
				<g>
					<rect x="477.9" y="225.2" fill="#50B8E7" width="4.4" height="2.2"/>
				</g>
			</g>
			<g opacity="0.5">
				<g>
					<rect x="475.7" y="227.4" fill="#50B8E7" width="4.4" height="2.2"/>
				</g>
			</g>
			<g opacity="0.5">
				<g>
					<rect x="475.7" y="220.8" fill="#50B8E7" width="2.2" height="2.2"/>
				</g>
			</g>
			<g opacity="0.5">
				<g>
					<rect x="480.1" y="223" fill="#50B8E7" width="4.4" height="2.2"/>
				</g>
			</g>
			<g opacity="0.5">
				<g>
					<rect x="482.3" y="220.8" fill="#50B8E7" width="2.2" height="2.2"/>
				</g>
			</g>
			<g opacity="0.5">
				<g>
					<rect x="493.3" y="227.4" fill="#50B8E7" width="4.4" height="2.2"/>
				</g>
			</g>
			<g opacity="0.5">
				<g>
					<rect x="495.5" y="218.6" fill="#50B8E7" width="2.2" height="2.2"/>
				</g>
			</g>
			<g opacity="0.5">
				<g>
					<rect x="495.5" y="201.1" fill="#50B8E7" width="2.2" height="2.2"/>
				</g>
			</g>
			<g opacity="0.5">
				<g>
					<rect x="495.5" y="212" fill="#50B8E7" width="2.2" height="4.4"/>
				</g>
			</g>
			<g opacity="0.5">
				<g>
					<rect x="493.3" y="216.4" fill="#50B8E7" width="2.2" height="8.8"/>
				</g>
			</g>
			<g opacity="0.5">
				<g>
					<rect x="488.9" y="220.8" fill="#50B8E7" width="2.2" height="2.2"/>
				</g>
			</g>
			<g opacity="0.5">
				<g>
					<rect x="484.5" y="216.4" fill="#50B8E7" width="2.2" height="11"/>
				</g>
			</g>
			<g opacity="0.5">
				<g>
					<rect x="486.7" y="216.4" fill="#50B8E7" width="6.6" height="2.2"/>
				</g>
			</g>
			<g opacity="0.5">
				<g>
					<rect x="486.7" y="225.2" fill="#50B8E7" width="8.8" height="2.2"/>
				</g>
			</g>
			<g>
				<g>
					<rect x="462.6" y="212" fill="#50B8E7" width="2.2" height="4.4"/>
				</g>
			</g>
			<g>
				<g>
					<rect x="464.8" y="209.8" fill="#50B8E7" width="2.2" height="2.2"/>
				</g>
			</g>
			<g>
				<g>
					<rect x="464.8" y="205.5" fill="#50B8E7" width="2.2" height="2.2"/>
				</g>
			</g>
			<g>
				<g>
					<rect x="464.8" y="216.4" fill="#50B8E7" width="2.2" height="2.2"/>
				</g>
			</g>
			<g>
				<g>
					<rect x="469.2" y="218.6" fill="#50B8E7" width="2.2" height="2.2"/>
				</g>
			</g>
			<g>
				<g>
					<rect x="469.2" y="223" fill="#50B8E7" width="2.2" height="2.2"/>
				</g>
			</g>
			<g opacity="0.5">
				<g>
					<rect x="475.7" y="218.6" fill="#50B8E7" width="4.4" height="2.2"/>
				</g>
			</g>
			<g opacity="0.5">
				<g>
					<rect x="482.3" y="214.2" fill="#50B8E7" width="2.2" height="4.4"/>
				</g>
			</g>
			<g opacity="0.5">
				<g>
					<rect x="482.3" y="207.6" fill="#50B8E7" width="2.2" height="2.2"/>
				</g>
			</g>
			<g opacity="0.5">
				<g>
					<rect x="475.7" y="206.5" fill="#50B8E7" width="4.4" height="1.1"/>
				</g>
			</g>
			<g opacity="0.5">
				<g>
					<rect x="475.7" y="208.7" fill="#50B8E7" width="4.4" height="1.1"/>
				</g>
			</g>
			<g opacity="0.5">
				<g>
					<rect x="475.7" y="210.9" fill="#50B8E7" width="4.4" height="1.1"/>
				</g>
			</g>
			<g opacity="0.5">
				<g>
					<rect x="475.7" y="213.1" fill="#50B8E7" width="4.4" height="1.1"/>
				</g>
			</g>
			<g opacity="0.5">
				<g>
					<rect x="475.7" y="215.3" fill="#50B8E7" width="4.4" height="1.1"/>
				</g>
			</g>
			<g opacity="0.5">
				<g>
					<rect x="475.7" y="201.1" fill="#50B8E7" width="2.2" height="2.2"/>
				</g>
			</g>
			<g>
				<g>
					<rect x="471.3" y="201.1" fill="#50B8E7" width="2.2" height="2.2"/>
				</g>
			</g>
			<g>
				<g>
					<rect x="458.2" y="218.6" fill="#50B8E7" width="6.6" height="2.2"/>
				</g>
			</g>
			<g>
				<g>
					<rect x="458.2" y="216.4" fill="#50B8E7" width="2.2" height="2.2"/>
				</g>
			</g>
			<g>
				<g>
					<rect x="453.8" y="218.6" fill="#50B8E7" width="2.2" height="2.2"/>
				</g>
			</g>
			<g>
				<g>
					<rect x="451.6" y="214.2" fill="#50B8E7" width="2.2" height="6.6"/>
				</g>
			</g>
			<g>
				<g>
					<rect x="453.8" y="205.5" fill="#50B8E7" width="2.2" height="4.4"/>
				</g>
			</g>
			<g>
				<g>
					<rect x="451.6" y="207.6" fill="#50B8E7" width="2.2" height="4.4"/>
				</g>
			</g>
			<g>
				<g>
					<rect x="456" y="212" fill="#50B8E7" width="2.2" height="4.4"/>
				</g>
			</g>
			<g>
				<g>
					<rect x="458.2" y="205.5" fill="#50B8E7" width="2.2" height="8.8"/>
				</g>
			</g>
			<g opacity="0.5">
				<g>
					<rect x="482.3" y="190.1" fill="#50B8E7" width="2.2" height="2.2"/>
				</g>
			</g>
			<g opacity="0.5">
				<g>
					<rect x="480.1" y="194.5" fill="#50B8E7" width="4.4" height="2.2"/>
				</g>
			</g>
			<g>
				<g>
					<rect x="467" y="194.5" fill="#50B8E7" width="2.2" height="2.2"/>
				</g>
			</g>
			<g>
				<g>
					<rect x="464.8" y="196.7" fill="#50B8E7" width="4.4" height="2.2"/>
				</g>
			</g>
			<g>
				<g>
					<rect x="464.8" y="187.9" fill="#50B8E7" width="4.4" height="2.2"/>
				</g>
			</g>
			<g>
				<g>
					<rect x="471.3" y="187.9" fill="#50B8E7" width="2.2" height="2.2"/>
				</g>
			</g>
			<g>
				<g>
					<rect x="464.8" y="192.3" fill="#50B8E7" width="6.6" height="2.2"/>
				</g>
			</g>
			<g>
				<g>
					<g>
						<path fill="#50B8E7" d="M462.6,198.9h-11v-11h11V198.9z M453.8,196.7h6.6v-6.6h-6.6V196.7z"/>
					</g>
				</g>
			</g>
			<g>
				<g>
					<rect x="455.5" y="191.8" fill="#50B8E7" width="3.3" height="3.3"/>
				</g>
			</g>
			<g>
				<g>
					<g>
						<path fill="#50B8E7" d="M462.6,234h-11v-11h11V234z M453.8,231.8h6.6v-6.6h-6.6V231.8z"/>
					</g>
				</g>
			</g>
			<g>
				<g>
					<rect x="455.5" y="226.8" fill="#50B8E7" width="3.3" height="3.3"/>
				</g>
			</g>
			<g opacity="0.5">
				<g>
					<g>
						<path fill="#50B8E7" d="M497.7,198.9h-11v-11h11V198.9z M488.9,196.7h6.6v-6.6h-6.6V196.7z"/>
					</g>
				</g>
			</g>
			<g opacity="0.5">
				<g>
					<rect x="490.5" y="191.8" fill="#50B8E7" width="3.3" height="3.3"/>
				</g>
			</g>
		</g>
		<g>
			<g>
				<path fill="none" d="M472.4,207.6c0.6,0,1.1,0.5,1.1,1.1c0,0.6-0.5,1.1-1.1,1.1s-1.1-0.5-1.1-1.1
					C471.3,208.1,471.8,207.6,472.4,207.6z"/>
			</g>
		</g>
		<g>
			<g>
				<polygon fill="#50B8E7" points="473.5,212 472.4,210.9 470.2,213.1 470.2,206.5 473.5,206.5 473.5,205.5 469.2,205.5 
					469.2,216.4 473.5,216.4 473.5,212 				"/>
			</g>
		</g>
		<g>
			<g>
				<circle fill="#50B8E7" cx="472.4" cy="208.7" r="1.1"/>
			</g>
		</g>
	</g>
	<g>
		<g>
			<g>
				<path fill="#FFFFFF" d="M495.5,219.2c-4.5,0-8.2-3.7-8.2-8.2c0-4.5,3.7-8.2,8.2-8.2c4.5,0,8.2,3.7,8.2,8.2
					C503.7,215.5,500,219.2,495.5,219.2z"/>
			</g>
		</g>
		<g>
			<g>
				<g>
					<path fill="#FD9838" d="M495.5,203.3c4.2,0,7.7,3.4,7.7,7.7s-3.4,7.7-7.7,7.7c-4.2,0-7.7-3.4-7.7-7.7S491.2,203.3,495.5,203.3
						 M495.5,202.2c-4.8,0-8.8,3.9-8.8,8.8c0,4.8,3.9,8.8,8.8,8.8c4.8,0,8.8-3.9,8.8-8.8S500.3,202.2,495.5,202.2L495.5,202.2z"/>
				</g>
			</g>
		</g>
	</g>
	<g>
		<g>
			<g>
				<path fill="#FFFFFF" d="M453.8,219.2c-4.5,0-8.2-3.7-8.2-8.2c0-4.5,3.7-8.2,8.2-8.2c4.5,0,8.2,3.7,8.2,8.2
					C462,215.5,458.3,219.2,453.8,219.2z"/>
			</g>
		</g>
		<g>
			<g>
				<g>
					<path fill="#FD9838" d="M453.8,203.3c4.2,0,7.7,3.4,7.7,7.7s-3.4,7.7-7.7,7.7c-4.2,0-7.7-3.4-7.7-7.7S449.6,203.3,453.8,203.3
						 M453.8,202.2c-4.8,0-8.8,3.9-8.8,8.8c0,4.8,3.9,8.8,8.8,8.8c4.8,0,8.8-3.9,8.8-8.8C462.6,206.1,458.7,202.2,453.8,202.2
						L453.8,202.2z"/>
				</g>
			</g>
		</g>
	</g>
	<g>
		<g>
			<path fill="#FD9838" d="M496.6,213.1h-2.3v-7.7h2.3V213.1z M496.6,217.1h-2.3v-2.1h2.3V217.1z"/>
		</g>
	</g>
	<g>
		<g>
			<path fill="#FD9838" d="M452.9,213.8c0-0.7,0.1-1.3,0.3-1.6c0.2-0.3,0.6-0.8,1.3-1.3c0.4-0.3,0.7-0.6,0.9-1
				c0.2-0.4,0.3-0.8,0.3-1.2c0-0.5-0.1-0.9-0.4-1.2c-0.3-0.3-0.6-0.4-1.1-0.4c-0.4,0-0.7,0.1-1,0.4c-0.3,0.2-0.4,0.6-0.4,1h-2.3l0,0
				c0-1,0.3-1.8,1-2.4c0.7-0.5,1.6-0.8,2.7-0.8c1.2,0,2.1,0.3,2.8,0.9c0.7,0.6,1,1.4,1,2.5c0,0.7-0.2,1.3-0.6,1.9
				c-0.4,0.6-0.9,1.1-1.5,1.5c-0.3,0.3-0.5,0.5-0.6,0.8c-0.1,0.3-0.2,0.6-0.2,1H452.9z M455.2,217.1h-2.4v-2h2.4V217.1z"/>
		</g>
	</g>
	<g>
		<g opacity="0.5">
			<g>
				<path fill="#9EA3A5" d="M439.6,254.8c-0.6,0-1.1-0.5-1.1-1.1v-86.6c0-0.6,0.5-1.1,1.1-1.1c0.6,0,1.1,0.5,1.1,1.1v86.6
					C440.7,254.3,440.2,254.8,439.6,254.8z"/>
			</g>
		</g>
		<g opacity="0.25">
			<g>
				<path fill="#9EA3A5" d="M509.7,254.8c-0.6,0-1.1-0.5-1.1-1.1v-86.6c0-0.6,0.5-1.1,1.1-1.1c0.6,0,1.1,0.5,1.1,1.1v86.6
					C510.8,254.3,510.3,254.8,509.7,254.8z"/>
			</g>
		</g>
		<g>
			<g>
				<path fill="#9EA3A5" d="M439,254.2c-0.3,0-0.5-0.2-0.5-0.5v-86.6c0-0.3,0.2-0.5,0.5-0.5s0.5,0.2,0.5,0.5v86.6
					C439.6,254,439.3,254.2,439,254.2z"/>
			</g>
		</g>
	</g>
	<g opacity="0.5">
		<g>
			<line fill="#FFFFFF" x1="511.9" y1="255.9" x2="435.2" y2="255.9"/>
		</g>
		<g>
			<path fill="#9EA3A5" d="M511.9,258.1h-76.7c-1.2,0-2.2-1-2.2-2.2s1-2.2,2.2-2.2h76.7c1.2,0,2.2,1,2.2,2.2
				S513.1,258.1,511.9,258.1z"/>
		</g>
	</g>
	<g>
		<g>
			<line fill="#FFFFFF" x1="522.9" y1="252.6" x2="510.8" y2="252.6"/>
		</g>
		<g>
			<rect x="510.8" y="251.5" fill="#9EA3A5" width="12.1" height="2.2"/>
		</g>
	</g>
	<g>
		<g>
			<line fill="#FFFFFF" x1="436.3" y1="252.6" x2="424.2" y2="252.6"/>
		</g>
		<g>
			<rect x="424.2" y="251.5" fill="#9EA3A5" width="12.1" height="2.2"/>
		</g>
	</g>
	<g>
		<g opacity="0.75">
			<path fill="#FD9838" d="M235.7,144.1v-4.4h-13.5c-0.4,1.5-0.8,2.9-1.2,4.4H235.7z"/>
		</g>
		<g opacity="0.75">
			<path fill="#9EA3A5" d="M257.6,149.5v-2.2h-37.7c-0.2,0.7-0.5,1.5-0.8,2.2H257.6z"/>
		</g>
		<g opacity="0.75">
			<path fill="#9EA3A5" d="M257.6,155v-2.2h-39.7c-0.3,0.7-0.6,1.5-0.9,2.2H257.6z"/>
		</g>
		<g opacity="0.75">
			<path fill="#9EA3A5" d="M235.7,160.5v-2.2h-20.2c-0.3,0.7-0.7,1.5-1,2.2H235.7z"/>
		</g>
		<g opacity="0.75">
			<path fill="#FD9838" d="M224.7,183.5v-4.4h-21.6c-1.1,1.5-2.3,3-3.5,4.4H224.7z"/>
		</g>
		<g opacity="0.75">
			<path fill="#9EA3A5" d="M257.6,189v-2.2h-60.9c-0.7,0.7-1.3,1.5-2,2.2H257.6z"/>
		</g>
		<g opacity="0.75">
			<path fill="#9EA3A5" d="M257.6,194.5v-2.2h-66.2c-0.8,0.7-1.5,1.5-2.3,2.2H257.6z"/>
		</g>
		<g opacity="0.75">
			<path fill="#9EA3A5" d="M213.8,200v-2.2h-28.4c-0.9,0.7-1.8,1.5-2.7,2.2H213.8z"/>
		</g>
	</g>
</g>
</svg>
